<?xml version="1.0" encoding="utf-8"?>
<svg viewBox="27.599 26.349 115.951 159.616" width="115.951px" height="159.616px" xmlns="http://www.w3.org/2000/svg" xmlns:bx="https://boxy-svg.com"><defs><bx:export><bx:file format="svg" path="atlas.svg"/></bx:export></defs><path style="fill: none; stroke: rgb(98, 83, 68); stroke-linejoin: round; stroke-linecap: round; stroke-width: 5px;" d="M -13.32 60.175 L -23.99 67.481 L -16.065 79.679"/><path style="fill-rule: nonzero; paint-order: fill; stroke: rgb(173, 171, 171); stroke-width: 9px; stroke-linecap: round; stroke-linejoin: round; fill: rgb(238, 238, 238);" d="M 47.133 56.514 C 39.949 73.469 41.002 85.961 53.419 104.957 C 59.248 113.874 52.387 112.504 51.518 122.512 C 50.416 135.192 54.961 145.279 53.472 155.148 C 52.493 161.638 46.474 167.275 47.652 175.785 C 57.173 180.233 82.058 182.804 102.67 176.073 C 108.626 174.128 112.431 166.94 109.905 158.795 C 106.611 148.174 92.475 135.149 92.475 134.594 C 92.086 135.053 124.187 119.53 131.012 102.485 C 141.79 75.566 132.43 51.166 123.004 42.946 C 113.579 34.415 105.441 29.766 88.551 30.458 C 67.224 31.332 57.061 39.146 47.133 56.514 Z"/><g id="layer1" transform="matrix(1.548908, 0, 0, 1.548908, 51.123222, 36.857929)" style=""><g id="text1" style="font-size:11.6258px;line-height:0.9;font-family:Diogenes;-inkscape-font-specification:Diogenes;text-align:center;text-anchor:middle;stroke-width:0.544959" transform="scale(1.0425798,0.95915918)" aria-label="NO&#10;PAIN&#10;NO&#10;GAIN"><path d="m 15.588265,6.7784962 -0.0134,1.62761 c -0.081,0.13176 -0.13936,0.27902 -0.17532,0.44178 -0.027,0.15501 -0.0404,0.32165 -0.0404,0.49991 0,0.20927 0.0404,0.58517 0.12138,1.1276998 0.13486,0.0155 0.25623,0.0272 0.36412,0.0349 0.11688,0.008 0.22926,0.0116 0.33715,0.0116 0.33265,0 0.62484,-0.0542 0.87658,-0.16276 V 9.8709562 c 0,-0.0697 -0.0135,-0.12788 -0.0404,-0.17439 -0.027,-0.0465 -0.0585,-0.093 -0.0944,-0.13951 -0.027,-0.0465 -0.054,-0.0968 -0.081,-0.15113 -0.027,-0.0543 -0.0404,-0.11627 -0.0404,-0.18602 0,-0.0853 0.01,-0.18213 0.027,-0.29064 0.0179,-0.11626 0.0359,-0.22864 0.054,-0.33715 0.027,-0.11626 0.0494,-0.22864 0.0674,-0.33715 0.0179,-0.10851 0.0316,-0.20151 0.0405,-0.27902 -0.0631,-0.0465 -0.099,-0.10847 -0.10792,-0.18601 0,-0.0775 0.01,-0.15889 0.027,-0.24414 0.0179,-0.093 0.036,-0.18214 0.054,-0.26739 0.027,-0.093 0.0404,-0.17051 0.0404,-0.23252 0,-0.17826 0.027,-0.3759 0.081,-0.59292 0.063,-0.21701 0.0944,-0.44178 0.0944,-0.67429 v -0.20927 c 0,-0.0155 -0.004,-0.031 -0.0134,-0.0465 v -0.0465 -0.11626 c 0,-0.0853 -0.0135,-0.15888 -0.0404,-0.22089 -0.0179,-0.0697 -0.036,-0.15113 -0.054,-0.24414 0.18879,0.20926 0.40906,0.45728 0.6608,0.74405 0.25174,0.28677 0.4945,0.57741 0.72825,0.87193 0.24274,0.29452 0.46301,0.58129 0.66081,0.86031 0.19779,0.27127 0.33715,0.49216 0.41806,0.66267 0.31467,0.24802 0.56641,0.45341 0.75522,0.61617 0.19779,0.15501 0.34613,0.29452 0.44504,0.41853 0.10792,0.12401 0.17531,0.24026 0.20227,0.34877 0.036,0.10851 0.054,0.23639 0.054,0.38365 0,0.2480198 0.0944,0.4262798 0.28321,0.5347898 0.19779,0.10851 0.46751,0.16276 0.80916,0.16276 h 0.13485 c 0.10792,0 0.18431,-0.031 0.22926,-0.093 0.0449,-0.062 0.0764,-0.13563 0.0944,-0.22089 0.0179,-0.093 0.0225,-0.1898898 0.0134,-0.2906498 v -0.25577 c 0,-0.26351 -0.01,-0.55803 -0.027,-0.88356 -0.0179,-0.33327 -0.0404,-0.67042 -0.0674,-1.01144 -0.027,-0.34877 -0.0494,-0.69367 -0.0674,-1.0347 -0.0179,-0.34877 -0.027,-0.67042 -0.027,-0.96494 0,-0.40303 0.0179,-0.7673 0.054,-1.09282 0.036,-0.32553 0.0944,-0.61617 0.17532,-0.87194 -0.0989,-0.23251 -0.14835,-0.51928 -0.14835,-0.86031 0,-0.0465 0.004,-0.11622 0.0135,-0.20926 0.01,-0.093 0.0179,-0.19764 0.027,-0.3139 0.01,-0.12401 0.0179,-0.25189 0.027,-0.38365 0.01,-0.13951 0.0134,-0.27515 0.0134,-0.4069 v -0.19764 l -0.25624,-0.23252 c -0.18879,0.062 -0.3776,0.0969 -0.5664,0.10463 -0.17981,0.008 -0.34164,0.0271 -0.4855,0.0581 -0.13485,0.031 -0.24724,0.0891 -0.33714,0.17439 -0.0899,0.0775 -0.13487,0.21702 -0.13487,0.41853 0,0.21701 0.0853,0.38365 0.25624,0.49991 l -0.054,4.4643 -0.32366,-0.25576 c -0.054,-0.20151 -0.17528,-0.38753 -0.36413,-0.55804 -0.1798,-0.17826 -0.3776,-0.31002 -0.59337,-0.39528 -0.11688,-0.19376 -0.26972,-0.3914 -0.45853,-0.59291 -0.1798,-0.20927 -0.3776,-0.42628 -0.59337,-0.65105 -0.21577,-0.23251 -0.44054,-0.47665 -0.6743,-0.73242 -0.23375,-0.25577 -0.44953,-0.52704 -0.64732,-0.81381 v -0.0116 c -0.17981,-0.27902 -0.38211,-0.55804 -0.60687,-0.83705 -0.22477,-0.27902 -0.54393,-0.51929 -0.9575,-0.7208 0,0.19376 0.004,0.3759 0.0134,0.54641 0.0179,0.17051 0.0316,0.34102 0.0404,0.51153 0.0179,0.16277 0.0316,0.3294 0.0405,0.49991 0.0179,0.17051 0.0269,0.35265 0.0269,0.54642 0,0.11625 -0.004,0.24414 -0.0135,0.38365 -0.01,0.13176 -0.0225,0.26739 -0.0404,0.4069 -0.0719,0.57354 -0.12587,1.07345 -0.16183,1.49973 -0.036,0.41853 -0.054,0.77118 -0.054,1.05795 z m 13.39154,3.6621198 c 0.49449,-0.093 0.971,-0.25577 1.42951,-0.4882798 0.46752,-0.23251 0.89007,-0.51541 1.26768,-0.84868 0.38659,-0.33327 0.71476,-0.70142 0.98448,-1.10445 0.2787,-0.40303 0.47649,-0.82156 0.59338,-1.25559 -0.01,-0.0387 -0.0269,-0.20537 -0.054,-0.49991 -0.027,-0.29452 -0.054,-0.72855 -0.0809,-1.30209 -0.036,-0.7053 -0.1843,-1.29047 -0.44503,-1.7555 -0.25175,-0.47278 -0.58889,-0.85255 -1.01146,-1.13932 -0.42255,-0.28677 -0.91703,-0.48829 -1.48344,-0.60455 -0.56642,-0.12401 -1.17776,-0.18601 -1.83408,-0.18601 -0.45853,0 -0.90806,0.0465 -1.34859,0.13951 -0.44056,0.0853 -0.86761,0.21314 -1.28119,0.38365 -0.063,0.11626 -0.18432,0.23252 -0.36411,0.34878 -0.17981,0.10851 -0.36862,0.21701 -0.56641,0.32552 -0.1978,0.10075 -0.3821,0.20151 -0.55292,0.30227 -0.17083,0.093 -0.27421,0.18601 -0.31018,0.27902 -0.28769,0.54254 -0.50797,1.07733 -0.66081,1.60436 -0.15285,0.52703 -0.22927,1.04632 -0.22927,1.55786 0,1.24783 0.46752,2.30966 1.40255,3.18547 1.22272,0.7595498 2.41848,1.1393198 3.58726,1.1393198 0.35064,0 0.6698,-0.0271 0.9575,-0.0814 z m 2.61627,-5.6501398 c -0.01,0.13176 -0.0494,0.2829 -0.12137,0.45341 -0.063,0.17051 -0.13038,0.3294 -0.20229,0.47666 0.17981,0.27902 0.26972,0.56191 0.26972,0.84868 0,0.31002 -0.10792,0.62779 -0.32366,0.95332 -0.21577,0.31777 -0.52596,0.63942 -0.93053,0.96494 -0.0449,0.0387 -0.11686,0.0581 -0.21577,0.0581 -0.036,0 -0.0674,-0.004 -0.0944,-0.0116 h -0.12138 c -0.26972,0 -0.41357,0.10076 -0.43155,0.30227 -0.22478,0.0853 -0.47202,0.15114 -0.74173,0.19764 -0.26074,0.0465 -0.54843,0.0698 -0.86309,0.0698 -0.18881,0 -0.3956,-0.008 -0.62037,-0.0232 -0.21577,-0.0155 -0.43156,-0.0465 -0.64732,-0.093 -0.21577,-0.0465 -0.41806,-0.11241 -0.60687,-0.19764 -0.1888,-0.0853 -0.34164,-0.19764 -0.45851,-0.33715 v 0.0116 c -0.0449,-0.0697 -0.0988,-0.17826 -0.16183,-0.32552 -0.0629,-0.15501 -0.13488,-0.32165 -0.21578,-0.49991 -0.0809,-0.17827 -0.17083,-0.35266 -0.26972,-0.52317 -0.0899,-0.17051 -0.18431,-0.31001 -0.2832,-0.41852 0.10792,-0.20927 0.16183,-0.45729 0.16183,-0.74406 0,-0.0697 -0.01,-0.17438 -0.027,-0.31389 -0.0179,-0.14726 -0.0269,-0.30615 -0.0269,-0.47666 v -0.22089 c 0.15284,-0.33327 0.33715,-0.65105 0.55292,-0.95332 0.21578,-0.30227 0.45853,-0.60066 0.72824,-0.89518 0.0899,-0.008 0.21129,-0.0271 0.36413,-0.0581 0.16182,-0.031 0.32366,-0.062 0.48549,-0.093 0.17083,-0.0387 0.32815,-0.0736 0.472,-0.10463 0.15284,-0.031 0.26523,-0.0465 0.33716,-0.0465 0.0899,0 0.20228,0.0155 0.33715,0.0465 0.27871,-0.10851 0.58439,-0.16276 0.91704,-0.16276 0.25173,0 0.4855,0.0232 0.70127,0.0697 0.22476,0.0387 0.43605,0.10461 0.63384,0.19764 0.19779,0.093 0.39559,0.22089 0.59338,0.38365 0.19779,0.15501 0.40458,0.34878 0.62034,0.58129 0.099,0.12401 0.17083,0.23252 0.21578,0.32553 0.054,0.0853 0.081,0.16663 0.081,0.24414 0,0.0543 -0.01,0.10464 -0.027,0.15113 -0.0179,0.0387 -0.0359,0.0775 -0.054,0.11626 z" id="path23" style="stroke-width:0.586939"/><path d="m 14.766845,15.441056 q -1.22076,-0.69755 -2.44154,-1.22071 -1.19817,-0.52316 -2.4189204,-0.84868 -0.0905,0.0116 -0.15829,0.0232 -0.0451,0.0116 -0.0905,0.0233 v -0.0116 q 0,-0.19763 -0.15829,-0.30227 -0.13572,-0.10463 -0.42951,-0.17438 -0.27129,-0.0698 -0.67823,-0.13951 -0.40691,-0.0698 -0.92689,-0.20927 -0.51994,-0.12788 -1.0399,-0.23251 -0.49734,-0.11626 -1.01731,-0.11626 l -0.0452,1.1277 q 0.22607,0.65105 0.38433,1.3951 0.15828,0.73242 0.15828,1.55785 v 1.49973 q 0,0.3604 0,0.7208 0,0.3604 0.0225,0.70918 -0.22606,0.10463 -0.31648,0.24414 -0.0905,0.12788 -0.13573,0.27902 -0.0225,0.15113 -0.0679,0.29064 -0.0225,0.13951 -0.11298,0.24414 v 0.0698 q 0,0.12788 -0.11298,0.30227 -0.0905,0.17439 -0.0905,0.38365 0,0.10463 0.0452,0.22089 0.0679,0.10463 0.24868,0.23252 0.11297,0 0.33911,0 0.24866,-0.0116 0.51994,-0.0116 0.2713,0 0.51996,0 0.27128,-0.0116 0.42951,-0.0116 0.2713,0 0.54258,0.0349 l -0.0225,-0.0116 q 0.13552,0.0349 0.38432,0.0349 0.15828,-0.13951 0.18083,-0.18601 0.0454,-0.0581 0.0679,-0.093 v -0.30227 q 0,-0.10463 0.11298,-0.26739 0.13554,-0.17439 0.13554,-0.32552 0,-0.10463 -0.11299,-0.16276 -0.0905,-0.0581 -0.22604,-0.12789 -0.11297,-0.0697 -0.22608,-0.17438 -0.0905,-0.10464 -0.0905,-0.29065 0,-0.10463 0.0905,-0.32552 0.0905,-0.22089 0.20345,-0.47666 0.11299,-0.25577 0.20347,-0.48828 0.0905,-0.24414 0.0905,-0.37203 0,-0.18601 -0.0679,-0.34877 2.1476404,-0.38365 3.7075104,-0.88356 1.55986,-0.51154 2.59978,-1.12771 z m -6.3299304,0.49991 q 0,-0.12789 -0.0679,-0.38365 -0.0679,-0.25577 -0.15828,-0.53479 -0.0679,-0.27902 -0.13572,-0.53479 -0.0679,-0.25576 -0.0679,-0.38365 v -0.0814 l 0.18085,0.0116 q 0.38431,0.12788 0.72342,0.26739 0.36169,0.12788 0.76862,0.30227 0.4069404,0.17439 0.9042804,0.39528 0.49734,0.22089 1.17556,0.53479 -1.6051,0.58129 -3.3910304,0.82543 0.0679,-0.20927 0.0679,-0.41853 z m 4.6570404,5.499 q 0.29388,0.093 0.56516,0.093 0.6556,0 1.10773,-0.30227 0.40693,-0.6278 1.06254,-1.59274 0.6782,-0.97656 1.55986,-2.22052 0.15828,-0.0581 0.40693,-0.0581 0.24867,0 0.70081,0.0697 0.45212,0.0581 0.97208,0.0581 0.0905,0 0.24868,0 0.1583,-0.0116 0.33911,-0.0116 0.18085,0 0.36172,0 0.18083,-0.0116 0.31648,-0.0116 0.24867,0 0.45215,0.0233 0.22605,0.0232 0.42953,0.0581 0.40691,0.45341 0.97209,1.11608 0.56515,0.66267 1.28859,1.4881 -0.0225,0.0697 -0.0225,0.12788 0,0.0465 0,0.10463 0,0.15114 0.0904,0.33715 0.0905,0.17439 0.27129,0.3604 v -0.0116 l 0.18084,0.26739 q 0.38432,0.0349 0.72341,0.0465 0.36172,0.0116 0.67822,0.0116 0.24867,0 0.61039,-0.0116 0.3843,-0.0116 0.85905,-0.0581 v -0.25576 q 0,-0.2674 -0.31651,-0.65105 -0.29387,-0.39528 -0.65558,-0.75568 -0.33911,-0.3604 -0.6556,-0.62779 -0.2939,-0.26739 -0.2939,-0.30227 -0.0452,-0.093 -0.11298,-0.16276 -0.0679,-0.0814 -0.11297,-0.15114 -0.47475,-0.67429 -0.81384,-1.16258 -0.3391,-0.49991 -0.6556,-0.89518 -0.29389,-0.40691 -0.61038,-0.74405 -0.29389,-0.34878 -0.67821,-0.73243 -0.3391,-0.39528 -0.74602,-0.91844 -0.40694,-0.52316 -0.79126,-1.0812 v -0.0232 q 0,-0.0581 -0.13553,-0.16276 -0.13573,-0.11626 -0.31648,-0.23252 -0.18085,-0.11625 -0.38432,-0.19763 -0.20347,-0.0814 -0.33912,-0.0814 -0.13553,0 -0.27128,0.0116 -0.13554,0.0116 -0.27127,0.0698 h 0.0225 q -0.36171,0.11625 -0.56518,0.30227 -0.20345,0.18601 -0.31649,0.38365 -0.0905,0.19764 -0.13554,0.38365 -0.0225,0.17439 -0.0225,0.27902 0,0.0233 0.0451,0.0233 -0.20345,0.19764 -0.47474,0.52316 -0.27128,0.32552 -0.58779,0.68592 -0.29389,0.34878 -0.63298,0.68593 -0.31649,0.32552 -0.63298,0.53478 -0.29389,0.55804 -0.76864,1.26721 -0.47474,0.69755 -1.19816,1.59274 -0.22607,0.27902 -0.45215,0.56966 -0.22605,0.27902 -0.40692,0.54642 -0.18084,0.25576 -0.2939,0.48828 -0.11297,0.22089 -0.11297,0.3604 0,0.33715 0.51995,0.54641 z m 7.07592,-5.94078 q 0.11299,0.22089 0.22607,0.4069 0.13573,0.18601 0.27129,0.33715 -0.20346,0.0116 -0.54256,0.0349 -0.3165,0.0116 -0.65561,0.0349 -0.33908,0.0233 -0.65558,0.0465 -0.2939,0.0116 -0.45215,0.0116 h -0.0679 q 0.31649,-0.44178 0.6782,-0.87193 0.38433,-0.44178 0.81387,-0.7208 0.0679,0.12788 0.15827,0.3139 0.11299,0.17438 0.22607,0.4069 z m 7.59588,1.40672 q 0,0.55804 0.045,1.09283 0.0453,0.53478 0.13573,1.05794 l -0.0905,1.97639 q 0.29388,0.25577 0.61037,0.38365 0.31648,0.11626 0.63299,0.11626 0.2939,0 0.45214,-0.0698 0.18083,-0.0814 0.27128,-0.18601 0.0905,-0.10463 0.11298,-0.22089 0.0454,-0.12788 0.0454,-0.22089 0,-0.0581 -0.0225,-0.093 0,-0.0349 0,-0.0581 v -0.46503 q 0,-0.38365 -0.0225,-0.91844 0,-0.54641 -0.0225,-1.08119 -0.0225,-0.53479 -0.0453,-0.97657 0,-0.44178 0,-0.6278 0,-2.27865 0.61039,-3.81326 0.045,-0.0465 0.045,-0.0814 0.0225,-0.0349 0.0225,-0.093 0,-0.37203 -0.92689,-0.39528 -0.15828,0.0465 -0.38432,0.0465 -0.0905,0 -0.33911,-0.0116 -0.22607,-0.0116 -0.31649,-0.0116 -0.54257,0 -0.76864,0.13951 -0.22605,0.13951 -0.22605,0.46503 0,0.55804 0.45212,0.91844 -0.27127,1.74387 -0.27127,3.12734 z m 3.97882,0.89519 -0.0225,1.62761 q -0.20345,0.19764 -0.29386,0.44178 -0.0679,0.23251 -0.0679,0.49991 0,0.31389 0.20346,1.1277 0.33911,0.0232 0.61038,0.0349 0.2939,0.0116 0.56519,0.0116 0.83643,0 1.46943,-0.16276 v -0.48828 q 0,-0.10463 -0.0679,-0.17439 -0.0679,-0.0697 -0.15829,-0.13951 -0.0679,-0.0697 -0.13553,-0.15113 -0.0679,-0.0814 -0.0679,-0.18602 0,-0.12788 0.0454,-0.29064 0.0453,-0.17439 0.0905,-0.33715 0.0679,-0.17439 0.11297,-0.33715 0.045,-0.16276 0.0679,-0.27902 -0.15829,-0.0697 -0.18084,-0.18601 0,-0.11626 0.0454,-0.24414 0.045,-0.13951 0.0905,-0.26739 0.0679,-0.13951 0.0679,-0.23252 0,-0.26739 0.13553,-0.59292 0.15829,-0.32552 0.15829,-0.67429 v -0.20927 q 0,-0.0232 -0.0225,-0.0465 0,-0.0233 0,-0.0465 v -0.11626 q 0,-0.12788 -0.0679,-0.22089 -0.0454,-0.10463 -0.0905,-0.24414 0.47476,0.31389 1.10774,0.74405 0.633,0.43015 1.22078,0.87193 0.61037,0.44178 1.10773,0.86031 0.49735,0.40691 0.7008,0.66267 0.79124,0.37203 1.266,0.61617 0.49733,0.23252 0.74602,0.41853 0.27128,0.18601 0.33909,0.34877 0.0904,0.16276 0.0904,0.38365 0,0.37203 0.47474,0.53479 0.49735,0.16276 1.35641,0.16276 h 0.22605 q 0.27129,0 0.38433,-0.093 0.11297,-0.093 0.15828,-0.22089 0.0454,-0.13951 0.0225,-0.29065 0,-0.15113 0,-0.25577 0,-0.39527 -0.0454,-0.88356 -0.045,-0.49991 -0.11299,-1.01144 -0.0679,-0.52316 -0.11297,-1.0347 -0.0454,-0.52316 -0.0454,-0.96494 0,-0.60454 0.0905,-1.09282 0.0904,-0.48829 0.29389,-0.87194 -0.24868,-0.34877 -0.24868,-0.86031 0,-0.0697 0.0225,-0.20926 0.0225,-0.13951 0.045,-0.3139 0.0225,-0.18601 0.0452,-0.38365 0.0225,-0.20927 0.0225,-0.4069 v -0.19764 l -0.42954,-0.23252 q -0.47473,0.093 -0.94949,0.10463 -0.45213,0.0116 -0.81383,0.0581 -0.33911,0.0465 -0.56518,0.17439 -0.22608,0.11626 -0.22608,0.41853 0,0.32552 0.42955,0.49991 l -0.0905,4.4643 -0.54257,-0.25576 q -0.13552,-0.30227 -0.61039,-0.55804 -0.45212,-0.26739 -0.99469,-0.39528 -0.29389,-0.29064 -0.76865,-0.59291 -0.45212,-0.3139 -0.99469,-0.65105 -0.54255,-0.34877 -1.13033,-0.73242 -0.5878,-0.38366 -1.08514,-0.81381 v -0.0116 q -0.45214,-0.41853 -1.0173,-0.83705 -0.56518,-0.41853 -1.60511,-0.7208 0,0.29064 0.0225,0.54641 0.045,0.25577 0.0679,0.51153 0.045,0.24415 0.0679,0.49991 0.045,0.25577 0.045,0.54642 0,0.17438 -0.0225,0.38365 -0.0225,0.19764 -0.0679,0.4069 -0.18083,0.86031 -0.27128,1.49973 -0.0905,0.62779 -0.0905,1.05795 z" id="path24" style="stroke-width:0.759928"/><path d="m 2.5276336,27.448276 -0.03292,1.62761 q -0.297013,0.19764 -0.42899,0.44178 -0.09902,0.23251 -0.09902,0.49991 0,0.31389 0.297001,1.1277 0.494971,0.0232 0.890939,0.0349 0.428989,0.0116 0.824971,0.0116 1.22092,0 2.14488,-0.16276 v -0.48828 q 0,-0.10463 -0.099,-0.17439 -0.099,-0.0697 -0.23105,-0.13951 -0.099,-0.0697 -0.1981,-0.15113 -0.099,-0.0814 -0.099,-0.18602 0,-0.12788 0.0661,-0.29064 0.0661,-0.17439 0.13202,-0.33715 0.099,-0.17439 0.16491,-0.33715 0.0661,-0.16276 0.099,-0.27902 -0.23105,-0.0697 -0.26397,-0.18601 0,-0.11626 0.0661,-0.24414 0.0661,-0.13951 0.13201,-0.26739 0.099,-0.13951 0.099,-0.23252 0,-0.26739 0.19812,-0.59292 0.23105,-0.32552 0.23105,-0.67429 v -0.20927 q 0,-0.0232 -0.0331,-0.0465 0,-0.0232 0,-0.0465 v -0.11626 q 0,-0.12789 -0.099,-0.22089 -0.0658,-0.10463 -0.132,-0.24414 0.69296,0.31389 1.61692,0.74405 0.92397,0.43015 1.78192,0.87193 0.8909304,0.44178 1.6169104,0.86031 0.72596,0.40691 1.02295,0.66267 1.15493,0.37203 1.84791,0.61617 0.72595,0.23252 1.08895,0.41853 0.39598,0.18601 0.49496,0.34877 0.132,0.16276 0.132,0.38365 0,0.37203 0.69294,0.53479 0.72598,0.16276 1.97991,0.16276 h 0.32999 q 0.39599,0 0.56095,-0.093 0.1649,-0.093 0.23104,-0.22089 0.0661,-0.13951 0.0331,-0.29065 0,-0.15113 0,-0.25577 0,-0.39527 -0.0661,-0.88356 -0.0662,-0.49991 -0.16491,-1.01144 -0.099,-0.52316 -0.1649,-1.0347 -0.0661,-0.52316 -0.0661,-0.96494 0,-0.60454 0.13202,-1.09283 0.132,-0.48828 0.42899,-0.87193 -0.363,-0.34877 -0.363,-0.86031 0,-0.0697 0.0329,-0.20926 0.0331,-0.13951 0.0661,-0.3139 0.033,-0.18601 0.0661,-0.38365 0.0328,-0.20927 0.0328,-0.4069 v -0.19764 l -0.62697,-0.23252 q -0.69296,0.093 -1.38591,0.10463 -0.65999,0.0116 -1.18796,0.0581 -0.49497,0.0465 -0.82495,0.17439 -0.33,0.11626 -0.33,0.41853 0,0.32552 0.62696,0.49991 l -0.132,4.4643 -0.79197,-0.25576 q -0.19784,-0.30227 -0.89097,-0.55804 -0.65994,-0.2674 -1.45191,-0.39528 -0.42899,-0.29064 -1.12195,-0.59291 -0.65994,-0.3139 -1.4519204,-0.65105 -0.79194,-0.34877 -1.6499,-0.73242 -0.85795,-0.38366 -1.58393,-0.81381 v -0.0116 q -0.65997,-0.41853 -1.48493,-0.83705 -0.82496,-0.41853 -2.342865,-0.7208 0,0.29064 0.03305,0.54641 0.0661,0.25577 0.09902,0.51153 0.0661,0.24415 0.09902,0.49991 0.06584,0.25577 0.06584,0.54642 0,0.17438 -0.0328,0.38365 -0.03305,0.19764 -0.09902,0.4069 -0.263965,0.86031 -0.395979,1.49973 -0.132002,0.62779 -0.132002,1.05795 z m 32.7673414,3.66212 q 1.81491,-0.13951 3.49782,-0.48828 1.71591,-0.34877 3.10185,-0.84868 1.41892,-0.49991 2.40887,-1.10445 1.02295,-0.60455 1.45194,-1.25559 -0.0331,-0.0581 -0.132,-0.49991 -0.099,-0.44178 -0.19784,-1.30209 -0.132,-1.05795 -1.08894,-1.7555 -0.92398,-0.70917 -2.4749,-1.13932 -1.55091,-0.43016 -3.62981,-0.60455 -2.07888,-0.18601 -4.48774,-0.18601 -1.68292,0 -3.29984,0.13951 -1.61694,0.12788 -3.13487,0.38365 -0.23104,0.17439 -0.89093,0.34878 -0.65997,0.16276 -1.38594,0.32552 -0.72595,0.15113 -1.35293,0.30227 -0.62696,0.13951 -0.75897,0.27902 -1.05594,0.8138 -1.6169,1.60436 -0.56099,0.79055 -0.56099,1.55786 0,1.87175 3.43184,3.18547 4.48776,1.13932 8.77756,1.13932 1.28692,0 2.34288,-0.0814 z m 6.40167,-5.65014 q -0.0331,0.19764 -0.29699,0.45341 -0.23105,0.25577 -0.49499,0.47666 0.65999,0.41853 0.65999,0.84868 0,0.46503 -0.79196,0.95332 -0.79196,0.47666 -2.27689,0.96494 -0.1649,0.0581 -0.52797,0.0581 -0.132,0 -0.23104,-0.0116 h -0.29696 q -0.98998,0 -1.05598,0.30227 -0.82496,0.12789 -1.81491,0.19764 -0.95696,0.0698 -2.11188,0.0698 -0.69296,0 -1.51793,-0.0233 -0.79196,-0.0232 -1.58393,-0.093 -0.79196,-0.0698 -1.48493,-0.19764 -0.69296,-0.12788 -1.12192,-0.33715 v 0.0116 q -0.1649,-0.10463 -0.39598,-0.32553 -0.23103,-0.23251 -0.52799,-0.4999 -0.29697,-0.2674 -0.65995,-0.52317 -0.32999,-0.25576 -0.69296,-0.41852 0.39598,-0.3139 0.39598,-0.74406 0,-0.10463 -0.0661,-0.31389 -0.0658,-0.22089 -0.0658,-0.47666 v -0.22089 q 0.56096,-0.49991 1.35293,-0.95332 0.79196,-0.4534 1.78189,-0.89518 0.32999,-0.0116 0.89098,-0.0581 0.59395,-0.0465 1.18794,-0.093 0.62697,-0.0581 1.15493,-0.10463 0.56098,-0.0465 0.82498,-0.0465 0.32995,0 0.82493,0.0465 1.02295,-0.16276 2.24392,-0.16276 0.92393,0 1.7159,0.0697 0.82494,0.0581 1.55091,0.19764 0.72598,0.13951 1.45194,0.38365 0.72594,0.23252 1.5179,0.58129 0.363,0.18602 0.52797,0.32553 0.19811,0.12788 0.19811,0.24414 0,0.0814 -0.0661,0.15113 -0.0661,0.0581 -0.132,0.11626 z" id="path25" style="stroke-width:0.918118"/><path d="m 13.427515,32.970636 q 0.65571,-0.12788 1.15711,-0.3604 0.50142,-0.23251 0.63641,-0.49991 -0.11574,-0.11625 -0.30856,-0.29064 -0.17357,-0.17439 -0.42427,-0.32552 -0.23143,-0.15114 -0.50141,-0.25577 -0.26999,-0.11626 -0.54,-0.11626 h -0.13503 q -0.53997,0.24414 -0.90639,0.4069 -0.34713,0.16277 -0.61712,0.30228 -0.27001,0.12788 -0.50141,0.24414 -0.21215,0.10463 -0.44358,0.23251 h 0.0192 q -0.0579,0.0232 -0.11574,0.0465 -0.0384,0.0233 -0.0964,0.0465 l -1.6199304,0.98819 q -0.40501,0.24414 -1.15713,0.60454 -0.75212,0.34878 -1.54281,0.74406 -0.79068,0.38365 -1.52351,0.77892 -0.71356,0.39528 -1.060689,0.73243 0.655689,0.62779 1.851359,1.25559 1.19568,0.61616 3.04706,1.34859 0.9064,0.34877 1.5235304,0.60454 0.6364,0.25577 0.98353,0.43015 0.28928,0.0349 0.6557,0.17439 0.36642,0.12789 0.7714,0.27902 0.40501,0.13951 0.79069,0.26739 0.38572,0.11626 0.69427,0.11626 0.19286,0 0.38572,-0.0232 0.21213,-0.0233 0.48212,-0.0697 0.0579,-0.99982 0.36642,-1.72062 -0.11561,-0.093 -0.15427,-0.16276 -0.0387,-0.0698 -0.0387,-0.12789 0,-0.11626 0.0772,-0.24414 0.0772,-0.13951 0.15428,-0.26739 0.0964,-0.13951 0.17357,-0.27902 0.0772,-0.13951 0.0772,-0.27902 0,-0.10463 -0.0772,-0.30227 -0.0772,-0.19764 -0.19285,-0.40691 -0.0964,-0.20926 -0.17357,-0.38365 -0.0772,-0.18601 -0.0772,-0.25576 0,-0.11626 0.11574,-0.2674 0.1156,-0.16276 0.38568,-0.34877 -0.67497,-0.19764 -1.25352,-0.19764 -0.32785,0 -0.67499,0.0349 l -0.28926,-0.0465 q -0.19286,-0.0697 -0.28928,-0.093 -0.0964,-0.0233 -0.13503,-0.0233 -0.0772,0 -0.0579,0.0465 0.0192,0.0349 -0.0579,0.0349 h -0.0192 q -0.21215,-0.0116 -0.32785,-0.0232 -0.0964,-0.0233 -0.15427,-0.0349 -0.0579,-0.0116 -0.1156,-0.0233 -0.0387,-0.0116 -0.0964,-0.0116 -0.13503,0 -0.32785,0.0698 -0.19284,0.0581 -0.19284,0.27901 0,0.11626 0.0192,0.17439 -0.0192,0.0581 -0.0387,0.13951 0,0.0698 0,0.12788 l 0.0192,0.13951 q 0,0.0233 -0.0192,0.0581 0,0.0232 0,0.0698 v 0.0581 q 0,0.20926 0.0964,0.27902 0.0964,0.0697 0.57855,0.0697 h 1.09925 q 0,0.32552 0.0772,0.60454 0.0772,0.2674 0.0772,0.60454 0,0.2674 -0.0579,0.45341 -0.0387,0.18601 -0.11574,0.32552 -0.0579,0.13951 -0.13503,0.25577 -0.0772,0.11626 -0.15427,0.24414 -4.2813104,-1.31371 -6.5955204,-2.8832 0.21213,-0.18601 0.32785,-0.31389 0.11574,-0.12789 0.26998,-0.24414 1.0414,-0.59292 2.58422,-1.26722 1.5428004,-0.68592 3.6641704,-1.47647 h -0.0192 q 0.0772,-0.0233 0.0964,-0.0233 0.0386,-0.0116 0.0772,-0.0233 z m 2.81566,7.67303 q 0.2507,0.093 0.48211,0.093 0.55928,0 0.94497,-0.30227 0.34714,-0.6278 0.90642,-1.59274 0.57854,-0.97656 1.33067,-2.22053 0.13503,-0.0581 0.34713,-0.0581 0.21215,0 0.59784,0.0698 0.38571,0.0581 0.82926,0.0581 0.0772,0 0.21213,0 0.13502,-0.0116 0.28927,-0.0116 0.15429,0 0.30857,0 0.15426,-0.0116 0.27,-0.0116 0.21214,0 0.3857,0.0232 0.19286,0.0233 0.36641,0.0581 0.34714,0.4534 0.82926,1.11608 0.48215,0.66267 1.09925,1.4881 -0.0192,0.0697 -0.0192,0.12788 0,0.0465 0,0.10463 0,0.15114 0.0772,0.33715 0.0772,0.17439 0.23143,0.3604 v -0.0116 l 0.15426,0.26739 q 0.32784,0.0349 0.61713,0.0465 0.30854,0.0116 0.57854,0.0116 0.21215,0 0.52071,-0.0116 0.32785,-0.0116 0.73283,-0.0581 v -0.25576 q 0,-0.2674 -0.26999,-0.65105 -0.25071,-0.39528 -0.55928,-0.75568 -0.28926,-0.3604 -0.55926,-0.62779 -0.25071,-0.26739 -0.25071,-0.30227 -0.0387,-0.093 -0.0964,-0.16276 -0.0579,-0.0814 -0.0964,-0.15114 -0.40499,-0.67429 -0.69427,-1.16258 -0.28927,-0.49991 -0.55928,-0.89518 -0.25069,-0.40691 -0.52068,-0.74405 -0.25072,-0.34878 -0.57857,-0.73243 -0.28926,-0.39528 -0.6364,-0.91844 -0.34713,-0.52316 -0.67498,-1.0812 v -0.0233 q 0,-0.0581 -0.11574,-0.16276 -0.1156,-0.11626 -0.26999,-0.23252 -0.15427,-0.11625 -0.32785,-0.19763 -0.17357,-0.0814 -0.28927,-0.0814 -0.11574,0 -0.23141,0.0116 -0.11575,0.0116 -0.23143,0.0698 h 0.0192 q -0.30855,0.11625 -0.48212,0.30227 -0.17355,0.18601 -0.26999,0.38365 -0.0772,0.19764 -0.11574,0.38365 -0.0192,0.17439 -0.0192,0.27902 0,0.0232 0.0387,0.0232 -0.17357,0.19764 -0.40498,0.52316 -0.23143,0.32552 -0.50142,0.68592 -0.25071,0.34878 -0.53999,0.68593 -0.27,0.32552 -0.53999,0.53478 -0.25069,0.55804 -0.6557,1.26721 -0.40498,0.69755 -1.02209,1.59274 -0.19286,0.27902 -0.38571,0.56966 -0.19286,0.27902 -0.34713,0.54642 -0.15426,0.25576 -0.25071,0.48828 -0.0964,0.22089 -0.0964,0.3604 0,0.33715 0.44358,0.54641 z m 6.03624,-5.94078 q 0.0964,0.22089 0.19285,0.4069 0.1156,0.18601 0.23143,0.33715 -0.17357,0.0116 -0.46284,0.0349 -0.27,0.0116 -0.55928,0.0349 -0.28929,0.0233 -0.55928,0.0465 -0.25069,0.0116 -0.38568,0.0116 h -0.0579 q 0.27,-0.44178 0.57854,-0.87193 0.32785,-0.44178 0.69427,-0.7208 0.0579,0.12788 0.13503,0.31389 0.0964,0.17439 0.19286,0.40691 z m 6.47979,1.40672 q 0,0.55804 0.0387,1.09282 0.0384,0.53479 0.11574,1.05795 l -0.0772,1.97639 q 0.25072,0.25577 0.5207,0.38365 0.26999,0.11626 0.53999,0.11626 0.25071,0 0.3857,-0.0698 0.15427,-0.0814 0.23143,-0.18601 0.0772,-0.10463 0.0964,-0.22089 0.0387,-0.12788 0.0387,-0.22089 0,-0.0581 -0.0192,-0.093 0,-0.0349 0,-0.0581 v -0.46503 q 0,-0.38365 -0.0192,-0.91844 0,-0.54641 -0.0192,-1.0812 -0.0192,-0.53478 -0.0387,-0.97656 0,-0.44178 0,-0.6278 0,-2.27865 0.5207,-3.81326 0.0387,-0.0465 0.0387,-0.0814 0.0192,-0.0349 0.0192,-0.093 0,-0.37203 -0.79068,-0.39528 -0.13503,0.0465 -0.32785,0.0465 -0.0772,0 -0.28928,-0.0116 -0.19285,-0.0116 -0.26998,-0.0116 -0.46286,0 -0.6557,0.13951 -0.19286,0.13951 -0.19286,0.46503 0,0.55804 0.3857,0.91844 -0.23141,1.74387 -0.23141,3.12734 z m 3.3942,0.89519 -0.0192,1.62761 q -0.17356,0.19764 -0.25069,0.44178 -0.0579,0.23251 -0.0579,0.49991 0,0.31389 0.17357,1.1277 0.28928,0.0232 0.5207,0.0349 0.2507,0.0116 0.48212,0.0116 0.71355,0 1.25354,-0.16276 v -0.48828 q 0,-0.10463 -0.0579,-0.17439 -0.0579,-0.0697 -0.13503,-0.13951 -0.0579,-0.0697 -0.11574,-0.15113 -0.0579,-0.0814 -0.0579,-0.18602 0,-0.12788 0.0384,-0.29064 0.0387,-0.17439 0.0772,-0.33715 0.0579,-0.17439 0.0964,-0.33715 0.0387,-0.16276 0.0579,-0.27902 -0.13503,-0.0697 -0.15428,-0.18601 0,-0.11626 0.0387,-0.24414 0.0387,-0.13951 0.0772,-0.26739 0.0579,-0.13951 0.0579,-0.23252 0,-0.26739 0.11561,-0.59292 0.13503,-0.32552 0.13503,-0.67429 v -0.20927 q 0,-0.0233 -0.0192,-0.0465 0,-0.0232 0,-0.0465 v -0.11626 q 0,-0.12789 -0.0579,-0.22089 -0.0385,-0.10463 -0.0772,-0.24414 0.40498,0.31389 0.94497,0.74405 0.53998,0.43015 1.04138,0.87193 0.52071,0.44178 0.94499,0.86031 0.42427,0.4069 0.59784,0.66267 0.67498,0.37203 1.07996,0.61617 0.42428,0.23252 0.6364,0.41853 0.23143,0.18601 0.28929,0.34877 0.0772,0.16276 0.0772,0.38365 0,0.37203 0.40501,0.53479 0.42426,0.16276 1.15709,0.16276 h 0.19285 q 0.23143,0 0.32785,-0.093 0.0964,-0.093 0.13503,-0.22089 0.0385,-0.13951 0.0192,-0.29065 0,-0.15113 0,-0.25577 0,-0.39527 -0.0387,-0.88356 -0.0387,-0.49991 -0.0964,-1.01144 -0.0579,-0.52316 -0.0964,-1.0347 -0.0384,-0.52316 -0.0384,-0.96494 0,-0.60454 0.0772,-1.09283 0.0772,-0.48828 0.2507,-0.87193 -0.21214,-0.34877 -0.21214,-0.86031 0,-0.0697 0.0192,-0.20926 0.0192,-0.13951 0.0384,-0.3139 0.0192,-0.18601 0.0385,-0.38365 0.0192,-0.20927 0.0192,-0.4069 v -0.19764 l -0.36642,-0.23252 q -0.40498,0.093 -0.80997,0.10463 -0.38569,0.0116 -0.69426,0.0581 -0.28927,0.0465 -0.48212,0.17439 -0.19286,0.11626 -0.19286,0.41853 0,0.32552 0.36642,0.49991 l -0.0772,4.4643 -0.46284,-0.25576 q -0.11574,-0.30227 -0.52072,-0.55804 -0.3857,-0.2674 -0.84853,-0.39528 -0.25072,-0.29064 -0.6557,-0.59291 -0.38571,-0.3139 -0.84855,-0.65105 -0.46285,-0.34877 -0.96426,-0.73243 -0.50141,-0.38365 -0.9257,-0.8138 v -0.0116 q -0.38569,-0.41853 -0.86782,-0.83705 -0.48212,-0.41853 -1.36925,-0.7208 0,0.29064 0.0192,0.54641 0.0387,0.25577 0.0579,0.51153 0.0387,0.24415 0.0579,0.49991 0.0387,0.25577 0.0387,0.54642 0,0.17438 -0.0192,0.38365 -0.0192,0.19764 -0.0579,0.4069 -0.15427,0.86031 -0.23142,1.49973 -0.0772,0.62779 -0.0772,1.05795 z" id="path26" style="stroke-width:0.701882"/></g><path style="fill:#000000" d="m 2.3569145,87.421393 c -0.74873,-0.11862 -0.94111,-0.27606 -1.00474,-0.82231 -0.0619,-0.53179 0.20098,-0.91143 1.23522,-1.78351 0.82887,-0.69891 1.37842,-1.40161 1.48865,-1.90349 0.1057,-0.48125 0.61299,-1.1547 1.28394,-1.70449 0.90893,-0.7448 1.2515,-1.30482 1.89734,-3.10169 0.43347,-1.20603 1.17509,-2.70332 1.64803,-3.32731 0.47295,-0.62399 0.8599,-1.1838 0.8599,-1.24401 0,-0.0602 -0.39921,-0.24124 -0.88714,-0.40227 -1.44587,-0.47718 -2.02061,-1.34394 -2.8397,-4.28255 -0.81816,-2.93527 -0.95051,-5.01623 -0.68712,-10.80399 0.17264,-3.79387 0.36018,-5.05697 0.9578,-6.45117 0.43352,-1.01136 0.99864,-1.71736 3.7511295,-4.6863 l 0.95642,-1.03164 -1.2798495,-0.82128 c -2.89081,-1.85503 -6.37996,-6.55978 -8.16555,-11.01037 -1.49749004,-3.73252 -1.67751004,-4.84582 -1.52854004,-9.45289 0.10735,-3.32021 0.24884,-4.39196 0.84034,-6.36523 C 2.3042445,13.485623 4.4318845,9.9334226 7.8297445,6.6290426 c 2.6240195,-2.55183 4.6798995,-4.02561 6.9280995,-4.96647 3.237,-1.35467004 5.1571,-1.65528004 10.61782,-1.66235003537 4.25035,-0.005000005 5.17348,0.0707999954 7.01146,0.57917999537 6.46539,1.78847004 10.7701,5.37196004 14.37847,11.96944044 2.05705,3.76108 2.94719,7.65448 2.95018,12.9039 10e-4,2.33429 0.0793,2.83525 0.53073,3.40912 0.72421,0.92068 0.66564,2.00801 -0.26234,4.87101 -0.84694,2.61296 -4.662,10.646 -5.73041,12.06605 -0.35487,0.47167 -1.45808,1.55718 -2.45157,2.41225 -1.46499,1.26088 -2.04589,1.5906 -3.07392,1.74476 -1.34271,0.20135 -4.42272,2.01657 -5.70622,3.36299 -0.48434,0.50808 -0.85637,0.6777 -1.25677,0.57299 -0.31509,-0.0824 -0.56877,-0.0249 -0.56877,0.12887 0,0.15269 -0.26789,0.36061 -0.59531,0.46206 -0.32743,0.10144 -1.51985,1.0885 -2.64984,2.19347 -2.14111,2.09371 -2.9234,2.65969 -3.69792,2.67545 -0.25343,0.005 -0.61062,0.25451 -0.79375,0.55412 -0.18314,0.29961 -1.01758,0.91151 -1.85433,1.35978 -0.83674,0.44827 -1.52135,0.88934 -1.52135,0.98015 0,0.0908 0.42517,0.79645 0.94482,1.56809 0.66431,0.98644 1.27311,1.54473 2.05052,1.88041 1.64334,0.70957 2.12536,1.38025 2.1579,3.00249 0.0265,1.31844 0.0981,1.45074 1.60658,2.96747 1.55641,1.5649 3.20514,4.1162 4.91084,7.59925 l 0.87092,1.77842 -1.07047,2.04439 c -0.83753,1.5995 -1.23772,2.0957 -1.83902,2.28019 -0.4227,0.12969 -1.16431,0.41349 -1.64801,0.63066 -1.1324,0.50842 -3.15367,0.078 -4.03392,-0.85895 -0.33155,-0.35292 -0.73089,-0.64284 -0.88743,-0.64426 -0.7304,-0.007 -3.28135,-1.45736 -4.65477,-2.64718 -1.62703,-1.40952 -1.79559,-1.50329 -1.77647,-0.98825 0.0491,1.32151 -0.42437,1.66315 -2.83954,2.04897 -2.07638,0.33171 -2.78359,0.0788 -2.79615,-0.99995 l -0.008,-0.71829 -0.65309,0.74235 c -0.35921,0.4083 -0.6530995,1.04121 -0.6530995,1.40646 0,0.36525 -0.12179,0.89167 -0.27065,1.16981 -0.21087,0.39402 -0.15244,0.62391 0.26458,1.04094 1.1141595,1.11415 0.4430895,1.89212 -1.62811,1.88745 -0.77469,-0.002 -2.18244,0.0272 -3.12832,0.0643 -0.94589,0.0371 -2.13651,10e-4 -2.64584,-0.0792 z m 0.98342,-0.88634 c -0.0779,-0.20304 0.0805,-0.35873 0.38857,-0.38194 0.42455,-0.032 0.46187,0.031 0.20312,0.34276 -0.21645,0.2608 -0.22495,0.38194 -0.0268,0.38194 0.15961,0 0.46744,-0.34276 0.68407,-0.76169 0.21664,-0.41893 0.60665,-0.83594 0.86669,-0.92669 0.43501,-0.15181 0.43367,-0.13463 -0.0167,0.21492 -0.26923,0.20895 -0.41732,0.49673 -0.32908,0.6395 0.0882,0.14278 0.0109,0.31299 -0.17194,0.37826 -0.18281,0.0653 -0.23335,0.22408 -0.11231,0.35291 0.12475,0.13279 0.36659,0.0339 0.55834,-0.22836 0.18604,-0.25443 0.48854,-0.4626 0.67222,-0.4626 0.26685,0 0.26777,0.0797 0.005,0.39687 -0.26652,0.32114 -0.25756,0.39688 0.047,0.39688 0.207,0 0.51682,-0.14047 0.68851,-0.31216 0.23981,-0.23981 0.45753,-0.23435 0.93947,0.0236 0.70422,0.37688 1.96842,0.2993 1.76462,-0.1083 -0.0728,-0.14552 -0.48947,-0.24196 -0.92604,-0.21432 -0.43656,0.0276 -0.63995,-0.0137 -0.45197,-0.0919 0.2793,-0.11616 0.2793,-0.21926 0,-0.56408 -0.28349,-0.34997 -0.27952,-0.38442 0.0233,-0.20202 0.25218,0.15192 0.32784,0.10627 0.24471,-0.14765 -0.0662,-0.20216 -0.52812,-0.52026 -1.02651,-0.70689 l -0.90617,-0.33933 0.85989,0.13428 c 0.80425,0.12559 0.8599,0.0844 0.8599,-0.63724 0,-0.42434 0.10186,-0.83448 0.22636,-0.91142 0.1245,-0.0769 0.17015,0.15415 0.10145,0.51355 -0.13726,0.71801 0.31328,0.90374 0.56992,0.23494 0.28243,-0.73599 0.17349,-1.16814 -0.30242,-1.19968 -0.40184,-0.0266 -0.39677,-0.0477 0.0384,-0.15909 0.40289,-0.10316 0.42889,-0.17433 0.1323,-0.36213 -0.28334,-0.17941 -0.24272,-0.23468 0.17477,-0.23779 0.29915,-0.002 0.9327995,-0.29096 1.4081095,-0.64163 0.78756,-0.58105 0.8177,-0.65235 0.33988,-0.804 -0.28838,-0.0915 -0.6839,-0.36448 -0.8789395,-0.60656 -0.32169,-0.39927 -0.29387,-0.39832 0.2995595,0.0102 0.71161,0.48993 1.73805,0.59614 1.97988,0.20486 0.0835,-0.13505 -0.0774,-0.31825 -0.35737,-0.40713 -0.28001,-0.0889 -0.65424,-0.33645 -0.83162,-0.55017 -0.27827,-0.3353 -0.21804,-0.33411 0.43913,0.009 0.94957,0.49522 1.31501,0.51098 0.924,0.0398 -0.24334,-0.29321 -0.16284,-0.33696 0.43063,-0.23403 0.70607,0.12246 0.71263,0.11306 0.20075,-0.28767 -0.51697,-0.40472 -0.51449,-0.41056 0.10752,-0.25346 0.48255,0.12188 0.58475,0.0768 0.42214,-0.18633 -0.14888,-0.24089 -0.112,-0.28376 0.1205,-0.14007 0.18427,0.11389 0.41206,0.10252 0.50619,-0.0253 0.0941,-0.12778 0.52731,-0.52836 0.96261,-0.89017 0.61007,-0.50707 0.56407,-0.41356 -0.20073,0.40803 -0.5457,0.58623 -0.99219,1.17396 -0.99219,1.30607 0,0.13211 0.14288,0.0973 0.3175,-0.0773 0.17463,-0.17463 0.59837,-0.3175 0.94166,-0.3175 0.34873,0 0.552,-0.11676 0.46063,-0.26459 -0.0908,-0.14688 0.10825,-0.26638 0.44741,-0.26863 0.4915,-0.003 0.53334,-0.0542 0.21405,-0.26053 -0.31487,-0.20349 -0.26021,-0.25816 0.26458,-0.26459 0.46424,-0.006 0.55618,-0.0748 0.30837,-0.23192 -0.26474,-0.16782 -0.19853,-0.26998 0.26458,-0.40825 0.59501,-0.17764 0.59826,-0.19288 0.0885,-0.41498 -0.48964,-0.21335 -0.47976,-0.23393 0.13229,-0.27554 l 0.66146,-0.045 -0.66146,-0.21184 c -0.61408,-0.19666 -0.59513,-0.21543 0.26459,-0.26207 l 0.92604,-0.0502 -0.8827,-0.2542 c -0.48548,-0.13981 -1.02687,-0.15883 -1.20309,-0.0423 -0.17622,0.11655 -0.0767,0.01 0.22124,-0.23747 0.2979,-0.24716 0.74007,-0.62419 0.98261,-0.83785 0.24253,-0.21366 0.51042,-0.31901 0.59531,-0.23413 0.0849,0.0849 0.15434,0.0112 0.15434,-0.16365 0,-0.23239 0.13775,-0.24426 0.51177,-0.0441 0.62558,0.3348 0.88992,0.35082 0.69929,0.0424 -0.0787,-0.12733 0.12264,-0.23455 0.44741,-0.23826 0.32477,-0.004 0.94767,-0.15688 1.38424,-0.34038 0.43656,-0.1835 0.88671,-0.31319 1.00033,-0.28819 0.11362,0.025 0.45562,-0.18657 0.76,-0.47015 l 0.55342,-0.51558 -0.62771,0.14202 c -0.53185,0.12033 -0.50033,0.0602 0.20643,-0.39362 0.69556,-0.44666 0.8242,-0.68436 0.77432,-1.4309 -0.0329,-0.49239 -0.1423,-1.02875 -0.24314,-1.1919 -0.10083,-0.16315 -0.0736,-0.36447 0.0606,-0.44738 0.14393,-0.089 0.11858,-0.42115 -0.0618,-0.81037 -0.22821,-0.49233 -1.01033,-0.95559 -3.08388,-1.82662 -3.67106,-1.54208 -4.68014,-1.67604 -7.37112,-0.97851 -2.20923,0.57266 -3.27674,0.70619 -2.20303,0.27557 0.77419,-0.3105 0.5707,-0.65372 -0.54066,-0.91195 -0.54163,-0.12584 -0.70189,-0.243 -0.42834,-0.31315 0.24038,-0.0617 0.89522,0.072 1.4552,0.29693 l 1.01816,0.40903 -0.79375,-0.68271 c -0.5431,-0.46712 -0.61125,-0.59173 -0.21583,-0.39462 0.71762,0.35773 0.95681,0.36622 0.74687,0.0265 -0.0927,-0.14998 0.0135,-0.19434 0.24896,-0.10398 0.22584,0.0867 0.41062,0.27092 0.41062,0.40946 0,0.13854 -0.14883,0.16624 -0.33073,0.0616 -0.1897,-0.10917 -0.23783,-0.0887 -0.11286,0.0479 0.11983,0.13103 1.46687,0.23941 2.99343,0.24085 2.39913,0.002 2.67458,-0.0406 2.03108,-0.31618 -0.89866,-0.38482 -0.40509,-0.45202 0.57715,-0.0786 0.38204,0.14525 0.62925,0.36984 0.54937,0.49908 -0.0799,0.12925 0.0914,0.29689 0.38069,0.37254 0.57438,0.1502 0.96601,-0.20259 0.52645,-0.47425 -0.15026,-0.0929 -0.20471,-0.27969 -0.12099,-0.41516 0.0837,-0.13546 0.0489,-0.2463 -0.0774,-0.2463 -0.1263,0 -0.46075,-0.18742 -0.74322,-0.4165 -0.28248,-0.22907 -0.335,-0.32528 -0.11672,-0.21379 0.34167,0.17451 0.34637,0.14043 0.0337,-0.24496 -0.19972,-0.24622 -0.25925,-0.45189 -0.13229,-0.45704 0.12696,-0.005 -0.0668,-0.18109 -0.43063,-0.39095 -0.65477,-0.37772 -0.65235,-0.37988 0.23958,-0.21391 0.68793,0.12801 0.85218,0.0886 0.69447,-0.16656 -0.1552,-0.25113 -0.0508,-0.2848 0.41981,-0.13543 0.54725,0.17369 0.58295,0.14648 0.28259,-0.21542 -0.29801,-0.35909 -0.26251,-0.39633 0.26666,-0.2798 0.50165,0.11047 0.53971,0.0803 0.21356,-0.16916 -0.31155,-0.23832 -0.19778,-0.2657 0.52917,-0.12737 0.7573,0.14411 0.86577,0.11329 0.59531,-0.16915 -0.53293,-0.55653 -0.38782,-0.76844 0.52917,-0.77276 0.65252,-0.003 0.76418,-0.0659 0.46302,-0.26053 -0.29314,-0.18944 -0.12025,-0.2586 0.66146,-0.26459 0.7817,-0.006 0.95459,-0.0751 0.66145,-0.26458 -0.31929,-0.20634 -0.27744,-0.25727 0.21406,-0.26053 0.33916,-0.002 0.53818,-0.12175 0.4474,-0.26864 -0.0908,-0.14688 0.10825,-0.26638 0.44741,-0.26863 0.4915,-0.003 0.53334,-0.0542 0.21405,-0.26053 -0.31672,-0.20469 -0.26329,-0.26263 0.26458,-0.28691 l 0.66146,-0.0304 -0.66146,-0.21184 c -0.51128,-0.16374 -0.54688,-0.21782 -0.15682,-0.23821 0.3342,-0.0175 0.11079,-0.23595 -0.66146,-0.64689 -1.1093,-0.5903 -1.17534,-0.59675 -1.356,-0.13229 -0.10445,0.26852 -0.31984,0.48822 -0.47864,0.48822 -0.1588,0 -0.21514,0.11907 -0.1252,0.26459 0.0903,0.14611 -0.10015,0.26458 -0.42536,0.26458 -0.32388,0 -0.52213,0.0667 -0.44055,0.14833 0.44062,0.44062 -1.97061,1.98327 -3.04914,1.95077 -0.93227,-0.0281 -2.93015,-1.6315 -3.13399,-2.51519 -0.74728,-3.23955 -0.75997,-3.41011 -0.36295,-4.87558 0.21684,-0.80036 0.39566,-1.90872 0.39739,-2.46301 0.002,-0.58731 0.11089,-0.94121 0.26138,-0.8482 0.3024,0.18689 0.20168,1.5496 -0.27045,3.65931 -0.26012,1.16233 -0.26687,1.73515 -0.0298,2.52645 0.16863,0.56282 0.30659,1.2663 0.30659,1.56328 0,0.55182 2.30732,2.70592 2.89839,2.70592 0.17127,0 0.57147,-0.14694 0.88932,-0.32654 0.55571,-0.31399 0.54233,-0.33312 -0.34812,-0.49775 -0.86362,-0.15967 -0.85096,-0.16668 0.18791,-0.10402 0.8133,0.0491 1.23499,-0.0665 1.56237,-0.42829 0.42626,-0.47102 0.41699,-0.49666 -0.18792,-0.51934 -0.53673,-0.0201 -0.50174,-0.0627 0.22358,-0.27215 1.04477,-0.30167 1.14811,-0.61573 0.13229,-0.40205 -0.48436,0.10188 -0.35168,-0.0176 0.39687,-0.35735 0.61847,-0.28071 1.12448,-0.58183 1.12448,-0.66915 0,-0.0873 -0.14883,-0.0834 -0.33073,0.009 -0.1819,0.0921 -0.0996,-0.0199 0.18286,-0.24896 0.28248,-0.22908 0.41673,-0.4165 0.29834,-0.4165 -0.1184,0 -0.0519,-0.20145 0.14786,-0.44766 0.3131,-0.38599 0.30845,-0.41618 -0.0337,-0.21911 -0.23617,0.13602 -0.18261,-0.0225 0.1323,-0.39156 0.3196,-0.37455 0.37199,-0.53172 0.13229,-0.39688 -0.24547,0.13808 -0.2016,7.2e-4 0.115,-0.36007 0.45482,-0.51829 0.50662,-0.9584 0.46467,-3.94808 -0.0708,-5.0456 -0.62898,-6.13021 -3.15936,-6.13899 -0.61846,-0.002 -1.11038,-0.0932 -1.09315,-0.20234 0.0638,-0.40384 -0.0345,-1.47351 -0.12562,-1.36701 -0.0519,0.0606 -0.16545,0.48474 -0.25243,0.94246 -0.13258,0.69771 -0.0639,0.8626 0.42502,1.02023 0.52646,0.16974 0.53541,0.20056 0.092,0.31708 -0.7459,0.19601 -0.93633,-0.19323 -0.77516,-1.58441 0.15313,-1.32184 0.60797,-1.56027 0.86879,-0.45542 0.11766,0.49842 0.4774,0.71301 1.83887,1.09693 1.74685,0.4926 2.1195,0.78549 2.12644,1.67134 0.003,0.44008 0.15121,0.37868 0.99624,-0.41399 1.23907,-1.16229 2.09246,-1.52895 4.02991,-1.73146 1.08524,-0.11343 1.74708,-0.0476 2.28739,0.22742 0.41817,0.21287 1.11749,0.55947 1.55406,0.77023 0.54387,0.26256 0.8201,0.60961 0.87747,1.10245 0.046,0.39559 0.23988,0.71926 0.43075,0.71926 0.19086,0 0.51774,0.25711 0.72639,0.57135 l 0.37936,0.57135 1.43885,-0.66122 c 3.49904,-1.60799 7.59518,-5.97643 9.93676,-10.59731 0.62667,-1.23669 0.63882,-1.341 0.22901,-1.96644 -0.23802,-0.36327 -0.3617,-0.84567 -0.27485,-1.072 0.1391,-0.36249 0.22049,-0.35488 0.68319,0.0639 0.60079,0.54372 0.47961,0.90418 -0.13304,0.39572 -0.67349,-0.55894 -0.45019,0.12296 0.25819,0.78845 0.39091,0.36724 0.65385,0.90014 0.64286,1.30289 -0.0162,0.59524 -0.0442,0.61597 -0.22108,0.16378 -0.16658,-0.42591 -0.28056,-0.28855 -0.64286,0.77474 -0.24221,0.71084 -0.45447,1.53912 -0.47168,1.84062 -0.022,0.3849 -0.0811,0.3209 -0.19844,-0.21489 -0.1614,-0.73687 -0.21651,-0.68692 -1.60593,1.45521 -0.90326,1.39261 -2.46547,3.21335 -4.19713,4.89169 -2.54057,2.46236 -2.73373,2.7194 -2.44665,3.25582 0.17143,0.32031 0.25383,0.72462 0.18312,0.89845 -0.0707,0.17383 -0.13796,0.1077 -0.14945,-0.14696 -0.0115,-0.25466 -0.19948,-0.46302 -0.41776,-0.46302 -0.21828,0 -0.39688,-0.11906 -0.39688,-0.26458 0,-0.14552 -0.12608,-0.26459 -0.28019,-0.26459 -0.15411,0 -0.21581,0.1042 -0.1371,0.23154 0.0787,0.12735 -0.42029,0.17003 -1.10887,0.0948 -1.24978,-0.13646 -1.25111,-0.13575 -0.76509,0.41096 0.30471,0.34276 0.42442,0.7444 0.31997,1.07352 -0.20301,0.63962 0.3191,1.04683 0.55477,0.43269 0.12578,-0.32779 0.21799,-0.35372 0.37196,-0.10459 0.11296,0.18277 0.0307,0.59681 -0.18349,0.92373 -0.53137,0.81098 -0.008,1.07622 0.61797,0.31327 0.57498,-0.70061 1.19074,-0.9076 0.96723,-0.32514 -0.12757,0.33244 -0.0344,0.35357 0.56089,0.12722 0.39262,-0.14927 0.82293,-0.204 0.95624,-0.12161 0.13331,0.0824 0.24238,0.0237 0.24238,-0.1304 0,-0.1541 0.18562,-0.28019 0.41249,-0.28019 0.22687,0 0.33891,-0.11907 0.24897,-0.26459 -0.0899,-0.14552 0.0449,-0.26458 0.29954,-0.26458 0.43525,0 0.43457,-0.0208 -0.0113,-0.34689 -0.41653,-0.30458 -0.35008,-0.33551 0.54474,-0.25353 1.01461,0.093 1.01621,0.0916 0.35769,-0.30863 l -0.66145,-0.40202 0.8278,0.15303 c 0.48082,0.0889 0.90326,0.0309 1.00781,-0.13822 0.10457,-0.16921 -0.0206,-0.29967 -0.29864,-0.31137 -0.27068,-0.0114 -0.0763,-0.17507 0.4474,-0.37674 l 0.92604,-0.35662 -1.05833,-0.0532 -1.05833,-0.0532 1.15618,-0.18733 c 0.76577,-0.12406 1.31976,-0.40325 1.64059,-0.82677 0.26641,-0.35171 0.38271,-0.67532 0.25843,-0.71914 -0.12428,-0.0438 0.0866,-0.39221 0.46857,-0.7742 0.41503,-0.41504 0.57111,-0.73567 0.38785,-0.79676 -0.19505,-0.065 -0.11265,-0.29625 0.22641,-0.63531 0.2932,-0.2932 0.47187,-0.69263 0.39705,-0.88761 -0.0748,-0.19499 0.005,-0.41096 0.17798,-0.47994 0.17271,-0.069 0.56984,-0.64438 0.88251,-1.27867 0.31266,-0.63429 0.86569,-1.74856 1.22895,-2.47616 0.36325,-0.72761 0.74298,-1.82894 0.84383,-2.4474 0.10085,-0.61846 0.2674,-1.12448 0.37012,-1.12448 0.10271,0 0.34386,-0.70821 0.53589,-1.57379 0.32487,-1.46436 0.31271,-1.62012 -0.17488,-2.23999 -0.65667,-0.83482 -0.96247,-0.59365 -0.4656,0.3672 0.20468,0.39582 0.29991,0.99595 0.2116,1.33362 -0.13452,0.5144 -0.21893,0.40301 -0.52062,-0.68707 -0.19803,-0.71556 -0.43274,-1.7475 -0.52157,-2.2932 -0.0888,-0.5457 -0.27436,-0.99219 -0.41228,-0.99219 -0.14625,0 -0.17006,0.3584 -0.0571,0.8599 0.10651,0.47294 0.20906,1.24469 0.2279,1.715 0.0188,0.47031 0.17929,1.00013 0.35655,1.1774 0.17726,0.17726 0.32229,0.62353 0.32229,0.99172 0,0.48703 -0.24693,0.16623 -0.90628,-1.1774 -1.00233,-2.04256 -1.20955,-2.03177 -0.45818,0.0239 0.26819,0.73373 0.56748,1.68455 0.66509,2.11293 0.15898,0.69771 0.14336,0.72373 -0.14998,0.2497 -0.1801,-0.29104 -0.3398,-0.5887 -0.35488,-0.66146 -0.36279,-1.75023 -0.48107,-2.14588 -0.67785,-2.2675 -0.36794,-0.2274 -0.27433,-1.43667 0.11121,-1.43667 0.19019,0 0.48067,0.32743 0.6455,0.72761 0.27423,0.66578 0.28544,0.63768 0.13188,-0.33073 -0.25716,-1.62172 -0.22645,-2.31946 0.10714,-2.4348 0.16735,-0.0579 0.43531,0.22817 0.59547,0.63563 0.22687,0.57719 0.26692,-0.0482 0.18128,-2.83104 -0.22975,-7.46582 -2.64744,-13.20858 -7.44835,-17.6921004 -4.70807,-4.39682 -10.26089,-6.37157004 -16.96164,-6.03207004 -7.16881,0.36321004 -11.15708,2.00017004 -15.7504795,6.46470004 -3.41883,3.3229104 -5.74275,7.3362204 -6.88383,11.8880704 -0.88366004,3.52497 -0.81519004,8.77838 0.16119,12.36815 0.87683,3.22378 2.35154,6.29638 4.19389,8.73813 2.0614,2.73206 5.5935995,5.43179 7.1066995,5.43179 0.44693,0 2.43269,-0.79045 3.11993,-1.24191 0.0571,-0.0375 -0.0434,-0.24569 -0.22345,-0.4626 -0.24696,-0.29756 -0.25591,-0.57516 -0.0365,-1.13087 l 0.29081,-0.7365 -0.0965,0.72593 c -0.0531,0.39925 0.0357,0.828 0.19722,0.95277 0.31806,0.24565 3.55588,0.81245 4.97489,0.87087 0.50919,0.021 0.65062,0.0808 0.33826,0.14303 -0.42339,0.0844 -0.6007,0.44316 -0.83918,1.69802 -0.21207,1.11591 -0.7522,2.33453 -1.80872,4.08078 -1.28694,2.1271 -1.5093,2.6855 -1.52662,3.83366 -0.0186,1.23397 -0.0478,1.29427 -0.35707,0.73713 -0.18524,-0.33372 -0.34102,-0.49763 -0.34618,-0.36424 -0.005,0.1334 -0.0661,0.18583 -0.13539,0.11652 -0.1729,-0.1729 0.75445,-2.56216 1.4559,-3.75102 l 0.57447,-0.97366 -0.62145,-0.0201 c -0.51022,-0.0165 -0.45612,-0.0798 0.30227,-0.35355 0.62773,-0.22658 0.79729,-0.383 0.52917,-0.48815 -0.30646,-0.12018 -0.28768,-0.15939 0.0841,-0.17561 0.26325,-0.0115 0.40505,-0.13995 0.31511,-0.28547 -0.0899,-0.14552 -0.007,-0.26459 0.18423,-0.26459 0.19126,0 0.47349,-0.40172 0.62717,-0.89272 0.22831,-0.72945 0.20386,-0.94586 -0.1337,-1.18319 -0.35927,-0.2526 -0.35277,-0.2705 0.0499,-0.1373 0.25467,0.0842 0.46302,0.0214 0.46302,-0.13973 0,-0.16109 -0.38695,-0.30856 -0.85989,-0.32772 l -0.8599,-0.0348 0.92604,-0.19492 c 0.80216,-0.16885 0.8316,-0.19959 0.22008,-0.22976 -0.96173,-0.0474 -1.57025,-0.30583 -1.39357,-0.59172 0.17618,-0.28506 -1.07912,-0.26767 -2.00151,0.0277 -0.3638,0.11651 -0.54239,0.22552 -0.39687,0.24226 0.14552,0.0167 0.086,0.14332 -0.13229,0.2813 -0.21828,0.13799 -0.39688,0.40406 -0.39688,0.59127 0,0.18986 -0.31385,0.3457 -0.70978,0.35242 -0.39038,0.007 -0.64623,-0.0908 -0.56855,-0.21648 0.0777,-0.12568 0.31397,-0.16223 0.52509,-0.0812 0.21112,0.081 0.31563,0.0369 0.23225,-0.098 -0.0834,-0.13491 0.0593,-0.36805 0.31699,-0.51809 0.25772,-0.15004 0.32679,-0.27642 0.15347,-0.28084 -0.17331,-0.004 -0.37844,0.0944 -0.45584,0.21965 -0.0774,0.12524 -0.83448,0.42236 -1.6824,0.66028 -0.84792,0.23791 -1.90304,0.70099 -2.34472,1.02907 -1.03956,0.77217 -3.6215095,3.58248 -4.0670295,4.42673 -0.47044,0.89147 -0.78878,2.38747 -0.50804,2.38747 0.12563,0 0.15239,0.19813 0.0595,0.44028 -0.1267,0.33017 -0.075,0.38364 0.20674,0.21379 0.31227,-0.18824 0.31049,-0.1462 -0.0105,0.24902 -0.25463,0.31348 -0.41366,1.25482 -0.46676,2.76276 -0.0443,1.258 -0.19791,2.63246 -0.34138,3.05436 -0.33137,0.97448 -0.32943,1.46825 0.004,0.95271 0.18899,-0.29244 0.25648,-0.11836 0.25648,0.66146 0,0.77981 -0.0675,0.95389 -0.25648,0.66145 -0.18803,-0.29096 -0.25756,-0.30397 -0.26053,-0.0488 -0.006,0.51452 0.50307,1.37167 0.81462,1.37167 0.14899,0 0.20419,-0.10793 0.12266,-0.23984 -0.0815,-0.13192 0.14222,-0.10277 0.49723,0.0648 0.51492,0.24301 0.56741,0.34828 0.25957,0.52056 -0.21224,0.11878 -0.6151,0.14321 -0.89523,0.0543 -0.4559,-0.1447 -0.49519,-0.0562 -0.3744,0.84376 0.25181,1.87612 0.37199,2.1853 1.22897,3.16173 0.69162,0.78802 0.74171,0.91423 0.26076,0.657 -0.4738,-0.2534 -0.59413,-0.24898 -0.5895,0.0216 0.0121,0.70707 1.04969,2.6033 1.50441,2.74931 0.26078,0.0837 0.77181,0.28467 1.13561,0.44651 1.1542395,0.51349 1.2073395,0.50387 0.4589195,-0.0831 -0.4024395,-0.31561 -0.8689495,-0.83046 -1.0366895,-1.1441 -0.23164,-0.43312 -0.0694,-0.36347 0.67477,0.28964 0.9694395,0.85085 1.3991595,1.08968 1.1053995,0.61436 -0.0835,-0.13504 0.0968,-0.32442 0.40058,-0.42084 0.53746,-0.17058 0.53934,-0.19056 0.07,-0.74209 -0.35015,-0.41146 -0.36464,-0.47615 -0.0529,-0.23606 0.4991,0.38435 1.37375,0.14591 1.1057,-0.30143 -0.0999,-0.16665 0.0199,-0.1396 0.26611,0.0601 0.29171,0.23663 0.44766,0.25967 0.44766,0.0662 0,-0.16334 0.0893,-0.28288 0.19844,-0.26565 0.10914,0.0172 0.25797,0.006 0.33073,-0.0247 0.0728,-0.0308 0.6347,-0.093 1.24876,-0.13812 0.62899,-0.0463 1.42642,-0.32593 1.82633,-0.6405 0.39042,-0.3071 0.77753,-0.4907 0.86024,-0.40799 0.0827,0.0827 -0.0248,0.26115 -0.23883,0.39653 -0.31639,0.20009 -0.2902,0.24841 0.13996,0.25824 0.94622,0.0216 -0.12373,0.43074 -2.05793,0.78686 -0.98633,0.18161 -2.16778,0.58398 -2.62543,0.89415 -0.93928,0.6366 -1.32934,1.3332 -0.58702,1.04834 0.34234,-0.13136 0.40551,-0.0854 0.24329,0.17708 -0.16144,0.26122 -0.0996,0.30866 0.23492,0.18028 0.67604,-0.25942 0.29554,0.20194 -0.96619,1.17152 l -1.12081,0.86128 0.9118,-0.97425 c 0.50149,-0.53584 0.78665,-0.97425 0.63369,-0.97425 -0.55056,0 -2.9674995,2.85974 -3.7840395,4.4773 -1.16695,2.31171 -1.4145,3.00268 -1.0018,2.79623 0.18147,-0.0908 -0.35468,0.48021 -1.19142,1.26887 -0.83675,0.78865 -1.51953,1.60026 -1.5173,1.80357 0.003,0.30286 0.0485,0.29933 0.25019,-0.0196 0.13538,-0.21406 0.30323,-0.33213 0.37299,-0.26237 0.14965,0.14965 -2.15274,2.63596 -2.44095,2.63596 -0.10842,0 -0.33664,0.13952 -0.50717,0.31005 -0.237,0.237 -0.17156,0.38672 0.27782,0.63551 0.77918,0.4314 0.79789,0.4324 0.64523,0.0346 z m 3.5145,-0.98016 c -0.33917,-0.21919 -0.32955,-0.25707 0.0661,-0.26053 0.25466,-0.002 0.46302,0.11501 0.46302,0.26053 0,0.32269 -0.0298,0.32269 -0.52917,0 z m -2.71639,-0.29741 c 0.17948,-0.18083 0.39297,-0.26212 0.47443,-0.18066 0.0815,0.0815 -0.0654,0.22941 -0.32631,0.32877 -0.37709,0.14358 -0.40748,0.11319 -0.14812,-0.14811 z m 3.19595,-1.73541 c 0.191,-0.0764 0.4192,-0.067 0.50712,0.0209 0.0879,0.0879 -0.0683,0.15046 -0.34727,0.13897 -0.30822,-0.0127 -0.37092,-0.0754 -0.15985,-0.15985 z m 1.13567,-2.48755 c -0.34854,-0.13942 -0.57492,-0.3123 -0.50305,-0.38417 0.0719,-0.0719 0.53564,0.0451 1.0306,0.25991 0.98005,0.42536 0.50494,0.53726 -0.52755,0.12426 z m 0.76602,-0.50671 c -0.21828,-0.14107 -0.27781,-0.25648 -0.13229,-0.25648 0.14552,0 0.44318,0.11541 0.66146,0.25648 0.21828,0.14106 0.2778095,0.25648 0.13229,0.25648 -0.14552,0 -0.44318,-0.11542 -0.66146,-0.25648 z m 9.6400595,-7.70081 c -0.0805,-0.13018 -0.007,-0.23669 0.16222,-0.23669 0.18351,0 0.23748,-0.18508 0.13321,-0.4568 -0.12738,-0.33196 0.009,-0.28321 0.50086,0.17841 0.37188,0.34937 0.67607,0.64422 0.67596,0.65524 -10e-4,0.16058 -1.36671,0.0306 -1.47225,-0.14016 z m 1.60661,-0.23366 c -0.0927,-0.14998 0.0135,-0.19434 0.24896,-0.10399 0.45837,0.1759 0.54224,0.36554 0.16165,0.36554 -0.13693,0 -0.32171,-0.1177 -0.41061,-0.26155 z m -2.78,-0.66449 c 0,-0.3638 0.0456,-0.66146 0.10145,-0.66146 0.0558,0 0.15834,0.29766 0.22789,0.66146 0.0695,0.3638 0.0239,0.66146 -0.10145,0.66146 -0.12534,0 -0.22789,-0.29766 -0.22789,-0.66146 z m -7.44208,-0.59531 c -0.3291095,-0.41965 -0.3197495,-0.42901 0.0999,-0.0999 0.25466,0.19972 0.46302,0.40808 0.46302,0.46302 0,0.21776 -0.21727,0.0776 -0.56291,-0.36312 z m 11.74659,-0.51409 c 0.25743,-0.0671 0.61462,-0.0627 0.79375,0.01 0.17913,0.0725 -0.0315,0.12736 -0.46805,0.12197 -0.43657,-0.005 -0.58313,-0.0647 -0.3257,-0.13178 z m -3.38935,-1.42175 c -0.0959,-0.1552 -0.11766,-0.33893 -0.0483,-0.40828 0.0694,-0.0694 0.1966,0.0576 0.28277,0.28218 0.17891,0.46623 0.0264,0.54824 -0.23447,0.1261 z m -7.89393,-0.65408 c -0.25532,-0.66535 -0.18,-0.83702 0.1319,-0.30066 0.15443,0.26558 0.22505,0.53861 0.15693,0.60673 -0.0681,0.0681 -0.1981,-0.0696 -0.28883,-0.30607 z m 2.74543,0.30721 c 0,-0.0549 0.20836,-0.2633 0.46303,-0.46302 0.41964,-0.32911 0.429,-0.31975 0.0999,0.0999 -0.34564,0.44073 -0.56292,0.58089 -0.56292,0.36313 z m -3.6010995,-0.54232 c -0.0797,-0.2077 -0.10055,-0.65419 -0.0463,-0.99219 0.0725,-0.45211 0.13394,-0.35229 0.2323795,0.37763 0.13853,1.02723 0.0652,1.26936 -0.1860395,0.61456 z m 4.6594395,0.14428 c 0,-0.14552 0.11906,-0.33817 0.26458,-0.42811 0.14552,-0.0899 0.26458,-0.0445 0.26458,0.10106 0,0.14552 -0.11906,0.33817 -0.26458,0.42811 -0.14552,0.0899 -0.26458,0.0445 -0.26458,-0.10106 z m 2.11666,-0.57601 c 0,-0.15411 -0.14882,-0.19456 -0.33072,-0.0899 -0.18191,0.10468 -0.23799,0.0884 -0.12464,-0.0361 0.35413,-0.38913 0.95834,-0.36255 0.80561,0.0354 -0.16829,0.43856 -0.35025,0.48562 -0.35025,0.0906 z m -7.6311395,-0.51356 c 0,-0.3638 0.0601,-0.51263 0.13346,-0.33073 0.0734,0.18191 0.0734,0.47956 0,0.66146 -0.0734,0.1819 -0.13346,0.0331 -0.13346,-0.33073 z m 12.2172595,-0.13229 c 0,-0.19053 0.15875,-0.2855 0.35277,-0.21105 0.19403,0.0745 0.35278,0.16943 0.35278,0.21105 0,0.0416 -0.15875,0.1366 -0.35278,0.21105 -0.19402,0.0745 -0.35277,-0.0205 -0.35277,-0.21105 z m -10.89434,-0.92604 c 0,-0.3638 0.0601,-0.51263 0.13345,-0.33073 0.0734,0.1819 0.0734,0.47956 0,0.66146 -0.0734,0.1819 -0.13345,0.0331 -0.13345,-0.33073 z m -0.5500495,-0.15434 c 0.0127,-0.30822 0.0754,-0.37092 0.15985,-0.15985 0.0764,0.19099 0.067,0.4192 -0.0209,0.50712 -0.0879,0.0879 -0.15045,-0.0684 -0.13896,-0.34727 z m 11.5153995,0.11079 c 0.0598,-0.0967 -0.0409,-0.24444 -0.22371,-0.32828 -0.1828,-0.0839 -0.0347,-0.0806 0.32908,0.007 0.92649,0.22353 1.15149,0.49698 0.40892,0.49698 -0.34263,0 -0.57406,-0.0791 -0.51429,-0.17584 z M 8.0473345,63.862093 c -0.0927,-0.14998 0.0135,-0.19434 0.24897,-0.10399 0.45837,0.1759 0.54223,0.36554 0.16165,0.36554 -0.13694,0 -0.32171,-0.1177 -0.41062,-0.26155 z m -1.13958,-0.58512 c -0.17463,-0.17462 -0.29966,-0.68064 -0.27786,-1.12448 l 0.0396,-0.80697 0.11606,0.79375 c 0.0638,0.43656 0.23917,0.94257 0.38963,1.12447 0.34911,0.42205 0.15114,0.43184 -0.26747,0.0132 z m 10.0289495,-0.5843 c -0.81936,-0.35356 -1.27023,-0.67355 -1.05833,-0.75112 0.20304,-0.0743 -0.2983,-0.13404 -1.1141,-0.13269 -0.8158,10e-4 -1.68828,-0.11228 -1.93884,-0.2525 -0.33351,-0.18664 -0.0425,-0.25561 1.0864,-0.25745 0.84808,-10e-4 1.83962,-0.0956 2.20342,-0.20926 0.3638,-0.11371 0.56519,-0.10561 0.44752,0.018 -0.11766,0.12361 0.18,0.36747 0.66146,0.5419 0.61496,0.2228 0.71796,0.32597 0.34623,0.3468 -0.46579,0.0261 -0.4341,0.10757 0.26458,0.68027 0.96748,0.79303 0.90493,0.79415 -0.89834,0.016 z m -9.7259795,-0.0357 c -0.0862,-0.22456 -0.0976,-0.4674 -0.0253,-0.53966 0.0722,-0.0723 0.19488,0.11147 0.2725,0.40829 0.16487,0.63048 -0.0183,0.72784 -0.2472,0.13137 z m 3.7279495,-1.00672 c -0.30051,-0.16763 -0.57623,-0.42385 -0.61271,-0.56937 -0.0365,-0.14552 -0.3263995,-0.40919 -0.6442495,-0.58594 -0.31786,-0.17674 -0.42734,-0.32557 -0.24331,-0.33072 0.18404,-0.005 0.7793595,0.40412 1.3229195,0.9095 1.03971,0.96668 1.07347,1.07642 0.17735,0.57653 z m 2.58319,-1.41626 c -0.46541,-0.22541 -0.8462,-0.52077 -0.8462,-0.65637 0,-0.13559 0.26462,-0.0612 0.58804,0.16534 0.32493,0.22759 1.18322,0.42368 1.91823,0.43825 2.16527,0.0429 2.94243,0.41551 0.91962,0.44087 -1.06622,0.0134 -2.05922,-0.13602 -2.57969,-0.38809 z m 2.92412,-0.61656 c -0.32742,-0.13161 -0.59532,-0.30492 -0.59532,-0.38515 0,-0.2038 1.40065,0.14711 1.70657,0.42755 0.32538,0.29829 -0.32543,0.27346 -1.11125,-0.0424 z m 2.78121,-2.29555 c 0.32912,-0.0633 0.80537,-0.0609 1.05833,0.005 0.25297,0.0662 -0.0163,0.118 -0.5984,0.11506 -0.58208,-0.003 -0.78905,-0.0571 -0.45993,-0.1204 z M 7.1194145,56.805473 c 0,-0.1444 0.32743,-0.5512 0.72761,-0.90399 l 0.7276,-0.64143 -0.66146,0.79375 c -0.3638,0.43656 -0.69122,0.84336 -0.7276,0.90399 -0.0364,0.0606 -0.0662,-0.008 -0.0662,-0.15232 z m -0.52916,-0.26458 c 0,-0.14441 0.32742,-0.5512 0.7276,-0.90399 l 0.72761,-0.64143 -0.66146,0.79375 c -0.3638,0.43656 -0.69123,0.84335 -0.72761,0.90399 -0.0364,0.0606 -0.0661,-0.008 -0.0661,-0.15232 z m 0,-0.98386 c 0,-0.0549 0.20836,-0.2633 0.46302,-0.46302 0.41964,-0.32911 0.429,-0.31975 0.0999,0.0999 -0.34564,0.44073 -0.56291,0.58089 -0.56291,0.36313 z m 3.5591595,-1.24761 c -0.2327495,-0.45009 -0.3548695,-0.88665 -0.2713795,-0.97014 0.0835,-0.0835 0.1517995,-0.006 0.1517995,0.17249 0,0.17837 0.13746,0.23935 0.30547,0.13551 0.18726,-0.11574 0.23372,-0.0727 0.12005,0.11121 -0.10197,0.165 -0.0567,0.54058 0.10072,0.83463 0.15737,0.29405 0.22547,0.53464 0.15132,0.53464 -0.0741,0 -0.32523,-0.36826 -0.55798,-0.81834 z m 10.19917,0.28917 c 0.21828,-0.14106 0.51594,-0.25648 0.66146,-0.25648 0.14552,0 0.086,0.11542 -0.13229,0.25648 -0.21828,0.14106 -0.51594,0.25648 -0.66146,0.25648 -0.14552,0 -0.086,-0.11542 0.13229,-0.25648 z m -6.47718,-0.51307 c -0.0965,-0.30412 -0.27776,-0.48974 -0.40275,-0.4125 -0.12499,0.0772 -0.30204,0.0195 -0.39344,-0.12845 -0.0914,-0.14789 -0.0274,-0.2689 0.14231,-0.2689 0.16968,0 0.23998,-0.17859 0.15621,-0.39687 -0.0838,-0.21828 -0.0981,-0.39688 -0.0319,-0.39688 0.18059,0 0.94568,1.91588 0.81662,2.04494 -0.0614,0.0614 -0.19058,-0.13722 -0.2871,-0.44134 z m 6.93579,-0.84268 c 0.17948,-0.18082 0.39297,-0.26211 0.47443,-0.18065 0.0815,0.0815 -0.0654,0.2294 -0.32631,0.32876 -0.37709,0.14359 -0.40748,0.1132 -0.14812,-0.14811 z m 2.05454,-0.93511 c 0.0507,-0.268 0.11619,-0.51703 0.14551,-0.55341 0.0293,-0.0364 0.0682,-0.17529 0.0864,-0.30868 0.0182,-0.1334 0.11344,-0.3229 0.21166,-0.42112 0.15141,-0.15141 0.095,0.67086 -0.0591,0.86209 -0.0293,0.0364 -0.0682,0.17529 -0.0864,0.30868 -0.0182,0.1334 -0.11344,0.3229 -0.21166,0.42112 -0.0982,0.0982 -0.13709,-0.0407 -0.0864,-0.30868 z m -8.55679,-2.47164 c 0,-0.3638 0.0601,-0.51263 0.13345,-0.33073 0.0734,0.1819 0.0734,0.47956 0,0.66146 -0.0734,0.1819 -0.13345,0.0331 -0.13345,-0.33073 z m -4.6897995,-0.8599 c 1.1215695,-1.39891 1.4647495,-1.6391 0.7560895,-0.52916 -0.4352395,0.68168 -0.4356195,0.70469 -0.006,0.36448 0.52415,-0.41517 0.62731,-0.0451 0.12772,0.45817 -0.2653,0.26727 -0.23055,0.29501 0.1757,0.14025 0.36632,-0.13956 0.45041,-0.10231 0.30396,0.13465 -0.11135,0.18017 -0.3545,0.26924 -0.54033,0.19793 -0.18582,-0.0713 -0.4714395,-0.0199 -0.6346895,0.11426 -0.20925,0.17194 -0.21876,0.15023 -0.0322,-0.0736 0.5549595,-0.66595 0.23265,-0.80427 -0.44656,-0.19164 -0.48596,0.43832 -0.39209,0.24348 0.29645,-0.61534 z m 5.4626595,0.44098 c 0.0127,-0.30823 0.0754,-0.37092 0.15986,-0.15986 0.0764,0.191 0.067,0.4192 -0.0209,0.50712 -0.0879,0.0879 -0.15046,-0.0683 -0.13897,-0.34726 z m 1.56661,-0.11025 c 0,-0.16269 -0.11769,-0.22307 -0.26155,-0.13416 -0.15639,0.0967 -0.19005,-0.0247 -0.0837,-0.30174 0.11028,-0.28739 0.2182,-0.34223 0.28415,-0.14438 0.0585,0.17545 0.21522,0.2517 0.34832,0.16944 0.13309,-0.0822 0.24198,-0.0305 0.24198,0.11503 0,0.14552 -0.11906,0.33817 -0.26458,0.42811 -0.14552,0.0899 -0.26459,0.0304 -0.26459,-0.1323 z m 20.37292,-1.3073 c 0,-0.13693 0.1177,-0.32171 0.26155,-0.41062 0.14999,-0.0927 0.19434,0.0135 0.10399,0.24897 -0.17589,0.45837 -0.36554,0.54224 -0.36554,0.16165 z m -20.19653,-4.42534 c -0.24358,-0.24358 -0.22332,-2.9985 0.0221,-2.99908 0.10914,-2.5e-4 0.19844,0.61871 0.19844,1.37547 0,1.24176 0.0645,1.39404 0.66146,1.56159 l 0.66146,0.18567 -0.68351,0.0264 c -0.37593,0.0145 -0.76288,-0.053 -0.8599,-0.15002 z m 1.02829,-0.6835 c -0.22967,-0.74732 -0.37156,-3.10886 -0.18679,-3.10886 0.45227,0 0.83193,0.68589 0.79817,1.44198 -0.0321,0.71865 -0.049,0.73458 -0.1547,0.14552 -0.0653,-0.3638 -0.20073,-0.74765 -0.30103,-0.853 -0.28924,-0.30379 -0.008,2.00675 0.28933,2.37436 0.18413,0.22789 0.17229,0.33073 -0.0381,0.33073 -0.16791,0 -0.35102,-0.14883 -0.40692,-0.33073 z m 9.87313,42.30899 c 0.16208,-0.19529 0.24094,-0.40883 0.17524,-0.47452 -0.0657,-0.0657 0.42656,-0.28067 1.09391,-0.47771 1.19286,-0.35221 1.20273,-0.3642 0.58476,-0.71018 -0.60175,-0.33689 -0.58905,-0.34622 0.29745,-0.21849 0.77678,0.11192 0.83009,0.091 0.33073,-0.12969 -0.79841,-0.35289 -0.75714,-0.59546 0.0661,-0.38882 0.87049,0.21848 0.8406,-0.0351 -0.0661,-0.5612 -0.67427,-0.39122 -0.57584,-0.38631 0.66146,0.033 0.30066,0.10189 0.23108,-0.0388 -0.19844,-0.40126 l -0.66146,-0.55817 0.74273,0.26816 c 0.4085,0.14749 0.67565,0.15963 0.59366,0.027 -0.082,-0.13265 -0.0215,-0.28371 0.13445,-0.33569 0.31803,-0.10601 -1.88273,-4.53201 -3.21971,-6.47525 -0.87544,-1.27241 -3.07751,-3.52961 -3.4434,-3.52961 -0.11155,0 -0.35814,0.31221 -0.54798,0.6938 -0.36156,0.72677 -2.14122,1.8673 -2.91027,1.86512 -0.68083,-0.002 -2.12168,1.08439 -2.93025,2.20924 -1.09864,1.52841 -0.86546,1.56893 0.53442,0.0929 0.69122,-0.72884 1.01057,-1.01941 0.70965,-0.64571 -0.93271,1.15832 -1.48806,2.1727 -1.28988,2.35606 0.10431,0.0965 0.24547,0.0187 0.31369,-0.17301 0.0682,-0.19167 0.41372,-0.66792 0.76777,-1.05833 l 0.64373,-0.70984 -0.53842,0.92604 c -0.70662,1.21534 -0.70437,1.83437 0.004,1.0215 0.51185,-0.5876 0.52754,-0.59037 0.26458,-0.0467 -0.42395,0.87655 -0.33845,1.01164 0.28815,0.45528 0.56242,-0.49938 0.56495,-0.49886 0.27389,0.0565 -0.45,0.8586 -0.0706,0.94524 0.65767,0.15019 l 0.65106,-0.71072 -0.44953,0.73586 c -0.50401,0.82505 -0.34142,1.23808 0.28328,0.71963 0.34914,-0.28976 0.38536,-0.26613 0.24635,0.16073 -0.12409,0.38103 -0.0298,0.34261 0.3952,-0.16101 l 0.55817,-0.66146 -0.26241,0.72761 c -0.21046,0.58353 -0.18513,0.7276 0.12791,0.7276 0.21468,0 0.39032,0.12609 0.39032,0.2802 0,0.15411 0.11907,0.20661 0.26459,0.11668 0.14552,-0.0899 0.2664,0.0519 0.26863,0.31511 0.003,0.40582 0.0431,0.41826 0.26053,0.0818 0.19397,-0.30013 0.25747,-0.1823 0.26054,0.48337 l 0.004,0.88025 -0.8141,-0.8141 c -0.44776,-0.44776 -0.92401,-0.8141 -1.05834,-0.8141 -0.37848,0 -0.61794,-0.0839 -0.90569,-0.31741 -0.14552,-0.11808 -1.17581,-0.67086 -2.28954,-1.2284 -1.8071,-0.90465 -2.09176,-0.97668 -2.64584,-0.66954 -0.34147,0.18929 -1.15665,0.53087 -1.81149,0.75908 -1.54822,0.53954 -2.59798,1.48258 -2.69811,2.42383 -0.0722,0.67868 0.006,0.7605 0.80284,0.83685 0.73412,0.0704 0.86723,0.004 0.79012,-0.39687 -0.051,-0.26483 -0.21016,-0.42197 -0.35368,-0.34921 -0.14353,0.0728 -0.23263,0.2173 -0.19799,0.32121 0.0346,0.1039 -0.1309,0.11452 -0.36785,0.0236 -0.39176,-0.15033 -0.38907,-0.19585 0.0297,-0.50204 0.25327,-0.1852 0.38887,-0.4526 0.30134,-0.59423 -0.0927,-0.14997 0.0682,-0.19805 0.38534,-0.11512 0.30071,0.0786 0.48655,0.29338 0.41508,0.47963 -0.17092,0.44541 0.77742,1.31758 1.01488,0.93336 0.0958,-0.155 0.0679,-0.28182 -0.0619,-0.28182 -0.12986,0 -0.2361,-0.1807 -0.2361,-0.40157 0,-0.30806 0.14376,-0.26651 0.61736,0.17842 0.61825,0.58081 0.89781,0.34485 0.29986,-0.2531 -0.42364,-0.42364 0.11274,-0.41101 0.56156,0.0132 0.28874,0.27294 0.29636,0.22671 0.0436,-0.26458 -0.2026,-0.39381 -0.54941,-0.59668 -1.02457,-0.59936 -0.39506,-0.002 -0.89689,-0.12491 -1.11517,-0.27263 -0.29072,-0.19673 -0.1917,-0.22071 0.37019,-0.0896 0.5442,0.12694 0.71263,0.0908 0.5797,-0.12425 -0.11996,-0.1941 0.0324,-0.30463 0.42356,-0.30722 0.43576,-0.003 0.50968,-0.0682 0.25783,-0.22788 -0.27041,-0.17141 -0.22916,-0.25624 0.17612,-0.36222 0.29108,-0.0761 0.65833,-0.009 0.81612,0.1485 0.20614,0.20614 0.28689,0.16468 0.28689,-0.14728 0,-0.2388 0.1177,-0.50692 0.26156,-0.59583 0.14606,-0.0903 0.19651,0.008 0.11425,0.22221 -0.19977,0.5206 0.41373,0.86134 0.72944,0.40513 0.17578,-0.254 0.19834,-0.17396 0.0744,0.26382 -0.12105,0.42746 -0.0843,0.57055 0.11496,0.44741 0.17136,-0.10591 0.30064,0.0176 0.31152,0.29759 0.0166,0.42724 0.043,0.42182 0.24599,-0.0505 0.22307,-0.51912 0.22774,-0.51863 0.24599,0.0257 0.0173,0.51638 1.07692,2.04319 1.07692,1.55176 0,-0.12284 0.17481,0.008 0.38847,0.29024 0.21365,0.28248 0.39224,0.41966 0.39687,0.30485 0.005,-0.11481 0.26899,0.034 0.58747,0.33073 0.70772,0.65933 0.90531,0.6714 1.25184,0.0764 0.25215,-0.43293 0.2702,-0.43082 0.27773,0.0324 0.007,0.41817 0.0722,0.44213 0.41985,0.15365 0.22649,-0.18797 0.39098,-0.23232 0.36554,-0.0985 -0.10438,0.5488 0.0328,0.9258 0.28098,0.7724 0.14553,-0.0899 0.26641,-0.008 0.26864,0.18282 0.003,0.25167 0.0742,0.23785 0.26053,-0.0505 0.20978,-0.32461 0.25722,-0.29438 0.26053,0.16604 0.005,0.65141 0.3507,0.97508 1.45926,1.36504 1.08773,0.38264 1.34356,0.37746 1.6851,-0.0341 z m 0.56386,-1.49701 c -0.48365,-0.31256 -0.0659,-0.31256 0.66146,0 0.34892,0.14993 0.39398,0.23234 0.13229,0.24193 -0.21828,0.008 -0.57547,-0.10087 -0.79375,-0.24193 z m -1.5905,-1.71979 c 0.36109,-0.43657 0.7318,-0.89105 0.8238,-1.00998 0.092,-0.11892 0.2489,-0.003 0.34868,0.25652 0.0998,0.26001 0.0941,0.38541 -0.0127,0.27867 -0.10674,-0.10675 -0.55909,0.13501 -1.00521,0.53723 l -0.81113,0.73131 z m -0.60727,-0.4127 c 0.26289,-0.44526 0.76224,-1.07034 1.10967,-1.38906 0.41711,-0.38264 0.29633,-0.10764 -0.35555,0.80957 -1.0863,1.52845 -1.50382,1.84928 -0.75412,0.57949 z m -0.34091,-3.64985 c 0.55995,-0.63064 0.6866,-0.68827 0.6866,-0.31239 0,0.1404 -0.26789,0.39585 -0.59531,0.56767 -0.59213,0.31071 -0.59261,0.30935 -0.0913,-0.25528 z m -1.16549,0.13499 c 0,-0.041 0.37358,-0.42418 0.83017,-0.85159 0.82663,-0.77379 0.82825,-0.7741 0.381,-0.0717 -0.36528,0.57366 -1.21117,1.2185 -1.21117,0.92331 z m -1.05833,-0.24654 c 0,-0.0566 0.48531,-0.49297 1.07847,-0.96964 0.70619,-0.56752 0.96486,-0.68477 0.74935,-0.33969 -0.29308,0.4693 -1.82782,1.56869 -1.82782,1.30933 z m 0.0509,-1.34246 c 0.24629,-0.1872 0.70185,-0.6299 1.01234,-0.98378 0.3105,-0.35388 0.47823,-0.46482 0.37274,-0.24654 -0.30892,0.63917 -1.23944,1.58822 -1.54827,1.57909 -0.15654,-0.005 -0.0831,-0.16158 0.16319,-0.34877 z m 0.0299,-1.34927 c 0.5538,-0.51666 1.06538,-0.93938 1.13683,-0.93938 0.33861,0 -0.89937,1.32188 -1.48228,1.58275 -0.5251,0.235 -0.45388,0.10236 0.34545,-0.64337 z m -1.30219,0.0324 c 0.27415,-0.17069 0.86946,-0.60135 1.32291,-0.95703 l 0.82445,-0.64669 -0.7542,0.82123 c -0.41482,0.45167 -1.01013,0.88233 -1.32292,0.95702 -0.53259,0.12717 -0.53705,0.11609 -0.0702,-0.17453 z m -0.63076,-0.57355 c 0,-0.0448 0.38695,-0.32427 0.85989,-0.62113 0.47295,-0.29686 1.21709,-0.79562 1.65365,-1.10836 0.47672,-0.34151 0.34505,-0.14881 -0.32967,0.48247 -0.92371,0.86424 -2.18387,1.5838 -2.18387,1.24702 z m -2.91042,-0.13366 c 0,-0.33454 -0.54067,-0.33454 -1.05833,0 -0.30927,0.19986 -0.23626,0.25737 0.33073,0.26053 0.40018,0.002 0.7276,-0.11501 0.7276,-0.26053 z m 7.79807,-18.50928 c 0.086,-0.13916 0.33116,-0.18596 0.54478,-0.10398 0.21362,0.082 0.3884,0.0172 0.3884,-0.14385 0,-0.16109 -0.12609,-0.29289 -0.2802,-0.29289 -0.15411,0 -0.19875,-0.13177 -0.0992,-0.29283 0.12622,-0.20422 0.25104,-0.18421 0.41249,0.0661 0.19258,0.29861 0.27346,0.29373 0.48096,-0.029 0.15824,-0.24613 0.15271,-0.50457 -0.0151,-0.70679 -0.19514,-0.23513 -0.12844,-0.28319 0.25421,-0.18312 0.54627,0.14285 1.02999,-0.70507 0.70355,-1.23326 -0.0907,-0.14683 0.008,-0.26695 0.2192,-0.26695 0.2113,0 0.46036,0.1985 0.55346,0.44111 0.12901,0.33621 0.24272,0.36768 0.4781,0.1323 0.16985,-0.16986 0.50988,-0.30883 0.75563,-0.30883 0.30095,0 0.50338,-0.30158 0.62013,-0.92391 0.12903,-0.68779 0.33941,-0.96559 0.82319,-1.08702 0.40358,-0.10129 0.64987,-0.35278 0.64987,-0.66359 0,-0.27526 0.1318,-0.50048 0.29289,-0.50048 0.16399,0 0.22192,-0.20379 0.13164,-0.46302 -0.13132,-0.37711 -0.0813,-0.36483 0.26935,0.0661 0.42874,0.52689 0.43003,0.5268 0.30153,-0.022 -0.0824,-0.35205 10e-4,-0.55122 0.23152,-0.55122 0.50826,0 0.44799,0.35355 -0.1647,0.96624 -0.44065,0.44065 -0.47704,0.63112 -0.22589,1.18233 0.38146,0.83723 0.80209,0.60194 0.59844,-0.33475 -0.10936,-0.50301 -0.0794,-0.60435 0.10224,-0.34596 0.18308,0.26043 0.25967,0.0323 0.26653,-0.79375 0.005,-0.63755 0.0862,-1.40562 0.17977,-1.70683 0.10812,-0.34803 0.0164,-0.6752 -0.25153,-0.8976 -0.56118,-0.46574 -0.79152,-0.19182 -0.38545,0.4584 0.42363,0.67833 0.1432,1.43106 -0.44854,1.20398 -0.28049,-0.10763 -0.58165,0.0164 -0.81415,0.33519 -0.20295,0.27831 -0.7441,0.63328 -1.20254,0.78883 -0.45845,0.15554 -0.88985,0.4532 -0.95868,0.66145 -0.10496,0.31757 -0.048,0.31497 0.35292,-0.0162 0.44336,-0.36614 0.4644,-0.34693 0.28987,0.26458 -0.45417,1.59128 -0.76637,2.13879 -1.13821,1.9961 -0.20939,-0.0804 -0.51979,-0.15576 -0.68979,-0.16758 -0.17,-0.0118 0.0401,-0.17549 0.46681,-0.36371 0.73554,-0.32443 0.74635,-0.35161 0.20781,-0.52253 -0.3851,-0.12223 -0.82231,0.008 -1.35735,0.40322 -0.72713,0.5376 -0.83781,0.55173 -1.40584,0.17954 -0.33912,-0.2222 -0.63631,-0.666 -0.66043,-0.98623 -0.0419,-0.55558 -0.0147,-0.56312 0.5934,-0.16468 0.3505,0.22965 0.90934,0.41573 1.24189,0.4135 0.48941,-0.003 0.52899,-0.0536 0.20774,-0.26422 -0.28221,-0.18499 -0.14844,-0.21249 0.46302,-0.0952 0.54653,0.10486 0.8599,0.0596 0.8599,-0.12436 0,-0.15914 -0.20836,-0.22988 -0.46302,-0.15718 -0.25466,0.0727 -0.20208,-0.006 0.11685,-0.17414 0.65133,-0.34406 1.04531,-1.10861 0.64076,-1.24346 -0.14568,-0.0486 -0.20834,-0.28895 -0.13925,-0.53421 0.0691,-0.24526 -0.0122,-0.18498 -0.1807,0.13395 -0.39076,0.73974 -0.93496,0.9464 -1.58131,0.60049 -0.49018,-0.26234 -0.55741,-0.38398 -0.61583,-1.11422 -0.036,-0.45008 -0.71877,-0.97352 -1.28323,-0.98378 -0.30628,-0.006 -0.46302,-0.2174 -0.46302,-0.62577 0,-0.38003 -0.15695,-0.61736 -0.40826,-0.61736 -0.23152,0 -0.34966,0.15272 -0.27289,0.35278 0.0745,0.19402 0.02,0.35277 -0.12091,0.35277 -0.14095,0 -0.25628,-0.23812 -0.25628,-0.52916 0,-0.38806 0.17639,-0.52917 0.66146,-0.52917 0.52917,0 0.66146,0.13229 0.66146,0.66146 0,0.3638 0.11906,0.66146 0.26458,0.66146 0.14553,0 0.26459,-0.29063 0.26459,-0.64585 0,-0.35521 0.1239,-0.72242 0.27534,-0.81601 0.15144,-0.0936 0.20829,-0.38147 0.12632,-0.63972 -0.0881,-0.27751 0.0428,-0.62009 0.31997,-0.83763 0.42374,-0.33257 0.43489,-0.32453 0.11549,0.0833 -0.19443,0.24828 -0.27822,0.57324 -0.18621,0.72213 0.092,0.14889 0.0361,0.51579 -0.12417,0.81534 -0.4444,0.83038 -0.0876,1.58369 0.74786,1.57892 0.48981,-0.003 0.60035,-0.0734 0.35668,-0.22788 -0.26739,-0.16949 -0.21607,-0.25965 0.21145,-0.37145 0.41859,-0.10947 0.5533,-0.0334 0.52106,0.29402 -0.10358,1.05217 0.0352,1.91713 0.28301,1.76397 0.14606,-0.0903 0.19596,-0.48425 0.11089,-0.87551 -0.11962,-0.55023 -0.0908,-0.62148 0.12727,-0.31452 0.24487,0.3447 0.28247,0.338 0.28599,-0.051 0.003,-0.30457 0.17333,-0.41523 0.53321,-0.34592 0.29105,0.056 0.52917,-0.0173 0.52917,-0.1631 0,-0.14575 0.1393,-0.17892 0.30955,-0.0737 0.213,0.13165 0.25237,0.0423 0.12623,-0.28639 -0.15645,-0.4077 -0.12303,-0.42767 0.22805,-0.1363 0.36357,0.30174 0.37974,0.25822 0.13915,-0.37457 -0.17639,-0.46395 -0.17936,-0.65859 -0.008,-0.55295 0.14508,0.0897 0.26378,-0.0263 0.26378,-0.25776 0,-0.54019 -0.78349,-0.8489 -1.05196,-0.4145 -0.11264,0.18227 -0.27136,0.2237 -0.35271,0.0921 -0.0813,-0.13162 -0.0665,-0.35841 0.0331,-0.50396 0.23958,-0.35034 1.3716,-0.41216 1.3716,-0.0749 0,0.14507 0.11907,0.19017 0.26459,0.10024 0.34088,-0.21068 0.34295,-1.11097 0.003,-1.32105 -0.15713,-0.0971 -0.19017,0.0287 -0.0828,0.31512 0.16316,0.43508 0.13398,0.44206 -0.33376,0.0799 -0.28191,-0.21828 -0.60004,-0.51593 -0.70695,-0.66145 -0.10691,-0.14553 -0.19621,-0.16071 -0.19844,-0.0337 -0.002,0.12695 -0.19162,0.0752 -0.42087,-0.1151 -0.54069,-0.44873 -2.4936,-0.64127 -2.4936,-0.24586 0,0.16151 -0.12427,0.21684 -0.27617,0.12296 -0.15189,-0.0939 -0.46141,-0.017 -0.68781,0.17095 -0.22641,0.18789 -0.75697,0.31531 -1.17904,0.28315 -0.42206,-0.0322 -0.76739,0.0513 -0.76739,0.18555 0,0.13421 0.25168,0.1782 0.55929,0.0978 0.48697,-0.12735 0.53475,-0.0643 0.36951,0.48779 -0.18517,0.61865 -0.17969,0.6212 0.22604,0.10488 0.43018,-0.54743 0.59413,-0.26742 0.20382,0.3481 -0.29944,0.47221 -1.62325,1.13975 -1.62325,0.81853 0,-0.14146 0.1786,-0.32573 0.39688,-0.40949 0.21828,-0.0838 0.39687,-0.31815 0.39687,-0.52087 0,-0.60831 -0.86783,-0.41669 -1.51293,0.33405 -0.61857,0.71987 -0.81227,1.67864 -0.33915,1.67864 0.14552,0 0.26458,-0.28308 0.26458,-0.62906 0,-0.34599 0.17583,-0.77499 0.39072,-0.95333 0.33901,-0.28136 0.33665,-0.1422 -0.0179,1.05152 -0.37803,1.27297 -0.3745,1.41343 0.0472,1.87937 0.26616,0.29411 0.32861,0.50358 0.15014,0.50358 -0.16808,0 -0.30559,-0.11906 -0.30559,-0.26458 0,-0.14552 -0.11906,-0.26459 -0.26459,-0.26459 -0.15277,0 -0.26458,0.83508 -0.26458,1.97607 0,1.59152 0.0726,1.94822 0.37297,1.83295 0.22424,-0.0861 0.44237,0.0755 0.547,0.40518 0.11471,0.36141 0.39873,0.5483 0.83327,0.5483 0.37212,0 0.58802,-0.11523 0.49572,-0.26458 -0.0899,-0.14552 -0.0374,-0.26458 0.11668,-0.26458 0.15411,0 0.28019,0.24927 0.28019,0.55393 0,0.33142 0.21257,0.60953 0.52917,0.69232 0.29104,0.0761 0.52917,0.2563 0.52917,0.40041 0,0.14412 -0.1786,0.1935 -0.39688,0.10974 -0.21828,-0.0838 -0.40066,-0.0667 -0.40529,0.0378 -0.0175,0.39674 -0.67812,1.04649 -1.2477,1.22727 -0.46137,0.14643 -0.55895,0.10031 -0.44056,-0.2082 0.0999,-0.26028 -0.12321,-0.53865 -0.64999,-0.81105 -1.00653,-0.5205 -1.00347,-0.52078 -1.16721,0.10536 -0.0748,0.28606 -0.0589,0.51009 0.0353,0.49783 0.73302,-0.0954 0.89494,0.0699 0.42031,0.42884 -0.4911,0.37145 -0.48104,0.38883 0.22963,0.39688 0.42645,0.005 0.67353,0.12118 0.5797,0.27299 -0.23534,0.38079 0.49318,0.32657 0.8888,-0.0661 0.26714,-0.26518 0.29824,-0.23896 0.1569,0.13229 -0.18357,0.48218 0.25901,0.656 0.53466,0.20999 z m 1.72693,-2.59389 c 0,-0.1591 -0.20836,-0.34373 -0.46302,-0.41028 -0.41744,-0.10909 -0.41897,-0.12402 -0.0156,-0.15169 0.47734,-0.0328 0.90167,0.42822 0.63742,0.69247 -0.0873,0.0873 -0.15879,0.0286 -0.15879,-0.1305 z m -3.30729,-2.72397 c -0.29104,-0.11701 -0.39288,-0.22112 -0.2263,-0.23135 0.20882,-0.0128 0.23786,-0.3068 0.0935,-0.94678 l -0.20934,-0.92818 0.87955,0.72975 c 0.48376,0.40136 0.88816,0.81485 0.89867,0.91887 0.0369,0.36549 -0.91269,0.66812 -1.43611,0.45769 z m 1.07723,-1.45947 c -0.22867,-0.22867 -0.41577,-0.60625 -0.41577,-0.83906 0,-0.23281 -0.2052,-0.67079 -0.456,-0.97329 -0.2508,-0.3025 -0.29583,-0.41047 -0.10005,-0.23994 0.19577,0.17052 0.52138,0.24656 0.72358,0.16897 0.25011,-0.096 0.31658,-0.008 0.20792,0.27515 -0.0879,0.22892 0.0207,0.77795 0.2413,1.22008 0.4509,0.90385 0.40446,0.99353 -0.20098,0.38809 z m 4.016,-2.65419 c -0.9507,-0.50503 -0.92411,-0.65362 0.0661,-0.36962 0.89543,0.25681 0.98524,0.12097 0.36973,-0.55917 -0.23322,-0.2577 -0.37663,-0.61075 -0.31869,-0.78456 0.0592,-0.17761 0.31449,0.003 0.58284,0.41273 0.32347,0.49368 0.40494,0.88334 0.25254,1.20795 -0.20473,0.4361 -0.29038,0.44443 -0.95256,0.0927 z m -1.9527,-0.43576 c 0.0877,-0.32742 0.16116,-0.80367 0.16315,-1.05834 0.002,-0.25466 0.1297,-0.46302 0.28381,-0.46302 0.15411,0 0.20661,0.11907 0.11668,0.26459 -0.0899,0.14552 -0.0332,0.26458 0.12598,0.26458 0.20424,0 0.20884,0.15073 0.0156,0.51177 -0.35744,0.66789 -0.34684,0.88746 0.0316,0.65359 0.18925,-0.11697 0.23364,-0.0726 0.11668,0.11668 -0.10384,0.168 -0.37424,0.30546 -0.60091,0.30546 -0.29826,0 -0.36804,-0.16447 -0.25258,-0.59531 z m 2.26577,-1.93951 c -0.20231,-0.24377 -0.60187,-0.36943 -0.95813,-0.30133 -0.3361,0.0642 -0.81959,-0.0415 -1.07442,-0.23489 -0.25566,-0.19407 -0.32209,-0.35549 -0.14822,-0.36013 0.17331,-0.005 0.38549,0.10545 0.4715,0.24461 0.086,0.13917 0.34114,0.18213 0.56696,0.0955 0.33186,-0.12735 0.34292,-0.20045 0.0577,-0.38127 -0.27026,-0.17132 -0.24448,-0.22466 0.11011,-0.22777 0.25466,-0.002 0.46302,0.12024 0.46302,0.27214 0,0.1519 0.19628,0.24119 0.43618,0.19843 0.2888,-0.0515 0.45265,0.1234 0.48495,0.51757 0.058,0.70842 0.0384,0.71693 -0.40962,0.17716 z m -4.03171,9.92803 c -0.11679,-0.44661 -0.0748,-0.48827 0.23373,-0.23218 0.41065,0.34081 0.46139,0.24838 0.21546,-0.39252 -0.0883,-0.23018 -0.38599,-0.41851 -0.66146,-0.41851 -0.54434,0 -0.67165,0.39238 -0.21824,0.67261 0.15544,0.0961 0.21871,0.34122 0.14059,0.54478 -0.0781,0.20356 -0.0128,0.37011 0.14512,0.37011 0.15953,0 0.22388,-0.24188 0.1448,-0.54429 z m 4.15377,-0.20434 c 0.16073,-0.26007 -0.80545,-0.22601 -1.06915,0.0377 -0.1,0.1 0.0692,0.18178 0.37587,0.18178 0.30671,0 0.61868,-0.0987 0.69328,-0.21946 z m -5.13149,-0.26723 c 0,-0.12217 -0.32742,-0.36222 -0.7276,-0.53346 l -0.7276,-0.31134 0.62462,0.53346 c 0.68903,0.58845 0.83058,0.64151 0.83058,0.31134 z m 7.23479,-1.26199 c -0.0227,-0.42067 0.017,-0.61603 0.0882,-0.43413 0.0712,0.1819 0.25133,0.33073 0.4003,0.33073 0.14896,0 0.19993,-0.18478 0.11327,-0.41062 -0.0904,-0.23546 -0.046,-0.34166 0.10399,-0.24897 0.14385,0.0889 0.26155,-0.0916 0.26155,-0.40114 v -0.5628 l -0.75622,0.53847 c -0.56464,0.40206 -0.74897,0.74159 -0.7276,1.34026 0.0157,0.44099 0.14767,0.75933 0.29319,0.70742 0.14552,-0.0519 0.24602,-0.43856 0.22333,-0.85922 z m -7.66827,0.0289 c -0.0838,-0.21828 -0.31815,-0.39687 -0.52086,-0.39687 -0.45829,0 -0.48508,0.43805 -0.0378,0.61852 0.58421,0.23573 0.71439,0.18409 0.5587,-0.22165 z m 7.06666,-3.52134 c 0.0151,-0.36346 0.057,-0.34922 0.22304,0.0759 0.19993,0.51173 0.21116,0.5107 0.50962,-0.047 0.59539,-1.11251 -0.25784,-1.85794 -1.12923,-0.98656 -0.45574,0.45575 -0.49566,0.65567 -0.25576,1.28086 0.19488,0.50784 0.62669,0.29391 0.65233,-0.32318 z m -2.66443,0.23569 c 0,-0.13362 -0.0702,-0.42597 -0.15607,-0.64967 -0.12288,-0.32023 -0.22978,-0.3389 -0.50263,-0.0878 -0.24121,0.22199 -0.26435,0.41948 -0.0761,0.64967 0.31641,0.38695 0.73481,0.43693 0.73481,0.0878 z m 4.7625,-1.16817 c 0,-0.49993 -0.25511,-0.69258 -0.69407,-0.52413 -0.28985,0.11122 -0.30708,0.23013 -0.074,0.51093 0.38544,0.46443 0.7681,0.47101 0.7681,0.0132 z m -0.34202,-1.23174 c 0.0757,-0.28941 0.24313,-0.46098 0.37211,-0.38126 0.35164,0.21733 0.28243,-0.52629 -0.083,-0.89172 -0.56304,-0.56303 -1.07888,-0.3791 -0.94219,0.33595 0.0687,0.3594 0.0231,0.5905 -0.10145,0.51355 -0.1245,-0.0769 -0.22636,0.10526 -0.22636,0.40489 0,0.70563 0.79727,0.72074 0.98089,0.0186 z" id="path1"/></g></svg>