<svg width="40" height="40" viewBox="0 0 40 40" fill="none" xmlns="http://www.w3.org/2000/svg">
<path fill-rule="evenodd" clip-rule="evenodd" d="M23.8303 -9.06492e-06L40 -5.72205e-06L40 16.8085L35.5036 16.8085L35.5036 8.10148L27.3985 16.3323L23.888 12.7673L31.8963 4.6348L23.8303 4.6348L23.8303 -9.06492e-06ZM36.4965 15.8001L39.0071 15.8001L39.0071 1.00832L39.0071 15.8001L36.4965 15.8001Z" fill="#422905"/>
<path fill-rule="evenodd" clip-rule="evenodd" d="M16.1697 35.3652V40L0 40V23.1915H4.4964L4.4964 31.8985L12.6015 23.6678L16.112 27.2327L8.10374 35.3652L16.1697 35.3652ZM0.992928 38.9917L0.992935 38.9917L0.992937 24.1999H0.992929L0.992928 38.9917Z" fill="#422905"/>
</svg>
