<svg width="40" height="40" viewBox="0 0 40 40" fill="none" xmlns="http://www.w3.org/2000/svg">
<path fill-rule="evenodd" clip-rule="evenodd" d="M40.0001 11.9888V16.5532L23.5588 16.5532V0H28.1307L28.1307 8.57467L36.3719 0.468979L39.9413 3.9798L31.7986 11.9888L40.0001 11.9888ZM24.5684 0.99301L24.5684 15.5602L24.5684 15.5602L24.5684 0.99301L24.5684 0.99301Z" fill="#422905"/>
<path fill-rule="evenodd" clip-rule="evenodd" d="M-6.14712e-05 23.4468L16.4412 23.4468L16.4412 40L11.8693 40L11.8693 31.4253L3.62811 39.531L0.0586342 36.0202L8.2014 28.0112L-6.18769e-05 28.0112L-6.14712e-05 23.4468ZM15.4316 24.4398L1.00953 24.4398L1.00954 24.4398L15.4316 24.4398L15.4316 39.007L15.4316 39.007L15.4316 24.4398Z" fill="#422905"/>
</svg>
