<?xml version="1.0" encoding="utf-8"?>
<svg viewBox="155.114 52.802 100.892 102.028" width="89.4262px" height="90.0008px" preserveAspectRatio="none" xmlns="http://www.w3.org/2000/svg" xmlns:bx="https://boxy-svg.com"><defs><bx:export><bx:file format="svg" path="favicon.svg"/></bx:export></defs><path style="stroke: rgb(0, 0, 0); fill: rgb(255, 255, 255);" d="M 193.092 59.072 L 180.141 71.958 L 180.529 85.707 L 161.23 108.392 L 176.98 132.254 L 212.365 145.978 L 246.384 122.527 L 239.267 108.332 L 236.094 84.614 L 193.092 59.072 Z"/><g transform="matrix(1.1592180728912354, 0, 0, 1, 146.7458038330078, 52.49549865722656)" id="object-0" style=""><path d="M88.418,69.158L80.981,55.51c0,0-1.61-17.865-2.147-23.845c0-0.383-0.23-0.767-0.613-0.997   c0,0-36.266-24.229-38.106-25.455c-0.613-0.383-1.38-0.23-1.763,0.307C35.668,8.817,27.77,18.707,27.77,18.707   c-0.153,0.23-0.307,0.537-0.307,0.843l-0.23,12.498L11.669,55.357c-0.307,0.383-0.307,0.92-0.077,1.38L23.86,79.279   c0.153,0.23,0.307,0.46,0.613,0.537c0,0,27.142,13.111,31.129,15.028c0.46,0.23,0.92,0.23,1.38-0.153   c4.14-3.144,30.976-23.998,30.976-23.998C88.572,70.461,88.725,69.771,88.418,69.158z M78.144,54.283l-21.085-3.987l4.064-9.354   l15.181-7.13L78.144,54.283z M74.771,31.588l-14.184,6.67L43.718,10.887L74.771,31.588z M30.07,20.011l9.124-11.348l19.321,31.436   l-4.6,10.657c-0.077,0.23-0.077,0.537,0,0.843l2.498,9.475L40.498,49.3l-3.604-11.961c-0.077-0.307-0.23-0.537-0.46-0.69   l-6.517-4.754L30.07,20.011z M14.353,56.2l14.491-21.775l5.597,4.064l3.604,11.961c0.025,0.101,0.071,0.191,0.124,0.275   l-5.798,22.957l-6.594,3.22L14.353,56.2z M55.296,91.776L28.23,78.665l5.827-2.837c0.383-0.153,0.69-0.537,0.767-0.997   l5.616-22.314l17.047,12.633l1.258,4.774L55.296,91.776z M58.133,90.626l3.067-19.398l22.082-0.077L58.133,90.626z M61.123,68.544   L57.059,52.98l21.698,4.14l6.211,11.348L61.123,68.544z" style="paint-order: stroke; stroke-linejoin: round; stroke-linecap: round; stroke-width: 7.41009px; stroke: rgb(255, 255, 255);"/></g></svg>