<?xml version="1.0" encoding="utf-8"?>
<svg viewBox="203.904 104.3681 87.8004 87.8667" width="87.8004px" height="87.8667px" xmlns="http://www.w3.org/2000/svg"><path d="M 203.904 148.265 C 203.901 182.06 240.483 203.184 269.751 186.29 C 299.019 169.395 299.023 127.153 269.758 110.253 C 252.551 100.316 230.815 103.176 216.764 117.225 C 208.518 125.449 203.89 136.62 203.904 148.265 Z M 245.731 167.243 C 246.897 167.243 247.625 168.505 247.042 169.514 C 246.772 169.983 246.272 170.271 245.731 170.271 L 227.312 170.271 C 226.478 170.269 225.804 169.592 225.804 168.757 L 225.804 151.615 C 225.774 150.45 227.017 149.69 228.041 150.246 C 228.54 150.518 228.846 151.047 228.831 151.615 L 228.831 167.243 L 245.731 167.243 Z M 249.877 129.287 C 248.712 129.258 248.016 127.978 248.625 126.984 C 248.893 126.546 249.364 126.274 249.877 126.26 L 268.296 126.26 C 269.132 126.26 269.81 126.937 269.81 127.773 L 269.81 147.465 C 269.81 148.631 268.548 149.359 267.539 148.777 C 267.071 148.506 266.782 148.006 266.782 147.465 L 266.782 129.287 L 249.877 129.287 Z" style="fill: #dcbb90" fill-rule="evenodd" id="object-0"/></svg>