<?xml version="1.0" encoding="utf-8"?>
<svg viewBox="27.599 26.349 115.951 159.616" width="115.951px" height="159.616px" xmlns="http://www.w3.org/2000/svg" xmlns:bx="https://boxy-svg.com"><defs><bx:export><bx:file format="svg" path="iloverocks.svg"/></bx:export></defs><path style="fill: rgb(238, 238, 238); fill-rule: nonzero; paint-order: fill; stroke: rgb(173, 171, 171); stroke-width: 9px; stroke-linecap: round; stroke-linejoin: round;" d="M 52.603 43.934 C 42.448 72.397 49.557 160.272 49.797 159.599 C 49.797 161.595 112.205 164.181 112.205 161.884 C 111.178 162.931 119.108 57.395 128.488 47.83 C 124.206 44.255 50.592 42.255 52.603 43.934 Z"/><path style="fill: rgb(255, 56, 56); stroke-width: 6px; stroke-linecap: round; stroke-linejoin: round; stroke: rgb(98, 83, 68);" d="M 68.889 55.972 L 62.262 81.861"/><path style="fill: rgb(255, 56, 56); stroke: rgb(98, 83, 68); stroke-linejoin: round; stroke-linecap: round; stroke-width: 3px;" d="M 97.732 63.359 L 91.92 55.017 L 83.401 61.967 L 84.835 78.757 L 95.337 88.917 L 101.559 75.977 L 114.587 64.716 L 107.956 56.041 L 97.732 63.359 Z"/><path style="fill: none; stroke: rgb(98, 83, 68); stroke-linejoin: round; stroke-linecap: round; stroke-width: 5px;" d="M 58.72 118.64 L 61.336 93.934 L 74.727 104.405 L 60.198 108.874 L 73.036 121.466"/><path style="fill: none; stroke: rgb(98, 83, 68); stroke-linejoin: round; stroke-linecap: round; stroke-width: 5px;" d="M 82.317 111.894 L 88.158 98.064 L 102.993 102.82 L 97.582 119.965 L 87.024 121.537 L 82.317 111.894 Z"/><path style="fill: none; stroke: rgb(98, 83, 68); stroke-linejoin: round; stroke-linecap: round; stroke-width: 5px;" d="M 68.354 129.174 L 57.684 136.48 L 65.609 148.678"/><path style="fill: none; stroke: rgb(98, 83, 68); stroke-linejoin: round; stroke-linecap: round; stroke-width: 5px;" d="M 77.47 129.712 L 72.714 150.067"/><path style="fill: none; stroke: rgb(98, 83, 68); stroke-linejoin: round; stroke-linecap: round; stroke-width: 5px;" d="M 87.945 132.716 L 75.144 139.553 L 83.492 150.313"/><path style="fill: none; stroke: rgb(98, 83, 68); stroke-linejoin: round; stroke-linecap: round; stroke-width: 5px;" d="M 103.73 125.72 L 95.259 132.536 L 105.752 144.253 L 94.7 148.595"/></svg>