<?xml version="1.0" encoding="utf-8"?>
<svg viewBox="87.3279 181.8743 275.0933 134.1078" width="275.093px" height="134.108px" preserveAspectRatio="none" xmlns="http://www.w3.org/2000/svg"><g transform="matrix(1, 0, 0, 1, -319.6847229003906, 122.6611099243164)" id="object-0"><g><path style="fill:#2D2929;" d="M680.602,191.821h-272.09c0,0,10.28-11.64,13.8-15.35c0.18-0.19,0.34-0.36,0.48-0.5&#10;&#9;&#9;&#9;c2.94-3,6.98-12.59,9.66-14.48c2.67-1.89,6.39-2.02,12.06-7.37c5.68-5.35,10.44-7.04,13.89-8.67c2.66-1.25,8.42-8.11,10.96-11.24&#10;&#9;&#9;&#9;c0.81-1,1.94-1.68,3.21-1.93c1.5-0.3,3.69-0.75,5.92-1.23c3.84-0.84,7.81-1.79,8.61-2.3c0.2-0.13,0.39-0.31,0.58-0.54&#10;&#9;&#9;&#9;c1.38-1.67,2.67-5.77,4.96-7.55c2.61-2.02,10.05-4.04,10.31-4.17c0.26-0.13,4.63-5.48,6.13-11.22c-1.37-2.54-0.46-7.69,0.78-10.43&#10;&#9;&#9;&#9;c5.02,0.32,11.15-3.59,13.5-5.22c2.35-1.63,4.24-5.61,6.91-9.65c2.68-4.04,6.92-6.72,8.81-10.17c1.89-3.46,2.28-3.07,7.3-6.14&#10;&#9;&#9;&#9;c5.02-3.06,7.7-3.84,9-1.89c1.31,1.96,2.22,9,4.11,12.2c1.89,3.19,8.35,5.48,9.98,8.02c1.63,2.54,2.93,9.65,6.85,14.48&#10;&#9;&#9;&#9;c5.8,0.85,10.24,3.33,12,6.65c1.76,3.33,2.74,7.7,5.28,12.59c2.54,4.89,4.76,3.52,8.8,7.5c1.23,1.21,2.04,2.49,2.64,3.69&#10;&#9;&#9;&#9;c1.36,2.75,1.62,5.12,3.3,5.44c2.41,0.46,4.82,5.09,7.17,5.87c1.3,0.43,2.38,0.46,3.33,0.24c3.42-0.78,5.24-4.73,9.72-4.68&#10;&#9;&#9;&#9;c7.34,0.1,17.47,20.61,19.95,24.53c2.48,3.91,16.96,10.17,20.61,12.91c2.24,1.68,6.04,9.03,8.65,14.48&#10;&#9;&#9;&#9;c0.08,0.17,0.16,0.34,0.24,0.51c0.01,0.01,0.01,0.03,0.02,0.04C679.552,189.421,680.602,191.821,680.602,191.821z"/></g><g><path style="fill:#FFFFFF;" d="M665.922,180.531c-2.93-2.6-9.38-4.3-12.48-8.28c4.32,2.12,6.47,2.81,6.47,2.81&#10;&#9;&#9;&#9;c-3.51-5.55-14.53-10.31-14.53-10.31s6.91,0.65,12.39,3.72c5.47,3.06,10.3,6.18,13.88,12.11c-0.2-0.4-3.93-7.72-2.86-9.11&#10;&#9;&#9;&#9;c0,0,6.5,9.19,8.98,14.22c-2.61-5.45-6.41-12.8-8.65-14.48c-3.65-2.74-18.13-9-20.61-12.91c-2.48-3.92-12.61-24.43-19.95-24.53&#10;&#9;&#9;&#9;c-4.48-0.05-6.3,3.9-9.72,4.68l-0.07,0.8l0.98,2.61c0,0,5.81-4.04,8.87-3.26c3.07,0.78,3.85,1.5,4.5,3&#10;&#9;&#9;&#9;c0.65,1.5,2.94,2.61,2.94,3.98s2.6,3.91,3.19,5.8c0.59,1.89,1.96,7.83,1.83,11.55c-0.98-4.18-2.81-7.05-2.81-7.05&#10;&#9;&#9;&#9;s-0.85,5.87-0.52,8.55c0.32,2.59,2.4,8.35,2.53,8.71c-0.32-0.41-5.64-7.55-5.01-14.39c-2.54,3.98-2.61,5.41-1.95,7.11&#10;&#9;&#9;&#9;c0.65,1.7,0,6.07,0.97,8.09c0.98,2.02,3.2,3.19,5.03,5.67c1.82,2.48,7.89,10.89,7.89,10.89l-1.31,0.07c0,0-4.37-5.61-6.58-6.98&#10;&#9;&#9;&#9;c-2.22-1.37-4.36-2.23-7.59-5.27c2.5,4.37,6.66,8.02,6.98,8.31c-0.31-0.14-5.42-2.48-8.93-6.74c-3.62-4.4-6.07-6.65-7.24-10.22&#10;&#9;&#9;&#9;c-1.17-3.57-2.69-7.93-5.43-13.11c-2.74-5.19-7.68-14.09-7.68-14.09s6.55,6.51,8.02,9.49c-0.19-3.77-0.93-6.02-5.09-9.69&#10;&#9;&#9;&#9;c-4.15-3.66-3.5-3.81-4.41-4.76c-0.84-0.86-3.53-4.51-3.97-5.12c0.57,0.55,3.88,3.73,5.3,4.54c1.47,0.83,3.16,2.36,3.37,2.55&#10;&#9;&#9;&#9;c-0.2-0.3-2.65-3.88-4.25-5c-1.66-1.17-2.41-3-2.41-3l-0.95-4.59c-0.6-1.2-1.41-2.48-2.64-3.69c-4.04-3.98-6.26-2.61-8.8-7.5&#10;&#9;&#9;&#9;c-2.54-4.89-3.52-9.26-5.28-12.59c-1.76-3.32-6.2-5.8-12-6.65c-3.92-4.83-5.22-11.94-6.85-14.48c-1.63-2.54-8.09-4.83-9.98-8.02&#10;&#9;&#9;&#9;c-1.89-3.2-2.8-10.24-4.11-12.2c-1.3-1.95-3.98-1.17-9,1.89c-5.02,3.07-5.41,2.68-7.3,6.14c-1.89,3.45-6.13,6.13-8.81,10.17&#10;&#9;&#9;&#9;c-2.67,4.04-4.56,8.02-6.91,9.65c-2.35,1.63-8.48,5.54-13.5,5.22c-1.24,2.74-2.15,7.89-0.78,10.43&#10;&#9;&#9;&#9;c-1.5,5.74-5.87,11.09-6.13,11.22c-0.26,0.13-7.7,2.15-10.31,4.17c-2.29,1.78-3.58,5.88-4.96,7.55l0.3,1.65&#10;&#9;&#9;&#9;c5.87-4.7,5.18-6.06,8.71-7.04c3.52-0.98,7.58-1.62,9.44-4.06c1.85-2.45,6.86-9.77,6.86-13.16c0-3.39,0.39-6.59,1.11-6.91&#10;&#9;&#9;&#9;c0.72-0.33,8.41-2.74,10.82-5.81c-0.78,3.65,0,6.72,0,6.72s2.97-12.29,9.82-18.55c6.85-6.27,6.81-9.3,9.82-10.86&#10;&#9;&#9;&#9;c3-1.57,6.42-4.6,6.42-4.6s-0.29,3.1-0.75,4.07c-0.46,0.98-5.02,4.64-4.63,12.53c1.17-3.66,3.19-5.42,3.19-5.42&#10;&#9;&#9;&#9;s-1.95,5.94-0.84,9.13c1.11,3.2,2.08,6.85,2.08,7.63c0,0.79-2.21-1.17-5.47,4.96c-3.07,5.75-4.46,9.26-4.62,9.68&#10;&#9;&#9;&#9;c0.38-0.6,5.1-8.08,7.29-8.83c2.28-0.78,6.13-1.24,10.43-8.28c-2.04,7.02-9.59,20.93-9.89,21.5c0.41-0.43,6.99-7.37,10.22-13.94&#10;&#9;&#9;&#9;c3.33-6.78,4.43-11.48,4.43-11.48s0.4,14.02-9.52,26.16c-9.76,11.94-20.4,27.42-20.73,27.9c0.58-0.49,21.48-18.07,28.17-32.86&#10;&#9;&#9;&#9;c-0.9,10.86-9.04,24.96-9.37,25.54c0.43-0.33,7.37-5.76,10.15-11.19c-1.56,7.56-6.52,18.52-6.52,18.52l1.69,2.22l3.65-8.58&#10;&#9;&#9;&#9;c-0.12,0.65-2.43,12.4-0.91,13.66c1.57,1.31,5.87,3.13,9.26,1.31c3.4-1.83,16.12,1.17,28.47,6.26&#10;&#9;&#9;&#9;c-14.57-2.55-18.59-4.01-23.57-0.88c-4.99,3.13-9.79,5.96-9.79,5.96s13.01-2.83,15.07-4.01c-7.63,6.66-18.78,9.59-25.14,10.28&#10;&#9;&#9;&#9;c-6.36,0.68-15.36,4.01-15.36,4.01l9.88-0.49c0,0-15.26,2.15-22.5,8.21c10.56-3.91,24.85-5.77,29.84-5.96&#10;&#9;&#9;&#9;c4.98-0.2,11.15-1.96,14.18-1.96c3.03,0,4.3-1.56,7.04-3.52c2.57-1.84,10.73-2.38,11.74-2.44c-0.85,0.17-6.86,1.39-9.58,4.3&#10;&#9;&#9;&#9;c-2.94,3.13-6.07,5.18-9.88,5.18c-3.82,0-13.41,1.76-17.52,6.56c6.56-1.67,15.27-4.99,27.3-3.43&#10;&#9;&#9;&#9;c-12.13,2.06-20.74,4.11-28.18,10.67c11.74-4.31,23.19-6.56,29.35-6.17c-11.25,3.92-13.69,6.43-13.01,9.43h53.12&#10;&#9;&#9;&#9;c0,0-4.6-8.84-13.4-12.17c-8.53-3.22-14.12-9.01-14.46-9.37c0.5,0.27,9.5,5.4,14.17,6.73c4.79,1.37,9.09,2.23,22.59,14.81&#10;&#9;&#9;&#9;c0,0-7.24-12.85-16.14-16.08c10.18,1.17,23.77,14.55,24.75,16.08h36.69C673.952,191.821,668.862,183.141,665.922,180.531z&#10;&#9;&#9;&#9; M565.602,84.761c-0.55-0.86-1.12-1.68-1.8-2.42s-1.48-1.41-2.32-2.14c1.1,0.16,2.15,0.6,3.09,1.26c0.94,0.66,1.69,1.56,2.29,2.49&#10;&#9;&#9;&#9;c0.6,0.93,1.07,1.92,1.45,2.94c0.39,1.02,0.69,2.06,0.86,3.16C567.732,88.361,566.722,86.481,565.602,84.761z M592.802,138.441&#10;&#9;&#9;&#9;c-1.68-1.78-3.02-3.71-4.31-5.69c-0.24-0.36-0.48-0.73-0.71-1.1c-0.02,0.98-0.04,1.95-0.1,2.93l-0.31,5.35l-2.39-4.74&#10;&#9;&#9;&#9;c-0.88-1.74-1.71-3.47-2.6-5.16c-0.87-1.7-1.77-3.38-2.75-5.02c-0.94-1.66-1.99-3.25-3.07-4.83c-1.11-1.57-2.27-3.11-3.52-4.6&#10;&#9;&#9;&#9;c1.58,1.13,3.07,2.42,4.44,3.83c1.38,1.4,2.63,2.92,3.83,4.48c1.17,1.58,2.27,3.22,3.29,4.89c0.09,0.14,0.17,0.28,0.25,0.43&#10;&#9;&#9;&#9;l-0.02-1.05l-0.06-2.07l-0.22-6.76l3.02,5.99c1.01,2.01,2.15,4.01,3.27,5.99c1.14,1.96,2.34,3.91,3.66,5.66&#10;&#9;&#9;&#9;c1.38,1.72,2.98,3.36,4.62,4.97c0.82,0.83,1.66,1.63,2.45,2.5c0.79,0.85,1.57,1.76,2.14,2.78c-1.65-1.64-3.62-2.83-5.49-4.22&#10;&#9;&#9;&#9;C596.352,141.631,594.472,140.201,592.802,138.441z M605.242,166.131c-1.31-1.15-2.72-2.12-4.23-2.95&#10;&#9;&#9;&#9;c-1.51-0.82-3.12-1.51-4.78-2.15c-1.66-0.65-3.38-1.17-5.11-1.88c1.85-0.11,3.71,0,5.54,0.39c1.82,0.38,3.63,0.97,5.31,1.89&#10;&#9;&#9;&#9;c1.68,0.91,3.19,2.16,4.4,3.62c1.21,1.47,2.09,3.12,2.75,4.85C607.763,168.621,606.563,167.281,605.242,166.131z"/></g><g><path style="fill:#FFFFFF;" d="M529.282,145.081c-0.29,0.34-4.85,5.94-7.81,8.65c-3.07,2.8-5.28,4.57-8.68,5.22&#10;&#9;&#9;&#9;c-3.39,0.65-5.73,4.17-11.54,6.52c-5.8,2.35-10.17,7.83-13.63,11.22c-3.46,3.39-7.76,7.3-14.28,9&#10;&#9;&#9;&#9;c3.85-2.55,15.45-14.35,20.41-21.92c-7.3,7.37-16.63,11.48-19.04,13.5c-2.42,2.03-5.61,4.76-10.05,5.61&#10;&#9;&#9;&#9;c-4.43,0.85-15.19,4.37-15.19,4.37s10.63-5.87,15.78-7.95c5.15-2.09,7.89-5.61,12.98-9.07c4.93-3.35,7.66-9.75,7.82-10.15&#10;&#9;&#9;&#9;c-0.31,0.29-5.36,5.12-6.13,4.87c-0.78-0.26-4.1-4.05-4.17-5.02c-0.06-0.93,3.53-8.83,3.88-9.6c-0.29,0.59-2.75,5.38-6.29,7.57&#10;&#9;&#9;&#9;c3.16-4.23,7.6-15.07,7.88-15.75c-0.12,0.21-0.94,1.73-2.99,4.08c0.26-3.65-1.11-8.22-1.11-8.22l4.83-3.26&#10;&#9;&#9;&#9;c0,0-8.09,0.98-10.7,2.48c-2.61,1.5-6.39,9.39-11.8,11.67c-5.42,2.29-10.24,4.9-13.7,8.81c-3.46,3.91-9.52,6.13-11.61,7.5&#10;&#9;&#9;&#9;c-2.08,1.37-5.67,10.3-11.67,11.74l-0.16-0.48c0.18-0.19,0.34-0.36,0.48-0.5c2.94-3,6.98-12.59,9.66-14.48&#10;&#9;&#9;&#9;c2.67-1.89,6.39-2.02,12.06-7.37c5.68-5.35,10.44-7.04,13.89-8.67c2.66-1.25,8.42-8.11,10.96-11.24c0.81-1,1.94-1.68,3.21-1.93&#10;&#9;&#9;&#9;c1.5-0.3,3.69-0.75,5.92-1.23c1.83,0.51,3.23,0.76,3.88,0.6c3.36-0.81,4.01,2.65,4.4,5.45c0.39,2.8,3.85,5.54,4.24,8.41&#10;&#9;&#9;&#9;c0.39,2.87,4.83,13.24,9.07,12.26c-3.33-1.56-5.81-10.37-5.81-10.37s3.13,0.33,6.85,2.74c3.72,2.42,2.28,8.35,2.28,8.35&#10;&#9;&#9;&#9;s8.81-2.8,13.37-4.76C521.272,151.801,529.042,145.271,529.282,145.081z"/></g><g><path style="fill:#2D2929;" d="M680.603,193.321H408.512c-0.59,0-1.125-0.346-1.367-0.884c-0.242-0.537-0.147-1.167,0.243-1.609&#10;&#9;&#9;&#9;c0.42-0.475,10.338-11.703,13.837-15.39c0.211-0.223,0.367-0.388,0.505-0.526c1.228-1.254,2.815-4.047,4.35-6.747&#10;&#9;&#9;&#9;c2.043-3.595,3.807-6.7,5.509-7.9c1.022-0.724,2.151-1.209,3.347-1.723c2.215-0.953,4.973-2.139,8.548-5.512&#10;&#9;&#9;&#9;c5.065-4.771,9.52-6.779,12.771-8.246c0.527-0.238,1.03-0.464,1.508-0.69c1.645-0.773,5.642-4.922,10.435-10.829&#10;&#9;&#9;&#9;c1.026-1.267,2.478-2.14,4.085-2.456c1.49-0.298,3.672-0.747,5.895-1.225c6.669-1.459,7.91-1.981,8.132-2.106&#10;&#9;&#9;&#9;c0.012-0.008,0.092-0.071,0.219-0.224c0.422-0.511,0.905-1.443,1.418-2.43c0.983-1.895,2.098-4.042,3.776-5.348&#10;&#9;&#9;&#9;c2.14-1.656,6.788-3.19,10.099-4.2c0.121-0.037,0.226-0.069,0.314-0.096c0.846-0.985,4.01-5.19,5.355-9.781&#10;&#9;&#9;&#9;c-1.297-3.237-0.22-8.469,1.006-11.177c0.257-0.568,0.82-0.923,1.462-0.878c4.458,0.299,10.265-3.37,12.55-4.956&#10;&#9;&#9;&#9;c1.425-0.989,2.796-3.239,4.382-5.844c0.67-1.1,1.363-2.237,2.132-3.4c1.385-2.089,3.094-3.771,4.746-5.396&#10;&#9;&#9;&#9;c1.609-1.584,3.131-3.081,3.999-4.667c1.638-2.997,2.386-3.509,5.289-5.192c0.688-0.399,1.519-0.88,2.544-1.507&#10;&#9;&#9;&#9;c3.19-1.945,8.528-5.196,11.03-1.442c0.75,1.121,1.288,3.193,1.912,5.591c0.627,2.413,1.339,5.148,2.242,6.678&#10;&#9;&#9;&#9;c0.823,1.39,3.052,2.783,5.018,4.012c2.054,1.283,3.992,2.495,4.934,3.96c0.686,1.069,1.268,2.69,1.941,4.568&#10;&#9;&#9;&#9;c1.049,2.92,2.34,6.518,4.462,9.332c6.021,1.006,10.56,3.662,12.509,7.338c0.857,1.62,1.528,3.447,2.241,5.381&#10;&#9;&#9;&#9;c0.804,2.185,1.716,4.661,3.045,7.22c1.262,2.429,2.311,2.986,3.899,3.83c1.236,0.657,2.775,1.474,4.622,3.293&#10;&#9;&#9;&#9;c1.173,1.154,2.131,2.492,2.929,4.088c0.439,0.889,0.765,1.719,1.051,2.452c0.388,0.992,0.827,2.116,1.188,2.185&#10;&#9;&#9;&#9;c1.756,0.335,3.207,1.929,4.611,3.47c0.939,1.032,2.006,2.203,2.751,2.45c0.941,0.311,1.765,0.377,2.518,0.202&#10;&#9;&#9;&#9;c1.125-0.256,2.092-1.002,3.212-1.864c1.738-1.339,3.707-2.855,6.761-2.855c0.034,0,0.068,0,0.104,0.001&#10;&#9;&#9;&#9;c6.166,0.084,13.002,10.734,19.472,22.231c0.753,1.337,1.347,2.393,1.729,2.997c1.381,2.177,8.115,5.758,13.032,8.372&#10;&#9;&#9;&#9;c3.12,1.659,5.815,3.092,7.211,4.14c1.971,1.478,5.033,6.535,9.103,15.032l0.231,0.493c0.003,0.006,0.007,0.013,0.01,0.019&#10;&#9;&#9;&#9;c0.007,0.013,0.013,0.026,0.02,0.04c1.513,3.165,2.58,5.601,2.591,5.625c0.203,0.464,0.158,0.999-0.118,1.423&#10;&#9;&#9;&#9;C681.581,193.065,681.109,193.321,680.603,193.321z M411.844,190.321h266.44c-0.425-0.93-0.973-2.11-1.598-3.419&#10;&#9;&#9;&#9;c-0.012-0.023-0.022-0.045-0.034-0.068l-0.235-0.503c-5.245-10.95-7.477-13.382-8.193-13.919&#10;&#9;&#9;&#9;c-1.211-0.909-3.936-2.358-6.819-3.891c-7.232-3.845-12.48-6.771-14.158-9.415c-0.424-0.671-1.035-1.756-1.809-3.131&#10;&#9;&#9;&#9;c-3.175-5.643-11.609-20.631-16.894-20.703c-2.091-0.038-3.426,1.021-4.996,2.231c-1.283,0.988-2.609,2.01-4.371,2.411&#10;&#9;&#9;&#9;c-1.298,0.302-2.652,0.211-4.134-0.278c-1.492-0.496-2.78-1.91-4.025-3.278c-0.973-1.067-2.183-2.396-2.955-2.543&#10;&#9;&#9;&#9;c-1.989-0.379-2.685-2.157-3.42-4.04c-0.277-0.709-0.563-1.442-0.943-2.209c-0.653-1.308-1.4-2.354-2.347-3.286&#10;&#9;&#9;&#9;c-1.536-1.513-2.75-2.158-3.925-2.781c-1.78-0.946-3.462-1.839-5.154-5.097c-1.417-2.728-2.363-5.298-3.198-7.566&#10;&#9;&#9;&#9;c-0.706-1.917-1.315-3.573-2.077-5.014c-1.536-2.899-5.608-5.093-10.892-5.867c-0.372-0.055-0.71-0.247-0.947-0.539&#10;&#9;&#9;&#9;c-2.652-3.268-4.122-7.364-5.304-10.654c-0.612-1.706-1.142-3.179-1.644-3.961c-0.576-0.898-2.315-1.985-3.998-3.037&#10;&#9;&#9;&#9;c-2.366-1.479-4.813-3.009-6.011-5.029c-1.118-1.894-1.886-4.846-2.563-7.45c-0.485-1.865-1.035-3.979-1.504-4.68&#10;&#9;&#9;&#9;c-0.389-0.585-1.533-0.978-6.973,2.336c-1.048,0.641-1.898,1.134-2.602,1.542c-2.593,1.503-2.863,1.66-4.162,4.037&#10;&#9;&#9;&#9;c-1.081,1.974-2.755,3.621-4.526,5.365c-1.543,1.518-3.139,3.088-4.35,4.914c-0.736,1.115-1.415,2.228-2.07,3.305&#10;&#9;&#9;&#9;c-1.764,2.896-3.287,5.397-5.234,6.749c-2.94,2.038-8.403,5.316-13.347,5.498c-0.965,2.702-1.372,6.534-0.469,8.208&#10;&#9;&#9;&#9;c0.18,0.334,0.227,0.724,0.131,1.091c-1.507,5.768-6.015,11.734-6.91,12.182c-0.155,0.078-0.273,0.114-0.927,0.313&#10;&#9;&#9;&#9;c-4.769,1.455-7.842,2.7-9.136,3.701c-1.157,0.9-2.111,2.738-2.952,4.359c-0.588,1.133-1.144,2.203-1.77,2.961&#10;&#9;&#9;&#9;c-0.295,0.356-0.595,0.63-0.917,0.841c-0.41,0.261-1.235,0.787-9.109,2.509c-2.243,0.483-4.44,0.935-5.946,1.235&#10;&#9;&#9;&#9;c-0.924,0.182-1.753,0.68-2.338,1.403c-3.744,4.613-8.775,10.379-11.488,11.653c-0.489,0.232-1.009,0.466-1.553,0.711&#10;&#9;&#9;&#9;c-3.229,1.456-7.248,3.268-11.947,7.693c-3.96,3.737-7.116,5.094-9.421,6.085c-1.091,0.469-2.034,0.874-2.801,1.417&#10;&#9;&#9;&#9;c-1.155,0.815-3.001,4.064-4.631,6.931c-1.704,2.999-3.313,5.833-4.824,7.374c-0.131,0.131-0.269,0.277-0.422,0.44&#10;&#9;&#9;&#9;C420.949,180.087,415.069,186.689,411.844,190.321z"/></g><g><path style="fill:#2D2929;" d="M576.424,94.08l1.788,3.315c0.636,1.09,1.208,2.228,1.875,3.31c0.682,1.068,1.283,2.206,2.011,3.26&#10;&#9;&#9;&#9;c0.667,1.107,1.396,2.174,2.144,3.299c-2.146-1.508-4.04-3.396-5.783-5.398c-1.738-2.017-3.33-4.156-4.742-6.493L576.424,94.08z"/></g><g><path style="fill:#2D2929;" d="M562.543,78.636c-2.224-0.985-4.346-2.349-5.895-4.225c-1.575-1.85-2.453-4.128-2.732-6.375&#10;&#9;&#9;&#9;c0.721,0.987,1.378,1.88,2.05,2.692c0.692,0.797,1.38,1.534,2.169,2.153c0.782,0.623,1.624,1.156,2.511,1.636&#10;&#9;&#9;&#9;c0.908,0.447,1.846,0.85,2.81,1.262L562.543,78.636z"/></g><g><path style="fill:#2D2929;" d="M652.795,163.693c-2.342-1.401-4.781-2.785-7.028-4.488c-2.244-1.689-4.247-3.787-5.471-6.255&#10;&#9;&#9;&#9;c1.127,0.907,2.182,1.713,3.275,2.435c1.087,0.722,2.166,1.42,3.318,2.037c0.576,0.307,1.166,0.596,1.767,0.872l1.791,0.876&#10;&#9;&#9;&#9;c1.216,0.56,2.436,1.156,3.642,1.817L652.795,163.693z"/></g><g><path style="fill:#2D2929;" d="M593.035,110.837c1.298,2.237,2.24,4.909,2.455,7.612c0.13,1.337,0.118,2.609,0.133,3.828&#10;&#9;&#9;&#9;l0.021,0.907c0.015,0.29,0.005,0.636,0.038,0.821c0.016,0.219,0.03,0.445,0.103,0.691c0.048,0.24,0.109,0.486,0.208,0.74&#10;&#9;&#9;&#9;c0.704,2.042,2.052,4.18,3.241,6.374c0.6,1.103,1.182,2.245,1.666,3.434c0.471,1.19,0.883,2.438,0.951,3.715&#10;&#9;&#9;&#9;c-1.14-2.26-2.765-4.06-4.335-5.988c-1.56-1.938-3.239-3.824-4.408-6.414c-0.151-0.316-0.275-0.664-0.383-1.027&#10;&#9;&#9;&#9;c-0.127-0.345-0.204-0.735-0.267-1.134c-0.081-0.428-0.096-0.707-0.123-1.037l-0.064-0.958c-0.081-1.267-0.116-2.487-0.221-3.629&#10;&#9;&#9;&#9;c-0.19-2.273-0.853-4.4-1.719-6.636L593.035,110.837z"/></g><g><path style="fill:#FFFFFF;" d="M496.395,178.677c7.533-4.5,22.011-16.141,22.011-16.141S502.264,166.155,496.395,178.677z"/></g></g></svg>