<?xml version="1.0" encoding="utf-8"?>
<svg viewBox="87.3279 181.8743 275.0933 134.1078" width="275.093px" height="134.108px" preserveAspectRatio="none" xmlns="http://www.w3.org/2000/svg" xmlns:xlink="http://www.w3.org/1999/xlink" xmlns:bx="https://boxy-svg.com"><defs><bx:export><bx:file format="svg"/><bx:file format="svg" path="Untitled 2.svg" xlink:href="#object-1"/></bx:export></defs><g transform="matrix(1, 0, 0, 1, -319.6847229003906, 122.6611099243164)" id="object-0"><g><path style="fill:#2D2929;" d="M 680.602 191.821 L 408.512 191.821 C 408.512 191.821 418.792 180.181 422.312 176.471 C 422.492 176.281 422.652 176.111 422.792 175.971 C 425.732 172.971 429.772 163.381 432.452 161.491 C 435.122 159.601 438.842 159.471 444.512 154.121 C 450.192 148.771 454.952 147.081 458.402 145.451 C 461.062 144.201 466.822 137.341 469.362 134.211 C 470.172 133.211 471.302 132.531 472.572 132.281 C 474.072 131.981 476.262 131.531 478.492 131.051 C 482.332 130.211 482.784 123.458 483.584 122.948 C 483.784 122.818 483.974 122.638 484.164 122.408 C 485.544 120.738 486.834 116.638 489.124 114.858 C 491.734 112.838 499.174 110.818 499.434 110.688 C 499.694 110.558 507.582 111.011 509.082 105.271 C 507.712 102.731 508.622 97.581 509.862 94.841 C 514.882 95.161 521.012 91.251 523.362 89.621 C 525.712 87.991 527.602 84.011 530.272 79.971 C 532.952 75.931 537.192 73.251 539.082 69.801 C 540.972 66.341 541.362 66.731 546.382 63.661 C 551.402 60.601 554.082 59.821 555.382 61.771 C 556.692 63.731 557.602 70.771 559.492 73.971 C 561.382 77.161 567.842 79.451 569.472 81.991 C 571.102 84.531 572.402 91.641 576.322 96.471 C 582.122 97.321 586.562 99.801 588.322 103.121 C 590.082 106.451 591.062 110.821 593.602 115.711 C 596.142 120.601 598.362 119.231 602.402 123.211 C 603.632 124.421 604.442 125.701 605.042 126.901 C 606.402 129.651 606.662 132.021 608.342 132.341 C 610.752 132.801 613.162 137.431 615.512 138.211 C 616.812 138.641 617.892 138.671 618.842 138.451 C 622.262 137.671 624.082 133.721 628.562 133.771 C 635.902 133.871 646.032 154.381 648.512 158.301 C 650.992 162.211 665.472 168.471 669.122 171.211 C 671.362 172.891 675.162 180.241 677.772 185.691 C 677.852 185.861 677.932 186.031 678.012 186.201 C 678.022 186.211 678.022 186.231 678.032 186.241 C 679.552 189.421 680.602 191.821 680.602 191.821 Z"/></g><g><path style="fill:#FFFFFF;" d="M 665.922 180.531 C 662.992 177.931 656.542 176.231 653.442 172.251 C 657.762 174.371 659.912 175.061 659.912 175.061 C 656.402 169.511 645.382 164.751 645.382 164.751 C 645.382 164.751 652.292 165.401 657.772 168.471 C 663.242 171.531 668.072 174.651 671.652 180.581 C 671.452 180.181 667.722 172.861 668.792 171.471 C 668.792 171.471 675.292 180.661 677.772 185.691 C 675.162 180.241 671.362 172.891 669.122 171.211 C 665.472 168.471 650.992 162.211 648.512 158.301 C 646.032 154.381 635.902 133.871 628.562 133.771 C 624.082 133.721 622.262 137.671 618.842 138.451 L 618.772 139.251 L 619.752 141.861 C 619.752 141.861 625.562 137.821 628.622 138.601 C 631.692 139.381 632.472 140.101 633.122 141.601 C 633.772 143.101 636.062 144.211 636.062 145.581 C 636.062 146.951 638.662 149.491 639.252 151.381 C 639.842 153.271 641.212 159.211 641.082 162.931 C 640.102 158.751 638.272 155.881 638.272 155.881 C 638.272 155.881 637.422 161.751 637.752 164.431 C 638.072 167.021 640.152 172.781 640.282 173.141 C 639.962 172.731 634.642 165.591 635.272 158.751 C 632.732 162.731 632.662 164.161 633.322 165.861 C 633.972 167.561 633.322 171.931 634.292 173.951 C 635.272 175.971 637.492 177.141 639.322 179.621 C 641.142 182.101 647.212 190.511 647.212 190.511 L 645.902 190.581 C 645.902 190.581 641.532 184.971 639.322 183.601 C 637.102 182.231 634.962 181.371 631.732 178.331 C 634.232 182.701 638.392 186.351 638.712 186.641 C 638.402 186.501 633.292 184.161 629.782 179.901 C 626.162 175.501 623.712 173.251 622.542 169.681 C 621.372 166.111 619.852 161.751 617.112 156.571 C 614.372 151.381 609.432 142.481 609.432 142.481 C 609.432 142.481 615.982 148.991 617.452 151.971 C 617.262 148.201 616.522 145.951 612.362 142.281 C 608.212 138.621 608.862 138.471 607.952 137.521 C 607.112 136.661 604.422 133.011 603.982 132.401 C 604.552 132.951 607.862 136.131 609.282 136.941 C 610.752 137.771 612.442 139.301 612.652 139.491 C 612.452 139.191 610.002 135.611 608.402 134.491 C 606.742 133.321 605.992 131.491 605.992 131.491 L 605.042 126.901 C 604.442 125.701 603.632 124.421 602.402 123.211 C 598.362 119.231 596.142 120.601 593.602 115.711 C 591.062 110.821 590.082 106.451 588.322 103.121 C 586.562 99.801 582.122 97.321 576.322 96.471 C 572.402 91.641 571.102 84.531 569.472 81.991 C 567.842 79.451 561.382 77.161 559.492 73.971 C 557.602 70.771 556.692 63.731 555.382 61.771 C 554.082 59.821 551.402 60.601 546.382 63.661 C 541.362 66.731 540.972 66.341 539.082 69.801 C 537.192 73.251 532.952 75.931 530.272 79.971 C 527.602 84.011 525.712 87.991 523.362 89.621 C 521.012 91.251 514.882 95.161 509.862 94.841 C 508.622 97.581 503.798 102.465 505.168 105.005 C 503.668 110.745 501.507 110.539 501.247 110.669 C 500.987 110.799 493.547 112.819 490.937 114.839 C 488.647 116.619 485.857 121.148 484.477 122.818 C 468.187 137.662 485.722 134.547 485.722 134.547 C 491.592 129.847 493.162 123.801 496.692 122.821 C 500.212 121.841 504.272 121.201 506.132 118.761 C 507.982 116.311 512.992 108.991 512.992 105.601 C 512.992 102.211 513.382 99.011 514.102 98.691 C 514.822 98.361 522.512 95.951 524.922 92.881 C 524.142 96.531 524.922 99.601 524.922 99.601 C 524.922 99.601 527.892 87.311 534.742 81.051 C 541.592 74.781 541.552 71.751 544.562 70.191 C 547.562 68.621 550.982 65.591 550.982 65.591 C 550.982 65.591 550.692 68.691 550.232 69.661 C 549.772 70.641 545.212 74.301 545.602 82.191 C 546.772 78.531 548.792 76.771 548.792 76.771 C 548.792 76.771 546.842 82.711 547.952 85.901 C 549.062 89.101 550.032 92.751 550.032 93.531 C 550.032 94.321 547.822 92.361 544.562 98.491 C 541.492 104.241 540.102 107.751 539.942 108.171 C 540.322 107.571 545.042 100.091 547.232 99.341 C 549.512 98.561 553.362 98.101 557.662 91.061 C 555.622 98.081 548.072 111.991 547.772 112.561 C 548.182 112.131 554.762 105.191 557.992 98.621 C 561.322 91.841 562.422 87.141 562.422 87.141 C 562.422 87.141 562.822 101.161 552.902 113.301 C 543.142 125.241 532.502 140.721 532.172 141.201 C 532.752 140.711 553.652 123.131 560.342 108.341 C 559.442 119.201 551.302 133.301 550.972 133.881 C 551.402 133.551 558.342 128.121 561.122 122.691 C 559.562 130.251 554.602 141.211 554.602 141.211 L 556.292 143.431 L 559.942 134.851 C 559.822 135.501 557.512 147.251 559.032 148.511 C 560.602 149.821 564.902 151.641 568.292 149.821 C 571.692 147.991 584.412 150.991 596.762 156.081 C 582.192 153.531 578.172 152.071 573.192 155.201 C 568.202 158.331 563.402 161.161 563.402 161.161 C 563.402 161.161 576.412 158.331 578.472 157.151 C 570.842 163.811 559.692 166.741 553.332 167.431 C 546.972 168.111 537.972 171.441 537.972 171.441 L 547.852 170.951 C 547.852 170.951 532.592 173.101 525.352 179.161 C 535.912 175.251 550.202 173.391 555.192 173.201 C 560.172 173.001 566.342 171.241 569.372 171.241 C 572.402 171.241 573.672 169.681 576.412 167.721 C 578.982 165.881 587.142 165.341 588.152 165.281 C 587.302 165.451 581.292 166.671 578.572 169.581 C 575.632 172.711 572.502 174.761 568.692 174.761 C 564.872 174.761 555.282 176.521 551.172 181.321 C 557.732 179.651 566.442 176.331 578.472 177.891 C 566.342 179.951 557.732 182.001 550.292 188.561 C 562.032 184.251 573.482 182.001 579.642 182.391 C 568.392 186.311 565.952 188.821 566.632 191.821 L 619.752 191.821 C 619.752 191.821 615.152 182.981 606.352 179.651 C 597.822 176.431 592.232 170.641 591.892 170.281 C 592.392 170.551 601.392 175.681 606.062 177.011 C 610.852 178.381 615.152 179.241 628.652 191.821 C 628.652 191.821 621.412 178.971 612.512 175.741 C 622.692 176.911 636.282 190.291 637.262 191.821 L 673.952 191.821 C 673.952 191.821 668.862 183.141 665.922 180.531 Z M 565.602 84.761 C 565.052 83.901 564.482 83.081 563.802 82.341 C 563.122 81.601 562.322 80.931 561.482 80.201 C 562.582 80.361 563.632 80.801 564.572 81.461 C 565.512 82.121 566.262 83.021 566.862 83.951 C 567.462 84.881 567.932 85.871 568.312 86.891 C 568.702 87.911 569.002 88.951 569.172 90.051 C 567.732 88.361 566.722 86.481 565.602 84.761 Z M 592.802 138.441 C 591.122 136.661 589.782 134.731 588.492 132.751 C 588.252 132.391 588.012 132.021 587.782 131.651 C 587.762 132.631 587.742 133.601 587.682 134.581 L 587.372 139.931 L 584.982 135.191 C 584.102 133.451 583.272 131.721 582.382 130.031 C 581.512 128.331 580.612 126.651 579.632 125.011 C 578.692 123.351 577.642 121.761 576.562 120.181 C 575.452 118.611 574.292 117.071 573.042 115.581 C 574.622 116.711 576.112 118.001 577.482 119.411 C 578.862 120.811 580.112 122.331 581.312 123.891 C 582.482 125.471 583.582 127.111 584.602 128.781 C 584.692 128.921 584.772 129.061 584.852 129.211 L 584.832 128.161 L 584.772 126.091 L 584.552 119.331 L 587.572 125.321 C 588.582 127.331 589.722 129.331 590.842 131.311 C 591.982 133.271 593.182 135.221 594.502 136.971 C 595.882 138.691 597.482 140.331 599.122 141.941 C 599.942 142.771 600.782 143.571 601.572 144.441 C 602.362 145.291 603.142 146.201 603.712 147.221 C 602.062 145.581 600.092 144.391 598.222 143.001 C 596.352 141.631 594.472 140.201 592.802 138.441 Z M 605.242 166.131 C 603.932 164.981 602.522 164.011 601.012 163.181 C 599.502 162.361 597.892 161.671 596.232 161.031 C 594.572 160.381 592.852 159.861 591.122 159.151 C 592.972 159.041 594.832 159.151 596.662 159.541 C 598.482 159.921 600.292 160.511 601.972 161.431 C 603.652 162.341 605.162 163.591 606.372 165.051 C 607.582 166.521 608.462 168.171 609.122 169.901 C 607.763 168.621 606.563 167.281 605.242 166.131 Z"/></g><g><path style="fill:#FFFFFF;" d="M 529.282 145.081 C 528.992 145.421 524.432 151.021 521.472 153.731 C 518.402 156.531 516.192 158.301 512.792 158.951 C 509.402 159.601 507.062 163.121 501.252 165.471 C 495.452 167.821 491.082 173.301 487.622 176.691 C 484.162 180.081 479.862 183.991 473.342 185.691 C 477.192 183.141 488.792 171.341 493.752 163.771 C 486.452 171.141 477.122 175.251 474.712 177.271 C 472.292 179.301 469.102 182.031 464.662 182.881 C 460.232 183.731 449.472 187.251 449.472 187.251 C 449.472 187.251 460.102 181.381 465.252 179.301 C 470.402 177.211 473.142 173.691 478.232 170.231 C 483.162 166.881 485.892 160.481 486.052 160.081 C 485.742 160.371 480.692 165.201 479.922 164.951 C 479.142 164.691 475.822 160.901 475.752 159.931 C 475.692 159.001 479.282 151.101 479.632 150.331 C 479.342 150.921 476.882 155.711 473.342 157.901 C 476.502 153.671 480.942 142.831 481.222 142.151 C 481.102 142.361 480.282 143.881 478.232 146.231 C 478.492 142.581 477.122 138.011 477.122 138.011 L 481.952 134.751 C 481.952 134.751 473.862 135.731 471.252 137.231 C 468.642 138.731 464.862 146.621 459.452 148.901 C 454.032 151.191 449.212 153.801 445.752 157.711 C 442.292 161.621 436.232 163.841 434.142 165.211 C 432.062 166.581 428.472 175.511 422.472 176.951 L 422.312 176.471 C 422.492 176.281 422.652 176.111 422.792 175.971 C 425.732 172.971 429.772 163.381 432.452 161.491 C 435.122 159.601 438.842 159.471 444.512 154.121 C 450.192 148.771 454.952 147.081 458.402 145.451 C 461.062 144.201 466.822 137.341 469.362 134.211 C 470.172 133.211 471.302 132.531 472.572 132.281 C 474.072 131.981 476.519 129.28 478.749 128.8 C 480.579 129.31 481.722 131.811 482.372 131.651 C 485.732 130.841 486.382 134.301 486.772 137.101 C 487.162 139.901 490.622 142.641 491.012 145.511 C 491.402 148.381 495.842 158.751 500.082 157.771 C 496.752 156.211 494.272 147.401 494.272 147.401 C 494.272 147.401 497.402 147.731 501.122 150.141 C 504.842 152.561 503.402 158.491 503.402 158.491 C 503.402 158.491 512.212 155.691 516.772 153.731 C 521.272 151.801 529.042 145.271 529.282 145.081 Z" id="object-1"/></g><g><path style="fill:#2D2929;" d="M 680.603 193.321 L 408.512 193.321 C 407.922 193.321 407.387 192.975 407.145 192.437 C 406.903 191.9 406.998 191.27 407.388 190.828 C 407.808 190.353 417.726 179.125 421.225 175.438 C 421.436 175.215 421.592 175.05 421.73 174.912 C 422.958 173.658 424.545 170.865 426.08 168.165 C 428.123 164.57 429.887 161.465 431.589 160.265 C 432.611 159.541 433.74 159.056 434.936 158.542 C 437.151 157.589 439.909 156.403 443.484 153.03 C 448.549 148.259 453.004 146.251 456.255 144.784 C 456.782 144.546 457.285 144.32 457.763 144.094 C 459.408 143.321 463.405 139.172 468.198 133.265 C 469.224 131.998 470.676 131.125 472.283 130.809 C 473.773 130.511 474.521 127.727 476.744 127.249 C 483.413 125.79 482.57 121.8 482.792 121.675 C 482.804 121.667 482.884 121.604 483.011 121.451 C 483.433 120.94 483.916 120.008 484.429 119.021 C 485.412 117.126 486.527 114.979 488.205 113.673 C 490.345 112.017 494.993 110.483 498.304 109.473 C 498.425 109.436 498.53 109.404 498.618 109.377 C 499.464 108.392 501.367 108.378 503.28 105.638 C 501.983 102.401 507.271 96.93 508.497 94.222 C 508.754 93.654 509.317 93.299 509.959 93.344 C 514.417 93.643 520.224 89.974 522.509 88.388 C 523.934 87.399 525.305 85.149 526.891 82.544 C 527.561 81.444 528.254 80.307 529.023 79.144 C 530.408 77.055 532.117 75.373 533.769 73.748 C 535.378 72.164 536.9 70.667 537.768 69.081 C 539.406 66.084 540.154 65.572 543.057 63.889 C 543.745 63.49 544.576 63.009 545.601 62.382 C 548.791 60.437 554.129 57.186 556.631 60.94 C 557.381 62.061 557.919 64.133 558.543 66.531 C 559.17 68.944 559.882 71.679 560.785 73.209 C 561.608 74.599 563.837 75.992 565.803 77.221 C 567.857 78.504 569.795 79.716 570.737 81.181 C 571.423 82.25 572.005 83.871 572.678 85.749 C 573.727 88.669 575.018 92.267 577.14 95.081 C 583.161 96.087 587.7 98.743 589.649 102.419 C 590.506 104.039 591.177 105.866 591.89 107.8 C 592.694 109.985 593.606 112.461 594.935 115.02 C 596.197 117.449 597.246 118.006 598.834 118.85 C 600.07 119.507 601.609 120.324 603.456 122.143 C 604.629 123.297 605.587 124.635 606.385 126.231 C 606.824 127.12 607.15 127.95 607.436 128.683 C 607.824 129.675 608.263 130.799 608.624 130.868 C 610.38 131.203 611.831 132.797 613.235 134.338 C 614.174 135.37 615.241 136.541 615.986 136.788 C 616.927 137.099 617.751 137.165 618.504 136.99 C 619.629 136.734 620.596 135.988 621.716 135.126 C 623.454 133.787 625.423 132.271 628.477 132.271 C 628.511 132.271 628.545 132.271 628.581 132.272 C 634.747 132.356 641.583 143.006 648.053 154.503 C 648.806 155.84 649.4 156.896 649.782 157.5 C 651.163 159.677 657.897 163.258 662.814 165.872 C 665.934 167.531 668.629 168.964 670.025 170.012 C 671.996 171.49 675.058 176.547 679.128 185.044 L 679.359 185.537 C 679.362 185.543 679.366 185.55 679.369 185.556 C 679.376 185.569 679.382 185.582 679.389 185.596 C 680.902 188.761 681.969 191.197 681.98 191.221 C 682.183 191.685 682.138 192.22 681.862 192.644 C 681.581 193.065 681.109 193.321 680.603 193.321 Z M 411.844 190.321 L 678.284 190.321 C 677.859 189.391 677.311 188.211 676.686 186.902 C 676.674 186.879 676.664 186.857 676.652 186.834 L 676.417 186.331 C 671.172 175.381 668.94 172.949 668.224 172.412 C 667.013 171.503 664.288 170.054 661.405 168.521 C 654.173 164.676 648.925 161.75 647.247 159.106 C 646.823 158.435 646.212 157.35 645.438 155.975 C 642.263 150.332 633.829 135.344 628.544 135.272 C 626.453 135.234 625.118 136.293 623.548 137.503 C 622.265 138.491 620.939 139.513 619.177 139.914 C 617.879 140.216 616.525 140.125 615.043 139.636 C 613.551 139.14 612.263 137.726 611.018 136.358 C 610.045 135.291 608.835 133.962 608.063 133.815 C 606.074 133.436 605.378 131.658 604.643 129.775 C 604.366 129.066 604.08 128.333 603.7 127.566 C 603.047 126.258 602.3 125.212 601.353 124.28 C 599.817 122.767 598.603 122.122 597.428 121.499 C 595.648 120.553 593.966 119.66 592.274 116.402 C 590.857 113.674 589.911 111.104 589.076 108.836 C 588.37 106.919 587.761 105.263 586.999 103.822 C 585.463 100.923 581.391 98.729 576.107 97.955 C 575.735 97.9 575.397 97.708 575.16 97.416 C 572.508 94.148 571.038 90.052 569.856 86.762 C 569.244 85.056 568.714 83.583 568.212 82.801 C 567.636 81.903 565.897 80.816 564.214 79.764 C 561.848 78.285 559.401 76.755 558.203 74.735 C 557.085 72.841 556.317 69.889 555.64 67.285 C 555.155 65.42 554.605 63.306 554.136 62.605 C 553.747 62.02 552.603 61.627 547.163 64.941 C 546.115 65.582 545.265 66.075 544.561 66.483 C 541.968 67.986 541.698 68.143 540.399 70.52 C 539.318 72.494 537.644 74.141 535.873 75.885 C 534.33 77.403 532.734 78.973 531.523 80.799 C 530.787 81.914 530.108 83.027 529.453 84.104 C 527.689 87 526.166 89.501 524.219 90.853 C 521.279 92.891 515.816 96.169 510.872 96.351 C 509.907 99.053 505.289 103.124 506.192 104.798 C 506.372 105.132 506.419 105.522 506.323 105.889 C 504.816 111.657 501.001 111.581 500.106 112.029 C 499.951 112.107 499.833 112.143 499.179 112.342 C 494.41 113.797 491.337 115.042 490.043 116.043 C 488.886 116.943 487.932 118.781 487.091 120.402 C 486.503 121.535 485.947 122.605 485.321 123.363 C 485.026 123.719 484.726 123.993 484.404 124.204 C 483.994 124.465 485.253 128.459 477.379 130.181 C 475.136 130.664 474.373 133.451 472.867 133.751 C 471.943 133.933 471.114 134.431 470.529 135.154 C 466.785 139.767 461.754 145.533 459.041 146.807 C 458.552 147.039 458.032 147.273 457.488 147.518 C 454.259 148.974 450.24 150.786 445.541 155.211 C 441.581 158.948 438.425 160.305 436.12 161.296 C 435.029 161.765 434.086 162.17 433.319 162.713 C 432.164 163.528 430.318 166.777 428.688 169.644 C 426.984 172.643 425.375 175.477 423.864 177.018 C 423.733 177.149 423.595 177.295 423.442 177.458 C 420.949 180.087 415.069 186.689 411.844 190.321 Z"/></g><g><path style="fill:#2D2929;" d="M576.424,94.08l1.788,3.315c0.636,1.09,1.208,2.228,1.875,3.31c0.682,1.068,1.283,2.206,2.011,3.26&#10;&#9;&#9;&#9;c0.667,1.107,1.396,2.174,2.144,3.299c-2.146-1.508-4.04-3.396-5.783-5.398c-1.738-2.017-3.33-4.156-4.742-6.493L576.424,94.08z"/></g><g><path style="fill:#2D2929;" d="M562.543,78.636c-2.224-0.985-4.346-2.349-5.895-4.225c-1.575-1.85-2.453-4.128-2.732-6.375&#10;&#9;&#9;&#9;c0.721,0.987,1.378,1.88,2.05,2.692c0.692,0.797,1.38,1.534,2.169,2.153c0.782,0.623,1.624,1.156,2.511,1.636&#10;&#9;&#9;&#9;c0.908,0.447,1.846,0.85,2.81,1.262L562.543,78.636z"/></g><g><path style="fill:#2D2929;" d="M652.795,163.693c-2.342-1.401-4.781-2.785-7.028-4.488c-2.244-1.689-4.247-3.787-5.471-6.255&#10;&#9;&#9;&#9;c1.127,0.907,2.182,1.713,3.275,2.435c1.087,0.722,2.166,1.42,3.318,2.037c0.576,0.307,1.166,0.596,1.767,0.872l1.791,0.876&#10;&#9;&#9;&#9;c1.216,0.56,2.436,1.156,3.642,1.817L652.795,163.693z"/></g><g><path style="fill:#2D2929;" d="M593.035,110.837c1.298,2.237,2.24,4.909,2.455,7.612c0.13,1.337,0.118,2.609,0.133,3.828&#10;&#9;&#9;&#9;l0.021,0.907c0.015,0.29,0.005,0.636,0.038,0.821c0.016,0.219,0.03,0.445,0.103,0.691c0.048,0.24,0.109,0.486,0.208,0.74&#10;&#9;&#9;&#9;c0.704,2.042,2.052,4.18,3.241,6.374c0.6,1.103,1.182,2.245,1.666,3.434c0.471,1.19,0.883,2.438,0.951,3.715&#10;&#9;&#9;&#9;c-1.14-2.26-2.765-4.06-4.335-5.988c-1.56-1.938-3.239-3.824-4.408-6.414c-0.151-0.316-0.275-0.664-0.383-1.027&#10;&#9;&#9;&#9;c-0.127-0.345-0.204-0.735-0.267-1.134c-0.081-0.428-0.096-0.707-0.123-1.037l-0.064-0.958c-0.081-1.267-0.116-2.487-0.221-3.629&#10;&#9;&#9;&#9;c-0.19-2.273-0.853-4.4-1.719-6.636L593.035,110.837z"/></g><g><path style="fill:#FFFFFF;" d="M496.395,178.677c7.533-4.5,22.011-16.141,22.011-16.141S502.264,166.155,496.395,178.677z"/></g></g></svg>