<?xml version="1.0" encoding="utf-8"?>
<svg viewBox="149.0791 68.0042 131.9998 133" width="132px" height="133px" preserveAspectRatio="none" xmlns="http://www.w3.org/2000/svg"><defs><clipPath id="clip0_146_120"><rect width="132" height="133" fill="white"/></clipPath></defs><g clip-path="url(#clip0_146_120)" transform="matrix(1, 0, 0, 1, 149.07907104492188, 68.00419616699219)" id="object-0"><path d="M131.737 94.8101L119.012 74.6416C119.012 74.6416 116.257 48.2413 115.338 39.4043C115.338 38.8383 114.944 38.2708 114.289 37.931C114.289 37.931 52.2345 2.1262 49.0861 0.314461C48.0372 -0.251523 46.7248 -0.0254247 46.0695 0.768135C41.4769 5.64032 27.9626 20.2554 27.9626 20.2554C27.7008 20.5953 27.4373 21.049 27.4373 21.5012L27.0438 39.9703L0.412287 74.4155C-0.113019 74.9815 -0.113019 75.775 0.280533 76.4548L21.2723 109.767C21.5341 110.106 21.7976 110.446 22.3212 110.56C22.3212 110.56 68.7637 129.935 75.5859 132.768C76.373 133.108 77.1601 133.108 77.9472 132.542C85.0311 127.896 130.95 97.0785 130.95 97.0785C132.001 96.7356 132.262 95.716 131.737 94.8101ZM114.157 72.8284L78.0789 66.9365L85.0328 53.1135L111.009 42.5771L114.157 72.8284ZM108.386 39.2905L84.1157 49.1472L55.2512 8.6993L108.386 39.2905ZM31.8982 22.1824L47.5102 5.41275L80.5703 51.8678L72.6992 67.6163C72.5675 67.9562 72.5675 68.4099 72.6992 68.8621L76.9735 82.8639L49.7415 65.4647L43.5747 47.7891C43.4429 47.3355 43.1811 46.9956 42.7876 46.7695L31.6364 39.7442L31.8982 22.1824ZM5.00487 75.6612L29.8004 43.4829L39.3774 49.4886L45.5441 67.1641C45.5869 67.3134 45.6656 67.4463 45.7563 67.5705L35.8354 101.496L24.5524 106.254L5.00487 75.6612ZM75.0623 128.234L28.7497 108.859L38.7203 104.667C39.3756 104.441 39.901 103.873 40.0327 103.193L49.6422 70.2186L78.8113 88.8872L80.9638 95.9421L75.0623 128.234ZM79.9166 126.535L85.1646 97.8691L122.949 97.7553L79.9166 126.535ZM85.0328 93.9028L78.0789 70.9028L115.206 77.0208L125.834 93.7905L85.0328 93.9028Z" fill="black"/><path d="M42 48.5L29.5 40.5L2 75.5L23.5 109L38 102.5L48 67.5L42 48.5Z" fill="#979797" stroke="black"/><path d="M28.5 39.5L29.5 21.5L48 2L83.5 51.5L75 68L81 87.5L49.5 68L42 47.5L28.5 39.5Z" fill="#CDCDCD" stroke="black"/><path d="M39 103L24 110L77 131L83.5 97L81 88.5L49 68.5L39 103Z" fill="#737373" stroke="black"/><path d="M84.5 51.5L48.5 2L113 39.5L84.5 51.5Z" fill="#BFBFBF" stroke="black"/><path d="M76.5 68L118 75L113 40.5L84.5 51.5L76.5 68Z" fill="#737373" stroke="black"/><path d="M84.5 96.5L76.5 69L117.5 76L129.5 95.5L84.5 96.5Z" fill="#979797" stroke="black"/><path d="M84 96.5H129L78 131L84 96.5Z" fill="#5A5959" stroke="black"/></g></svg>