<?xml version="1.0" encoding="utf-8"?>
<svg viewBox="286.4859 208.5159 79.036 82.9682" width="79.036px" height="82.9682px" xmlns="http://www.w3.org/2000/svg"><path d="M 319.721 270.5 L 306.233 257.227 C 305.639 256.649 305.295 255.735 305.28 254.906 C 305.264 254.078 305.581 253.215 306.159 252.617 L 327.866 230.105 C 328.44 229.512 329.233 229.152 330.057 229.137 C 330.901 229.137 331.686 229.43 332.284 230.008 L 345.768 243.028 C 347.01 244.227 347.045 246.204 345.846 247.446 L 324.139 270.423 C 323.565 271.02 322.776 271.876 321.947 271.876 L 321.893 271.876 C 321.084 271.876 320.303 271.063 319.721 270.501 L 319.721 270.5 Z M 344.787 280.304 C 332.717 287.543 317.646 286.75 306.408 278.273 C 292.572 267.847 288.885 248.925 297.056 234.187 L 297.162 234.941 C 297.381 236.504 298.72 237.633 300.252 237.633 C 300.396 237.633 300.545 237.625 300.689 237.601 C 302.4 237.363 303.588 235.781 303.349 234.07 L 302.119 225.32 C 301.877 223.613 300.302 222.414 298.588 222.664 L 289.834 223.891 C 288.127 224.133 286.935 225.711 287.178 227.422 C 287.42 229.133 288.99 230.34 290.709 230.082 L 292.295 229.859 C 281.682 247.449 285.888 270.64 302.647 283.269 C 309.885 288.722 318.467 291.484 327.085 291.484 C 334.284 291.484 341.511 289.558 348.003 285.664 C 349.483 284.777 349.964 282.855 349.073 281.375 C 348.186 279.894 346.268 279.414 344.788 280.304 L 344.787 280.304 Z M 361.299 269.917 L 359.713 270.14 C 370.326 252.55 366.119 229.359 349.361 216.734 C 336.076 206.726 318.271 205.777 304.006 214.336 C 302.522 215.222 302.041 217.144 302.932 218.625 C 303.819 220.105 305.74 220.59 307.217 219.699 C 319.291 212.461 334.354 213.258 345.6 221.73 C 359.436 232.156 363.123 251.078 354.952 265.82 L 354.846 265.062 C 354.604 263.352 353.03 262.141 351.319 262.402 C 349.608 262.644 348.417 264.223 348.659 265.93 L 349.889 274.683 C 350.108 276.246 351.444 277.375 352.979 277.375 C 353.124 277.375 353.268 277.367 353.416 277.344 L 362.17 276.113 C 363.881 275.871 365.073 274.293 364.831 272.586 C 364.584 270.871 363.01 269.672 361.299 269.918 L 361.299 269.917 Z" id="object-0"/></svg>