<svg width="20" height="20" viewBox="0 0 20 20" fill="none" xmlns="http://www.w3.org/2000/svg">
<mask id="path-1-outside-1_163_68" maskUnits="userSpaceOnUse" x="0" y="0" width="20" height="20" fill="black">
<rect fill="white" width="20" height="20"/>
<path fill-rule="evenodd" clip-rule="evenodd" d="M3.40407 18L2 16.584L8.52851 10L2 3.416L3.40407 2L10 8.65199L16.5959 2L18 3.416L11.4715 10L18 16.584L16.5959 18L10 11.348L3.40407 18Z"/>
</mask>
<path fill-rule="evenodd" clip-rule="evenodd" d="M3.40407 18L2 16.584L8.52851 10L2 3.416L3.40407 2L10 8.65199L16.5959 2L18 3.416L11.4715 10L18 16.584L16.5959 18L10 11.348L3.40407 18Z" fill="#422905"/>
<path d="M2 16.584L1.28991 15.8799L0.591733 16.584L1.28991 17.2881L2 16.584ZM3.40407 18L2.69397 18.7041L3.40407 19.4202L4.11416 18.7041L3.40407 18ZM8.52851 10L9.23861 10.7041L9.93678 10L9.23861 9.29589L8.52851 10ZM2 3.416L1.28991 2.71189L0.591734 3.416L1.28991 4.12011L2 3.416ZM3.40407 2L4.11416 1.29589L3.40407 0.579764L2.69398 1.29589L3.40407 2ZM10 8.65199L9.28991 9.3561L10 10.0722L10.7101 9.3561L10 8.65199ZM16.5959 2L17.306 1.29589L16.5959 0.579767L15.8858 1.29589L16.5959 2ZM18 3.416L18.7101 4.12011L19.4083 3.416L18.7101 2.71189L18 3.416ZM11.4715 10L10.7614 9.29589L10.0632 10L10.7614 10.7041L11.4715 10ZM18 16.584L18.7101 17.2881L19.4083 16.584L18.7101 15.8799L18 16.584ZM16.5959 18L15.8858 18.7041L16.5959 19.4202L17.306 18.7041L16.5959 18ZM10 11.348L10.7101 10.6439L10 9.92778L9.2899 10.6439L10 11.348ZM1.28991 17.2881L2.69397 18.7041L4.11416 17.2959L2.71009 15.8799L1.28991 17.2881ZM7.81842 9.29589L1.28991 15.8799L2.71009 17.2881L9.23861 10.7041L7.81842 9.29589ZM1.28991 4.12011L7.81842 10.7041L9.23861 9.29589L2.71009 2.71189L1.28991 4.12011ZM2.69398 1.29589L1.28991 2.71189L2.71009 4.12011L4.11416 2.70411L2.69398 1.29589ZM10.7101 7.94788L4.11416 1.29589L2.69398 2.70411L9.28991 9.3561L10.7101 7.94788ZM15.8858 1.29589L9.28991 7.94788L10.7101 9.3561L17.306 2.70411L15.8858 1.29589ZM18.7101 2.71189L17.306 1.29589L15.8858 2.70411L17.2899 4.12011L18.7101 2.71189ZM12.1816 10.7041L18.7101 4.12011L17.2899 2.71189L10.7614 9.29589L12.1816 10.7041ZM18.7101 15.8799L12.1816 9.29589L10.7614 10.7041L17.2899 17.2881L18.7101 15.8799ZM17.306 18.7041L18.7101 17.2881L17.2899 15.8799L15.8858 17.2959L17.306 18.7041ZM9.2899 12.0521L15.8858 18.7041L17.306 17.2959L10.7101 10.6439L9.2899 12.0521ZM4.11416 18.7041L10.7101 12.0521L9.2899 10.6439L2.69397 17.2959L4.11416 18.7041Z" fill="#422905" mask="url(#path-1-outside-1_163_68)"/>
</svg>
