<?xml version="1.0" encoding="utf-8"?>
<svg viewBox="27.599 26.349 115.951 159.616" width="115.951px" height="159.616px" xmlns="http://www.w3.org/2000/svg" xmlns:bx="https://boxy-svg.com"><defs><bx:export><bx:file format="svg" path="zeus.svg"/></bx:export></defs><path style="fill: none; stroke: rgb(98, 83, 68); stroke-linejoin: round; stroke-linecap: round; stroke-width: 5px;" d="M -13.32 60.175 L -23.99 67.481 L -16.065 79.679"/><path style="fill: rgb(238, 238, 238); fill-rule: nonzero; paint-order: fill; stroke-width: 9px; stroke-linecap: round; stroke-linejoin: round;" d="M 47.603 45.934 C 43.242 77.779 44.557 162.272 44.797 161.599 C 44.797 163.595 126.72 165.521 126.72 163.224 C 125.693 164.271 140.37 43.205 128.738 44.611 C 124.456 41.036 45.592 44.255 47.603 45.934 Z"/><g transform="matrix(0.01358, 0, 0, -0.013651, -97.377739, 92.755302)" fill="#000000" stroke="none" style=""><path d="M 14121.8 3787.816 C 14057.788 3784.873 13995.248 3779.723 13982.005 3777.515 C 13968.761 3775.308 13922.407 3770.158 13877.526 3765.743 C 13721.543 3751.028 13495.663 3718.654 13340.417 3688.488 C 13308.043 3681.866 13265.368 3673.772 13244.767 3670.094 C 13224.901 3666.415 13186.641 3658.321 13160.154 3652.435 C 13133.666 3645.813 13089.52 3635.513 13060.825 3628.891 C 12964.44 3606.818 12954.875 3604.61 12818.023 3567.086 C 12681.906 3530.298 12325.104 3656.212 12252.999 3623.102 C 12244.906 3619.424 11869.457 3679.677 11828.99 3663.491 C 11741.434 3629.645 10618.362 3574.312 10551.407 3542.674 C 10456.493 3498.528 10417.218 -1983.533 10566.578 -1954.103 C 10653.399 -1937.18 10963.892 -1937.18 11074.257 -1954.103 C 11168.435 -1968.818 11288.365 -1996.777 11478.928 -2046.809 C 11527.489 -2060.053 11577.521 -2072.561 11589.293 -2075.504 C 11617.988 -2082.862 11706.28 -2110.085 11776.914 -2132.894 C 11842.397 -2154.967 12055.769 -2238.108 12121.252 -2268.275 C 12147.004 -2280.047 12169.077 -2289.612 12170.548 -2289.612 C 12172.02 -2289.612 12197.036 -2300.648 12227.202 -2314.628 C 12256.633 -2327.872 12297.836 -2347.002 12317.702 -2355.831 C 12422.18 -2402.92 12456.761 -2419.107 12527.395 -2454.424 C 12624.516 -2503.72 12670.134 -2514.756 12825.38 -2528.736 C 12944.574 -2539.772 12969.59 -2542.715 13090.256 -2561.845 C 13118.951 -2566.996 13168.247 -2573.618 13200.621 -2577.296 C 13232.995 -2580.975 13294.063 -2589.069 13336.738 -2594.955 C 13379.412 -2601.577 13438.273 -2609.67 13467.704 -2613.349 C 13497.135 -2617.028 13523.622 -2621.442 13526.565 -2623.65 C 13529.508 -2625.121 13556.732 -2630.272 13586.898 -2634.686 C 13617.065 -2639.101 13668.568 -2647.93 13700.942 -2653.816 C 13764.954 -2666.324 13812.043 -2674.418 13914.314 -2690.604 C 14024.679 -2708.263 14065.882 -2714.885 14131.365 -2727.393 C 14165.946 -2734.75 14213.035 -2741.372 14235.844 -2743.58 C 14300.591 -2749.466 14299.856 -2736.222 14231.429 -2664.117 C 14200.527 -2631.743 14157.117 -2578.032 14135.78 -2544.923 C 14064.41 -2435.294 13926.086 -2178.511 13873.847 -2057.846 C 13865.754 -2037.244 13854.717 -2012.964 13850.302 -2002.663 C 13845.888 -1992.362 13840.002 -1977.647 13836.323 -1969.554 C 13833.38 -1961.46 13825.286 -1943.066 13819.4 -1929.087 C 13806.156 -1898.92 13754.653 -1734.108 13742.145 -1684.076 C 13731.844 -1640.666 13731.844 -1612.707 13741.409 -1612.707 C 13753.917 -1612.707 13792.177 -1634.044 13849.567 -1672.304 C 13878.997 -1692.17 13931.972 -1723.808 13967.289 -1742.202 C 14107.085 -1815.779 14138.723 -1845.209 14215.978 -1969.554 C 14331.493 -2155.702 14403.599 -2233.694 14497.041 -2271.218 C 14535.301 -2286.669 14555.902 -2289.612 14614.763 -2289.612 C 14711.885 -2289.612 14742.787 -2274.161 14831.079 -2179.983 C 14867.867 -2140.987 14912.749 -2088.748 14931.879 -2062.996 C 14967.195 -2015.171 14968.667 -2014.435 14983.382 -2023.265 C 14993.683 -2030.622 14983.382 -2076.976 14956.895 -2146.138 C 14806.798 -2532.415 14775.16 -2625.121 14763.388 -2708.263 C 14752.352 -2787.726 14758.238 -2808.327 14798.705 -2834.079 C 14849.473 -2866.453 14927.464 -2888.526 14973.817 -2883.375 C 15023.114 -2878.225 15051.073 -2863.509 15193.076 -2770.067 C 15392.468 -2638.365 15410.862 -2633.215 15661.759 -2632.479 C 15881.753 -2632.479 15921.484 -2639.101 15961.951 -2682.511 C 16007.569 -2732.543 15984.76 -2772.274 15898.675 -2792.14 C 15871.452 -2798.026 15822.891 -2809.063 15790.518 -2815.685 C 15758.144 -2822.307 15711.055 -2832.607 15686.039 -2838.493 C 15545.508 -2871.603 15403.505 -2939.293 15413.805 -2968.724 C 15417.484 -2981.232 15482.967 -2983.439 15545.508 -2973.874 C 15673.531 -2954.744 15760.351 -2944.444 15856.737 -2937.086 C 15913.391 -2932.671 15982.553 -2927.521 16010.512 -2924.578 C 16038.471 -2922.371 16088.503 -2924.578 16124.555 -2929.728 L 16187.831 -2938.558 L 16231.977 -2984.175 C 16311.44 -3067.317 16376.923 -5050.942 16376.923 -5050.942 C 16307.761 -5050.206 16226.091 -5045.792 16195.925 -5041.377 C 16165.023 -5036.963 16114.255 -5030.341 16083.353 -5026.662 C 16011.247 -5018.568 15932.521 -5006.796 15889.846 -4997.231 C 15871.452 -4993.552 15828.777 -4985.459 15794.196 -4978.837 C 15718.413 -4964.122 15694.868 -4956.028 15663.23 -4933.22 C 15619.82 -4900.846 15601.426 -4854.493 15588.182 -4743.392 C 15554.337 -4457.179 15544.772 -4379.188 15540.357 -4364.472 C 15537.414 -4354.172 15532.264 -4323.269 15514.605 -4202.604 C 15510.191 -4176.116 15504.305 -4140.064 15499.89 -4121.67 C 15496.211 -4103.275 15488.118 -4060.601 15481.496 -4026.02 C 15474.874 -3991.439 15466.781 -3950.236 15463.102 -3934.049 C 15448.386 -3868.566 15432.2 -3799.404 15421.899 -3761.144 C 15416.013 -3739.071 15407.919 -3708.905 15404.24 -3694.925 C 15349.058 -3474.195 15301.969 -3340.286 15278.424 -3335.871 C 15264.445 -3333.664 15260.03 -3358.68 15252.673 -3490.382 C 15247.522 -3572.052 15257.087 -3730.242 15271.803 -3831.042 C 15275.481 -3855.322 15283.575 -3921.541 15290.197 -3978.195 C 15296.083 -4034.849 15304.912 -4104.011 15309.327 -4132.706 C 15313.005 -4160.665 15320.363 -4240.128 15324.778 -4308.554 C 15335.814 -4475.573 15325.513 -4585.938 15288.725 -4706.604 C 15246.051 -4848.606 15186.454 -4928.069 15080.503 -4987.666 C 15002.512 -5031.812 12842.303 -5047.263 12609.801 -4903.789 C 12437.631 -4797.839 12310.344 -4695.567 12113.894 -4506.475 C 12043.997 -4438.049 11962.327 -4366.68 11932.896 -4346.814 C 11904.201 -4326.948 11879.921 -4305.611 11879.921 -4299.725 C 11879.921 -4293.839 11904.201 -4263.672 11934.367 -4232.034 C 12019.716 -4140.064 12211.016 -3880.338 12252.218 -3797.932 C 12272.084 -3758.201 12270.613 -3746.429 12245.597 -3746.429 C 12228.674 -3746.429 12005.001 -3910.505 11866.677 -4024.548 C 11768.82 -4104.747 11757.784 -4098.125 11835.039 -4005.418 C 11854.169 -3982.61 11896.108 -3925.22 11928.481 -3878.867 C 12250.747 -3407.976 12280.178 -3360.152 12348.604 -3194.604 C 12364.791 -3156.344 12385.392 -3098.219 12394.221 -3065.845 C 12403.786 -3033.471 12415.558 -2995.947 12421.445 -2982.704 L 12431.745 -2959.159 L 12492.078 -2959.159 C 12525.923 -2959.159 12573.012 -2962.102 12597.293 -2966.517 C 12687.056 -2980.496 12963.704 -2996.683 13149.117 -2998.155 C 13310.986 -2999.626 13340.417 -2998.155 13340.417 -2989.325 C 13340.417 -2982.704 13302.892 -2959.895 13251.389 -2933.407 C 13168.983 -2892.204 13122.63 -2875.282 12946.782 -2822.307 C 12912.201 -2811.27 12876.148 -2800.234 12865.847 -2796.555 C 12831.266 -2784.783 12695.15 -2753.88 12531.074 -2720.771 C 12341.246 -2681.775 12268.405 -2664.117 12238.975 -2650.137 C 12222.052 -2642.044 12205.865 -2635.422 12202.186 -2635.422 C 12193.357 -2635.422 12194.829 -2676.625 12206.601 -2718.564 C 12233.824 -2823.042 12242.653 -2991.533 12224.995 -3067.317 C 12172.02 -3289.518 12027.81 -3509.512 11802.665 -3711.848 C 11701.865 -3802.347 11640.797 -3847.965 11431.103 -3988.496 C 11199.337 -4143.007 11092.651 -4209.961 10997.001 -4259.994 C 10846.905 -4337.985 10798.345 -4370.358 10798.345 -4390.224 C 10798.345 -4409.354 10801.288 -4410.09 10997.001 -4430.691 C 11093.387 -4440.992 11160.342 -4452.029 11225.089 -4467.48 C 11334.718 -4493.967 11350.169 -4505.004 11350.169 -4557.979 C 11350.169 -4627.141 10477.962 -5019.91 10582.922 -5029.103 C 17491.238 -5634.171 16591.151 -4332.306 16442.526 -4285.217 C 16307.877 -4242.556 16837.97 3467.125 16772.487 3486.255 C 16698.174 3507.592 15667.645 3655.378 15536.678 3681.13 C 15435.143 3700.26 15404.976 3706.146 15323.306 3717.918 C 15280.632 3724.54 15224.714 3732.634 15198.226 3737.048 C 14920.106 3779.723 14419.05 3803.267 14121.8 3787.816 Z M 14364.603 3026.298 C 14583.861 3002.754 14835.493 2951.25 14955.423 2904.897 C 14977.496 2896.068 15003.984 2886.503 15014.284 2883.56 C 15024.585 2879.881 15049.601 2871.052 15069.467 2862.222 C 15090.068 2854.129 15131.271 2838.678 15161.438 2827.641 C 15236.486 2801.154 15322.57 2757.008 15377.017 2718.012 C 15468.988 2651.793 15780.217 2326.585 15809.648 2266.988 C 15833.192 2218.427 15825.099 2186.053 15755.937 2047.729 C 15696.34 1929.271 15624.97 1836.564 15550.658 1782.854 C 15510.927 1753.423 15496.211 1751.216 15485.175 1771.817 C 15475.61 1789.475 15485.91 1826.264 15521.963 1911.613 C 15549.186 1975.624 15565.373 2035.957 15566.109 2074.953 C 15566.109 2124.249 15543.3 2158.83 15531.528 2127.192 C 15517.548 2088.196 15424.106 1986.661 15368.924 1949.137 C 15350.53 1936.629 15338.757 1932.95 15321.099 1936.629 C 15295.347 1941.779 15190.868 1988.868 15190.868 1996.226 C 15190.868 1998.433 15218.827 2054.351 15251.937 2119.834 C 15326.985 2264.78 15338.021 2296.418 15338.021 2363.373 C 15338.021 2446.515 15318.156 2489.189 15234.278 2585.574 C 15175.417 2654.001 15159.23 2657.679 15174.681 2599.554 C 15185.718 2557.615 15186.454 2445.779 15175.417 2399.426 C 15150.401 2292.004 15082.711 2155.887 15022.378 2093.347 C 14992.947 2062.445 14953.952 2040.372 14938.501 2046.258 C 14928.2 2049.937 14918.635 2098.497 14918.635 2147.058 C 14918.635 2175.753 14902.448 2268.459 14887.733 2319.963 C 14847.266 2467.852 14745.73 2607.647 14605.934 2709.183 C 14544.866 2753.329 14494.834 2779.081 14399.92 2814.398 C 14291.762 2854.129 14242.466 2868.109 14210.092 2868.109 C 14171.832 2868.109 14175.511 2854.865 14224.807 2820.284 C 14355.038 2728.313 14462.46 2622.363 14531.622 2518.62 C 14598.577 2418.555 14657.438 2278.76 14669.21 2194.883 C 14679.511 2114.684 14666.267 2098.497 14602.255 2113.948 C 14527.207 2131.607 14511.02 2144.115 14354.302 2297.154 C 14269.689 2379.56 14182.133 2458.287 14160.06 2473.002 C 14102.67 2509.79 13990.098 2552.465 13931.237 2559.823 C 13903.278 2563.501 13877.526 2567.916 13874.583 2570.123 C 13870.904 2571.595 13807.628 2576.745 13733.316 2581.16 C 13635.459 2587.046 13591.313 2587.046 13576.597 2581.16 C 13564.825 2576.745 13557.468 2571.595 13559.675 2569.388 C 13561.882 2566.444 13591.313 2555.408 13625.158 2544.371 C 13743.616 2504.64 13848.831 2446.515 13984.948 2346.45 C 14077.654 2278.76 14234.372 2119.099 14234.372 2092.611 C 14234.372 2079.367 14160.796 2063.916 14096.784 2063.916 C 14038.659 2063.916 13998.191 2080.839 13896.656 2150.737 C 13845.888 2185.318 13749.502 2236.085 13678.869 2264.78 C 13550.846 2317.02 13357.339 2336.885 13211.657 2313.341 C 13088.049 2292.739 13002.7 2253.744 12860.697 2152.208 C 12806.986 2113.948 12777.555 2088.196 12777.555 2079.367 C 12777.555 2071.274 12782.706 2066.123 12790.799 2066.123 C 12812.872 2066.859 12882.034 2085.253 12961.497 2111.741 C 13107.179 2161.037 13193.263 2176.488 13323.494 2176.488 C 13409.579 2176.488 13439.745 2173.545 13505.228 2157.358 C 13656.06 2120.57 13859.132 1999.905 13859.132 1947.665 C 13859.132 1933.686 13772.311 1892.483 13728.901 1885.125 C 13711.243 1882.918 13678.133 1886.597 13638.402 1896.897 C 13603.821 1904.991 13569.24 1913.82 13561.146 1916.027 C 13511.114 1928.535 13377.941 1941.043 13295.535 1941.043 C 13195.471 1941.043 13140.288 1934.421 13071.862 1913.82 C 13031.395 1902.048 13021.83 1898.369 12993.871 1884.389 C 12985.777 1879.975 12952.668 1865.259 12920.294 1852.751 C 12859.225 1826.999 12834.209 1810.813 12840.831 1800.512 C 12843.039 1796.833 12884.977 1793.89 12934.274 1793.89 C 13018.887 1793.89 13257.275 1772.553 13341.888 1757.837 C 13383.827 1749.744 13410.314 1738.708 13410.314 1726.935 C 13410.314 1723.256 13379.412 1704.862 13341.888 1687.204 C 13268.311 1651.887 13144.703 1618.042 12965.176 1584.197 C 12770.934 1547.408 12723.845 1535.636 12606.122 1490.019 C 12543.582 1465.003 12526.659 1455.438 12522.98 1442.194 C 12513.415 1408.349 12547.261 1390.69 12700.3 1352.43 C 12870.998 1309.756 13030.659 1322.264 13124.837 1387.011 C 13146.174 1401.727 13213.865 1451.023 13274.198 1495.905 C 13386.034 1579.046 13436.066 1607.005 13548.638 1649.68 C 13590.577 1665.867 13637.666 1665.131 13643.552 1648.944 C 13646.495 1642.322 13645.024 1611.42 13639.873 1580.518 C 13627.365 1494.433 13583.219 1422.328 13488.305 1331.829 C 13445.631 1291.362 13417.672 1272.232 13361.018 1245.744 C 13321.287 1226.614 13283.027 1208.22 13276.405 1204.541 C 13269.047 1200.863 13258.011 1197.919 13252.125 1197.919 C 13246.238 1197.919 13228.58 1190.562 13213.129 1180.997 C 13198.414 1171.432 13171.19 1158.188 13152.796 1150.83 C 13134.402 1143.473 13113.065 1134.644 13104.971 1130.965 C 13088.049 1124.343 13021.094 1107.42 12962.968 1095.648 C 12940.896 1091.233 12891.599 1087.555 12852.604 1087.555 C 12783.442 1087.555 12765.783 1091.233 12619.366 1130.229 C 12591.407 1138.322 12539.167 1148.623 12504.586 1153.774 C 12448.668 1161.867 12431.745 1161.867 12372.148 1150.83 C 12240.446 1127.286 12167.605 1091.233 12019.716 978.661 C 11925.538 906.556 11821.795 875.654 11714.373 885.955 C 11577.521 899.198 11467.892 966.153 11371.506 1095.648 C 11320.739 1164.074 11281.743 1257.517 11298.666 1267.817 C 11302.344 1270.025 11333.247 1252.366 11367.092 1228.822 C 11461.27 1161.131 11484.079 1152.302 11616.517 1135.379 C 11779.857 1114.778 11893.9 1148.623 12044.732 1261.931 C 12112.423 1313.435 12188.943 1390.69 12188.943 1408.349 C 12188.943 1425.271 12168.341 1428.95 12124.195 1418.649 C 12074.163 1406.877 11947.611 1356.845 11875.506 1320.792 C 11804.873 1285.476 11743.804 1272.968 11697.451 1285.476 C 11654.041 1296.512 11643.004 1306.813 11662.134 1318.585 C 11754.841 1375.975 11909.351 1493.697 11909.351 1507.677 C 11909.351 1511.356 11900.522 1517.978 11889.486 1522.392 C 11848.283 1537.108 11819.588 1555.502 11782.8 1591.554 C 11747.483 1625.4 11673.906 1728.407 11673.906 1743.858 C 11673.906 1756.366 11695.243 1758.573 11715.845 1747.537 C 11785.743 1710.013 11938.782 1684.261 12091.086 1683.525 C 12306.665 1683.525 12408.201 1716.635 12556.826 1835.829 C 12651.739 1912.348 12640.703 1924.856 12508.265 1893.218 C 12328.738 1849.808 12133.76 1818.17 12125.667 1831.414 C 12116.837 1846.129 12280.913 2122.042 12310.344 2141.907 C 12325.059 2152.208 12390.542 2165.452 12534.017 2187.525 C 12619.366 2200.769 12628.931 2204.448 12726.052 2269.195 C 12840.096 2344.979 12858.49 2376.617 12777.555 2356.751 C 12724.58 2344.243 12628.931 2332.471 12543.582 2327.32 C 12458.233 2322.906 12451.611 2330.999 12498.7 2380.296 C 12552.411 2435.478 12746.653 2590.725 12835.681 2648.85 C 12946.782 2721.691 13107.179 2784.967 13255.803 2815.869 C 13342.624 2833.528 13436.802 2840.885 13632.516 2845.3 C 13810.571 2848.979 13837.794 2851.186 13848.831 2862.222 C 13859.132 2872.523 13859.867 2876.938 13852.51 2885.767 C 13834.851 2907.104 13793.648 2924.027 13688.434 2953.457 C 13626.63 2969.644 13630.308 2976.266 13708.3 2992.453 C 13908.428 3033.656 14168.889 3047.635 14364.603 3026.298 Z M 14758.238 1970.474 C 14820.042 1962.38 14894.355 1950.608 14922.314 1944.722 C 14951.009 1938.1 14984.118 1931.478 14995.89 1929.271 C 15093.747 1910.141 15223.242 1848.337 15277.689 1794.626 C 15314.477 1757.102 15346.115 1686.468 15366.716 1591.554 C 15412.334 1387.011 15428.521 1346.544 15503.569 1247.216 C 15531.528 1209.692 15549.186 1179.525 15546.979 1172.903 C 15542.564 1161.131 15492.532 1139.058 15468.988 1139.058 C 15460.894 1139.058 15441.765 1136.115 15427.049 1132.436 C 15392.468 1123.607 15307.119 1105.949 15223.978 1091.233 C 15187.925 1084.611 15141.572 1076.518 15122.442 1072.839 C 15053.28 1058.86 15038.565 1061.803 14994.419 1102.27 C 14934.086 1157.452 14920.106 1152.302 14933.35 1078.725 C 14937.765 1052.974 14945.122 1013.978 14948.801 991.905 C 14955.423 955.852 14998.098 793.984 15026.792 693.92 C 15032.679 674.054 15040.036 645.359 15043.715 631.38 C 15059.902 569.575 15075.353 516.6 15081.239 502.62 C 15084.182 494.527 15089.333 479.812 15091.54 469.511 C 15094.483 459.21 15113.613 418.007 15133.479 377.54 L 15170.267 304.699 L 15157.759 280.419 C 15136.422 240.688 15096.69 206.843 15062.109 198.013 C 15027.528 189.184 14996.626 193.599 14887.733 220.822 C 14825.193 237.009 14823.721 237.009 14762.652 223.765 C 14655.966 200.956 14647.873 200.956 14627.271 220.086 C 14612.556 234.066 14609.613 243.631 14609.613 279.683 C 14609.613 317.943 14611.82 325.301 14634.629 350.317 L 14659.645 377.54 L 14725.128 378.276 C 14760.445 379.012 14792.819 379.748 14796.498 380.483 C 14809.006 381.955 14781.782 406.235 14752.352 418.743 C 14727.336 429.78 14715.563 431.251 14680.982 425.365 C 14658.174 421.686 14628.007 413.593 14613.292 406.235 C 14546.337 374.597 14360.188 120.022 14256.445 -82.314 C 14238.787 -116.895 14216.714 -157.362 14207.149 -172.077 C 14198.32 -187.528 14190.226 -201.508 14190.226 -203.715 C 14190.226 -205.922 14177.718 -225.052 14162.267 -246.389 C 14146.816 -267.727 14132.101 -290.535 14129.158 -297.157 C 14121.8 -318.494 14088.691 -322.173 14070.296 -303.779 C 14055.581 -289.064 14054.11 -280.97 14055.581 -205.187 C 14056.317 -124.988 14063.675 -61.712 14083.54 50.124 C 14110.028 197.278 14111.499 214.2 14100.463 256.139 C 14085.748 312.793 14073.975 312.057 14027.622 249.517 C 13980.533 186.977 13964.346 176.676 13932.708 189.92 C 13898.127 204.635 13885.619 229.651 13881.205 292.191 L 13877.526 348.11 L 13807.628 351.788 L 13736.994 355.467 L 13685.491 393.727 C 13622.951 440.08 13528.773 537.201 13512.586 572.518 C 13505.964 586.498 13496.399 607.099 13491.249 618.136 C 13480.948 640.209 13483.155 662.282 13504.492 745.423 C 13527.301 836.658 13533.923 876.39 13555.26 1062.539 C 13559.675 1105.213 13572.183 1124.343 13656.06 1217.785 C 13712.714 1281.061 13748.031 1331.093 13773.047 1381.125 C 13796.591 1428.214 13796.591 1478.246 13773.047 1690.883 C 13767.897 1733.557 13781.876 1758.573 13837.059 1803.455 C 13915.05 1868.202 13955.517 1889.54 14046.752 1915.291 C 14071.032 1922.649 14105.613 1932.214 14124.007 1937.364 C 14290.291 1984.453 14547.809 1997.697 14758.238 1970.474 Z M 15812.591 1704.127 C 15833.192 1675.432 15876.602 1614.363 15909.712 1569.481 C 15973.723 1481.925 15996.532 1430.422 15989.175 1393.633 C 15981.817 1359.052 15942.821 1297.984 15873.659 1211.163 C 15839.078 1168.489 15806.705 1120.664 15801.554 1105.213 C 15789.046 1067.689 15796.404 939.666 15813.326 896.255 C 15830.249 854.317 15862.623 802.813 15933.992 704.956 C 15964.894 662.282 15993.589 618.136 15998.739 607.099 C 16012.719 573.99 16009.776 497.47 15992.118 450.381 C 15972.988 398.877 15940.614 359.146 15812.591 229.651 C 15757.408 172.997 15706.64 115.608 15698.547 101.628 C 15673.531 53.067 15666.173 -9.473 15675.738 -88.2 C 15688.246 -185.321 15684.567 -272.877 15667.645 -283.913 C 15638.95 -301.572 15603.633 -251.54 15584.503 -164.719 C 15569.052 -96.293 15566.845 30.259 15579.353 64.84 C 15602.897 127.38 15641.157 190.656 15706.64 277.476 C 15794.196 393.727 15814.798 429.78 15820.684 479.076 C 15828.777 549.71 15790.518 620.343 15676.474 741.744 C 15652.194 768.232 15623.499 803.549 15613.198 820.471 C 15594.804 851.374 15594.804 853.581 15602.897 905.085 C 15613.934 971.304 15623.499 1002.941 15657.344 1075.047 C 15672.059 1105.949 15683.832 1140.53 15683.832 1151.566 C 15683.832 1172.903 15663.23 1206.013 15601.426 1284.74 C 15537.414 1365.674 15535.207 1393.633 15594.068 1386.276 C 15758.88 1364.203 15824.363 1379.654 15789.782 1431.893 C 15768.445 1464.267 15688.246 1536.372 15630.856 1574.632 C 15599.218 1595.233 15573.467 1615.835 15573.467 1620.985 C 15573.467 1625.4 15599.218 1646.737 15630.856 1667.338 C 15661.759 1688.675 15702.226 1717.37 15720.62 1730.614 C 15739.014 1744.594 15758.88 1756.366 15764.766 1756.366 C 15770.652 1756.366 15792.725 1732.821 15812.591 1704.127 Z M 13244.767 1013.978 C 13252.125 1001.47 13200.621 938.194 13133.666 875.654 C 13045.374 793.248 12962.233 746.895 12847.453 714.521 C 12810.665 704.22 12766.519 702.013 12593.614 702.013 C 12455.29 701.277 12375.091 698.334 12358.169 692.448 C 12344.189 688.034 12311.08 676.997 12284.592 668.168 C 12199.979 640.945 12141.118 599.742 12033.696 492.32 C 11929.953 389.313 11904.937 357.675 11913.03 344.431 C 11920.388 332.659 12030.017 335.602 12080.785 348.845 C 12127.874 360.618 12185.999 386.369 12255.161 426.101 C 12346.396 477.604 12370.677 489.377 12394.957 494.527 C 12472.212 509.978 12619.366 528.372 12667.191 528.372 C 12735.617 528.372 12877.62 551.917 12940.16 572.518 C 13049.789 609.307 13115.272 654.188 13255.068 785.89 C 13304.364 832.244 13348.51 870.504 13353.66 870.504 C 13380.884 870.504 13358.075 778.533 13308.779 694.655 C 13221.222 543.823 13124.101 440.816 13019.622 386.369 C 12934.274 342.223 12861.433 322.358 12663.512 289.248 C 12534.753 267.175 12486.192 246.574 12352.283 156.075 C 12301.515 121.494 12247.804 88.384 12233.824 81.762 C 12139.646 41.295 12049.147 39.824 11821.059 73.669 C 11698.187 92.063 11689.357 90.591 11589.293 46.446 C 11495.115 5.243 11420.803 -10.944 11317.06 -10.208 C 11238.333 -10.208 11213.317 -7.265 11174.321 5.243 C 11111.045 27.316 11058.806 54.539 11021.282 85.441 C 10983.758 115.608 10923.425 196.542 10907.238 237.745 C 10890.315 281.155 10871.921 361.353 10871.921 391.52 C 10871.921 430.515 10888.108 425.365 10921.218 376.069 C 10955.063 325.301 11005.831 285.569 11070.578 258.346 C 11113.988 240.688 11126.496 238.48 11203.016 239.216 C 11285.422 239.952 11298.666 242.159 11420.067 278.948 C 11467.892 292.927 11622.403 374.597 11661.398 406.235 C 11709.223 445.231 11784.271 532.787 11876.978 657.131 C 12000.586 823.415 12113.159 918.328 12247.804 971.304 C 12377.299 1022.071 12532.545 1020.6 12711.336 966.153 C 12775.348 947.023 12932.802 942.609 13003.436 958.795 C 13068.183 973.511 13141.024 993.376 13189.584 1008.828 C 13230.787 1022.807 13238.881 1023.543 13244.767 1013.978 Z M 15418.22 902.877 C 15433.671 885.955 15433.671 869.032 15417.484 815.321 C 15396.883 747.631 15368.188 735.123 15270.331 752.045 C 15184.246 766.761 15151.137 782.947 15148.194 810.171 C 15145.251 837.394 15156.287 840.337 15213.677 826.358 C 15286.518 809.435 15327.721 811.642 15349.794 833.715 C 15363.038 846.959 15366.716 856.524 15363.773 867.56 C 15357.887 884.483 15377.753 918.328 15393.204 918.328 C 15399.09 918.328 15410.127 910.971 15418.22 902.877 Z M 15349.058 709.371 C 15385.846 710.107 15426.313 713.05 15439.557 715.993 C 15463.102 721.143 15463.102 721.143 15485.91 671.111 C 15540.357 551.181 15543.3 498.942 15500.626 413.593 C 15450.594 313.529 15396.883 171.526 15396.883 138.416 C 15396.883 124.437 15376.281 94.27 15367.452 94.27 C 15354.944 94.27 15337.286 128.851 15297.554 231.859 C 15276.217 287.777 15251.937 348.845 15243.843 366.504 C 15225.449 406.971 15211.47 454.796 15194.547 532.051 C 15187.189 564.425 15178.36 600.477 15175.417 612.25 C 15167.324 638.001 15166.588 707.899 15173.946 715.257 C 15177.624 718.2 15202.641 718.2 15231.335 714.521 C 15259.295 711.578 15313.005 708.635 15349.058 709.371 Z M 13455.932 365.032 C 13478.005 331.187 13505.228 285.569 13515.529 262.761 C 13535.395 220.086 13557.468 109.721 13557.468 50.124 C 13557.468 31.73 13564.825 -19.038 13572.919 -63.919 C 13581.012 -108.065 13589.841 -156.626 13592.049 -171.341 C 13597.199 -209.601 13574.39 -271.405 13520.679 -365.584 C 13454.46 -481.099 13425.03 -545.11 13390.449 -648.853 C 13365.433 -723.902 13344.831 -803.364 13344.095 -823.966 C 13344.095 -868.112 13307.307 -810.722 13271.99 -711.394 C 13257.275 -670.191 13252.86 -641.496 13249.917 -567.919 C 13246.974 -462.705 13255.068 -417.087 13310.25 -250.068 C 13374.998 -54.354 13378.676 -32.281 13388.241 211.993 C 13392.656 319.415 13397.806 411.385 13399.278 416.536 C 13405.9 434.194 13416.2 424.629 13455.932 365.032 Z M 12954.875 95.742 C 12980.627 79.555 13010.793 64.84 13021.83 61.897 C 13053.468 54.539 13107.914 70.726 13146.91 98.685 C 13188.113 129.587 13216.808 130.323 13232.259 101.628 C 13246.238 75.14 13239.617 -31.546 13221.958 -58.769 C 13198.414 -95.557 13161.625 -115.423 13096.878 -127.931 C 13023.301 -141.175 12979.891 -128.667 12923.973 -77.163 C 12899.693 -54.354 12872.469 -21.981 12864.376 -5.794 C 12848.189 25.108 12842.303 92.799 12853.339 119.286 C 12861.433 139.152 12898.957 131.059 12954.875 95.742 Z M 12636.288 101.628 C 12639.231 76.612 12506.058 -188.264 12431.01 -306.722 C 12415.558 -331.738 12405.994 -353.811 12409.672 -357.49 C 12424.388 -372.205 12558.297 -290.535 12659.833 -203.715 C 12692.942 -175.02 12723.845 -152.211 12728.259 -152.211 C 12751.804 -152.211 12703.243 -263.312 12640.703 -351.604 C 12528.131 -512.001 12397.164 -587.049 12152.154 -629.724 C 12113.894 -637.081 12068.277 -645.91 12050.619 -649.589 C 12033.696 -653.268 12010.887 -656.211 12000.586 -656.211 C 11977.042 -656.211 11846.076 -688.585 11812.23 -702.564 C 11784.271 -714.337 11754.841 -741.56 11754.841 -756.275 C 11754.841 -774.669 11777.649 -787.178 11849.019 -809.986 C 11888.75 -822.494 11926.274 -832.795 11932.16 -832.795 C 11938.046 -832.795 11957.176 -837.945 11975.57 -844.567 C 12033.696 -865.169 12307.401 -848.246 12402.315 -818.08 C 12416.294 -813.665 12455.29 -796.007 12489.135 -779.82 C 12522.245 -762.897 12551.675 -751.125 12553.883 -753.332 C 12561.24 -760.69 12518.566 -844.567 12470.741 -916.672 C 12416.294 -998.342 12338.303 -1084.427 12278.706 -1128.573 C 12194.093 -1191.849 12091.086 -1222.015 11909.351 -1237.466 C 11729.824 -1252.182 11668.02 -1259.539 11615.045 -1270.576 C 11523.81 -1290.442 11521.603 -1290.442 11516.452 -1283.084 C 11512.038 -1275.726 11619.46 -1152.117 11678.321 -1096.935 C 11694.508 -1082.22 11765.141 -1027.773 11835.775 -976.269 C 11906.408 -925.502 11966.005 -879.884 11967.477 -875.469 C 11972.627 -860.754 11657.719 -879.148 11556.184 -899.75 C 11414.181 -928.445 11328.096 -983.627 11256.727 -1091.785 C 11201.544 -1177.134 11186.093 -1227.166 11183.886 -1329.437 C 11182.414 -1377.998 11178.736 -1418.465 11175.057 -1419.936 C 11164.02 -1423.615 11093.387 -1355.189 11073.521 -1320.608 C 11037.469 -1259.539 11026.432 -1208.771 11026.432 -1101.35 C 11026.432 -1024.094 11029.375 -993.192 11041.147 -955.668 C 11066.899 -872.526 11141.212 -777.613 11233.918 -709.186 C 11256.727 -692.264 11278.064 -678.284 11280.271 -678.284 C 11282.479 -678.284 11296.458 -670.926 11311.909 -661.361 C 11353.848 -635.61 11421.538 -608.386 11478.928 -595.143 C 11507.623 -588.521 11566.484 -574.541 11610.63 -564.24 C 11685.679 -547.318 11760.727 -514.944 11764.405 -498.021 C 11767.349 -484.778 11692.3 -465.648 11599.594 -456.819 C 11382.543 -436.217 11187.565 -503.908 11039.676 -649.589 C 10982.286 -706.979 10962.42 -730.524 10941.083 -764.369 C 10896.937 -833.531 10824.832 -921.823 10813.796 -919.615 C 10794.666 -915.937 10798.345 -795.271 10819.682 -712.129 C 10874.128 -500.229 11045.562 -294.214 11243.483 -204.451 C 11333.247 -162.512 11347.962 -159.569 11453.176 -159.569 C 11558.391 -159.569 11626.081 -172.077 11684.207 -201.508 C 11755.576 -238.296 11821.795 -253.747 11915.973 -257.426 C 12097.708 -263.312 12171.284 -229.467 12347.132 -56.562 C 12445.725 40.559 12495.757 79.555 12551.675 106.043 C 12601.707 128.851 12633.345 126.644 12636.288 101.628 Z M 14720.714 64.84 C 14797.233 64.84 14809.006 63.368 14831.079 47.917 C 14853.152 33.202 14856.095 26.58 14858.302 -4.322 C 14859.774 -23.452 14856.83 -56.562 14852.416 -77.163 C 14842.115 -126.46 14848.001 -130.874 14927.464 -136.024 C 14999.569 -141.175 15009.87 -135.289 15002.512 -99.236 C 14996.626 -69.07 15012.813 4.507 15030.471 30.259 C 15048.865 55.275 15076.089 56.01 15133.479 32.466 C 15233.543 -8.737 15346.851 -100.708 15431.464 -208.865 C 15463.838 -250.804 15496.947 -294.214 15504.305 -306.722 C 15535.943 -356.019 15579.353 -400.9 15613.198 -418.559 C 15627.913 -426.652 15655.137 -430.331 15691.189 -431.067 C 15752.994 -431.067 15775.802 -422.238 15844.964 -369.998 C 15911.183 -319.966 15937.671 -333.946 15916.334 -406.051 C 15900.883 -457.554 15881.753 -486.985 15834.664 -529.659 C 15777.274 -581.899 15736.807 -599.557 15663.966 -603.236 C 15533.735 -609.858 15427.785 -542.167 15327.721 -390.6 C 15260.03 -286.857 15195.283 -227.259 15098.898 -180.17 C 15042.244 -152.947 15023.114 -152.211 15016.492 -177.963 C 15014.284 -186.057 15003.984 -194.886 14992.947 -197.093 C 14982.646 -199.3 14964.252 -204.451 14951.744 -207.394 C 14913.484 -218.43 14868.603 -223.581 14853.887 -219.166 C 14846.53 -216.223 14836.229 -205.922 14831.814 -196.357 C 14821.514 -174.284 14804.591 -172.813 14753.087 -189.735 C 14704.527 -205.922 14671.417 -222.109 14592.69 -264.784 C 14533.093 -297.893 14522.793 -307.458 14449.216 -395.75 C 14346.209 -518.623 14286.612 -573.07 14215.242 -608.386 C 14157.853 -636.345 14140.93 -642.232 14065.882 -658.418 C 14043.809 -663.569 14024.679 -671.662 14022.472 -676.813 C 14021 -681.963 14032.037 -700.357 14048.224 -717.28 C 14076.183 -748.182 14108.556 -798.214 14201.263 -953.461 C 14216.714 -979.948 14234.372 -1002.021 14238.787 -1002.021 C 14243.937 -1002.021 14254.974 -982.891 14263.803 -959.347 C 14303.534 -854.132 14355.774 -772.462 14444.066 -678.284 C 14551.488 -564.976 14604.463 -503.172 14616.971 -478.892 C 14625.064 -464.176 14645.666 -439.16 14664.06 -422.973 C 14690.547 -399.429 14709.677 -390.6 14761.917 -377.356 C 14862.717 -350.868 14886.261 -347.925 14990.004 -347.925 C 15098.898 -347.189 15120.235 -353.075 15132.007 -386.185 C 15143.043 -418.559 15141.572 -423.709 15116.556 -438.424 C 15097.426 -449.461 15069.467 -453.14 14963.517 -458.29 C 14758.238 -467.855 14756.031 -468.591 14732.486 -544.375 C 14709.677 -616.48 14701.584 -676.077 14712.62 -689.321 C 14725.864 -704.772 14736.901 -703.3 14781.047 -678.284 C 14823.721 -654.74 14870.074 -648.853 14890.676 -665.04 C 14917.163 -685.642 14939.236 -743.767 14968.667 -869.583 C 14978.968 -915.937 14983.382 -924.766 14995.89 -924.766 C 15024.585 -924.766 15036.357 -882.827 15036.357 -782.763 C 15036.357 -698.886 15037.829 -690.792 15054.752 -662.833 C 15065.052 -646.646 15081.975 -629.724 15092.276 -625.309 C 15113.613 -615.744 15118.763 -598.821 15115.82 -553.204 L 15113.613 -520.094 L 15154.08 -522.302 C 15201.905 -525.981 15218.827 -538.489 15245.315 -592.935 C 15267.388 -639.289 15282.103 -682.699 15294.611 -740.824 C 15305.648 -792.328 15313.741 -807.043 15361.566 -863.697 C 15514.605 -1043.96 15544.036 -1189.642 15462.366 -1358.868 C 15419.692 -1447.16 15386.582 -1485.42 15182.039 -1678.19 C 15151.137 -1707.621 15122.442 -1729.694 15118.027 -1726.751 C 15109.198 -1721.6 15106.991 -1698.792 15114.349 -1691.434 C 15117.292 -1689.227 15129.8 -1661.268 15143.043 -1629.63 C 15156.287 -1597.992 15175.417 -1552.374 15184.982 -1528.094 C 15217.356 -1450.839 15221.035 -1433.916 15225.449 -1354.453 C 15229.128 -1288.234 15227.657 -1268.369 15214.413 -1224.958 C 15198.962 -1175.662 15154.08 -1096.935 15129.8 -1076.334 C 15114.349 -1063.826 15114.349 -1063.09 15099.633 -1168.304 C 15093.011 -1213.186 15080.503 -1267.633 15072.41 -1289.706 C 15064.317 -1311.779 15052.544 -1344.152 15045.187 -1362.547 C 15031.207 -1401.542 15028.264 -1498.663 15040.772 -1525.151 C 15067.26 -1580.333 15075.353 -1681.869 15057.695 -1736.316 C 15047.394 -1770.897 15007.663 -1812.835 14990.004 -1809.892 C 14981.175 -1808.421 14948.801 -1763.539 14900.241 -1684.076 C 14858.302 -1616.386 14802.384 -1533.98 14776.632 -1500.135 C 14659.645 -1350.039 14628.007 -1268.369 14617.706 -1093.992 C 14612.556 -994.664 14603.727 -990.249 14564.731 -1066.769 C 14508.813 -1178.605 14506.606 -1306.628 14559.581 -1422.879 C 14579.447 -1465.554 14646.401 -1551.638 14704.527 -1608.292 C 14756.766 -1659.06 14754.559 -1683.341 14700.848 -1657.589 C 14684.661 -1649.495 14647.137 -1634.78 14617.706 -1624.479 C 14544.13 -1598.728 14511.02 -1578.126 14456.574 -1522.944 C 14343.266 -1410.371 14261.596 -1247.031 14244.673 -1101.35 C 14235.108 -1014.529 14218.921 -1013.793 14185.812 -1097.671 C 14168.153 -1144.024 14166.682 -1154.325 14170.361 -1220.544 C 14174.04 -1292.649 14193.905 -1368.433 14227.75 -1439.066 C 14241.73 -1468.497 14245.409 -1487.627 14237.315 -1487.627 C 14230.694 -1487.627 14116.65 -1426.558 14081.333 -1403.75 C 14040.866 -1378.733 13971.704 -1313.25 13947.424 -1277.934 C 13914.314 -1229.373 13870.904 -1143.288 13849.567 -1082.955 C 13820.136 -1000.55 13807.628 -920.351 13807.628 -821.023 C 13807.628 -749.653 13805.421 -729.788 13796.591 -722.43 C 13781.14 -709.922 13764.218 -725.373 13735.523 -779.82 C 13708.3 -832.059 13689.905 -892.392 13689.905 -931.388 C 13690.641 -971.855 13712.714 -1067.504 13736.994 -1130.045 C 13747.295 -1157.268 13753.917 -1183.02 13751.71 -1186.699 C 13735.523 -1213.186 13614.121 -1150.646 13561.146 -1088.842 C 13494.192 -1010.85 13458.875 -895.335 13458.875 -759.218 C 13459.611 -656.947 13469.911 -617.216 13536.866 -457.554 C 13574.39 -368.527 13611.178 -265.519 13624.422 -208.13 C 13630.308 -186.792 13638.402 -166.927 13643.552 -165.455 C 13655.324 -161.041 13711.243 -182.378 13728.901 -198.565 C 13759.067 -225.052 13787.027 -317.759 13787.762 -389.128 C 13787.762 -447.254 13793.648 -456.819 13833.38 -470.062 C 13854.717 -477.42 13875.318 -475.213 14006.285 -451.668 C 14044.545 -444.31 14068.089 -436.953 14107.085 -418.559 C 14125.479 -410.465 14218.185 -299.365 14274.839 -218.43 C 14344.737 -119.102 14439.651 -10.944 14509.549 49.389 C 14538.244 73.669 14539.715 73.669 14586.804 69.254 C 14613.292 67.047 14673.625 64.84 14720.714 64.84 Z M 13060.09 -461.233 C 13070.39 -472.27 13082.163 -500.964 13090.256 -536.281 C 13103.5 -595.143 13132.93 -692.264 13145.438 -718.751 C 13149.117 -726.845 13163.833 -759.954 13178.548 -792.328 C 13193.263 -824.702 13225.637 -883.563 13250.653 -923.294 C 13275.669 -963.761 13305.835 -1011.586 13316.872 -1029.98 C 13343.36 -1073.391 13425.03 -1241.881 13425.03 -1252.182 C 13425.03 -1256.596 13427.973 -1265.425 13431.652 -1272.783 C 13447.838 -1302.95 13473.59 -1382.412 13517.736 -1535.452 C 13554.524 -1662.003 13644.288 -1923.936 13700.942 -2068.882 C 13750.974 -2196.17 13774.519 -2255.031 13789.97 -2288.14 C 13799.535 -2309.478 13807.628 -2329.343 13807.628 -2332.286 C 13807.628 -2335.965 13814.986 -2352.888 13823.079 -2370.546 C 13831.908 -2388.205 13851.774 -2434.558 13867.225 -2472.818 C 13901.806 -2560.374 13899.599 -2564.788 13826.758 -2558.167 C 13798.063 -2555.959 13759.803 -2550.809 13741.409 -2547.13 C 13723.015 -2543.451 13685.491 -2535.358 13656.796 -2529.472 C 13503.757 -2497.834 13327.173 -2469.139 13182.227 -2451.48 C 13143.967 -2447.066 13089.52 -2439.708 13060.825 -2435.294 C 13032.866 -2431.615 12976.212 -2424.993 12935.745 -2422.05 C 12748.861 -2406.599 12675.284 -2399.241 12634.081 -2391.148 C 12578.899 -2380.847 12500.172 -2344.059 12376.563 -2271.218 C 12203.658 -2168.946 12127.874 -2129.951 12023.395 -2088.748 C 11949.083 -2060.053 11811.495 -2012.228 11773.235 -2002.663 C 11692.3 -1981.326 11580.464 -1951.895 11570.899 -1948.952 C 11495.851 -1925.408 11473.042 -1916.578 11469.363 -1908.485 C 11467.156 -1902.599 11476.721 -1888.619 11490.7 -1876.847 C 11510.566 -1859.189 11611.366 -1792.234 11672.435 -1756.181 C 11679.057 -1751.767 11712.902 -1731.901 11747.483 -1711.3 C 11808.551 -1674.511 11906.408 -1622.272 12060.183 -1543.545 C 12102.122 -1522.208 12202.186 -1476.59 12282.385 -1443.481 C 12441.31 -1376.526 12539.903 -1327.23 12619.366 -1275.726 C 12670.134 -1242.617 12793.007 -1126.366 12815.815 -1090.313 C 12825.38 -1074.862 12829.059 -1073.391 12837.888 -1081.484 C 12851.132 -1094.728 12851.132 -1494.249 12837.152 -1682.605 C 12827.588 -1810.628 12828.323 -1829.022 12840.096 -1899.656 C 12851.132 -1968.082 12876.884 -2066.675 12895.278 -2109.349 C 12898.221 -2117.443 12907.05 -2140.251 12915.144 -2160.853 C 12922.501 -2182.19 12942.367 -2211.621 12962.233 -2231.486 C 12993.135 -2263.124 12999.021 -2266.067 13044.639 -2270.482 C 13097.614 -2276.368 13119.687 -2272.689 13125.573 -2257.238 C 13132.195 -2239.58 13111.593 -2128.479 13079.22 -2002.663 C 13021.83 -1783.405 12996.814 -1614.914 12983.57 -1355.189 C 12979.891 -1280.141 12973.269 -1149.174 12968.855 -1064.561 C 12956.347 -828.38 12977.684 -562.033 13017.415 -467.119 C 13029.923 -437.689 13037.281 -436.953 13060.09 -461.233 Z M 15649.986 -718.015 C 15655.872 -728.316 15664.702 -748.918 15668.38 -764.369 C 15688.982 -850.453 15702.961 -888.713 15741.221 -968.912 L 15783.16 -1057.204 L 15781.688 -1134.459 C 15780.953 -1219.808 15769.18 -1260.275 15726.506 -1330.173 C 15697.075 -1378.733 15674.267 -1403.75 15595.54 -1472.912 C 15560.959 -1503.078 15530.792 -1531.037 15527.849 -1535.452 C 15524.17 -1539.866 15519.756 -1539.866 15514.605 -1534.716 C 15508.719 -1528.83 15514.605 -1514.114 15535.207 -1483.212 C 15622.763 -1351.51 15633.799 -1205.093 15569.788 -1057.204 C 15538.886 -988.042 15533 -949.046 15543.3 -893.864 C 15571.259 -745.239 15588.918 -700.357 15620.556 -700.357 C 15630.856 -700.357 15642.629 -707.715 15649.986 -718.015 Z M 15632.328 -1856.246 C 15763.294 -1881.262 15869.245 -1930.558 16045.829 -2048.281 C 16192.982 -2146.138 16314.383 -2115.971 16226.827 -2057.846 C 16195.189 -2036.508 16191.51 -2021.793 16215.79 -2009.285 C 16234.185 -1998.984 16404.147 -2928.257 16351.907 -2821.571 C 16239.335 -2591.276 16070.845 -2391.148 15801.554 -2167.475 C 15742.693 -2118.914 15668.38 -2059.317 15636.007 -2035.773 C 15603.633 -2011.492 15556.544 -1971.761 15530.792 -1946.745 C 15488.854 -1906.278 15484.439 -1898.92 15486.646 -1876.847 C 15488.118 -1855.51 15492.532 -1851.095 15510.927 -1847.416 C 15535.943 -1842.266 15571.995 -1845.209 15632.328 -1856.246 Z" style="fill: rgb(0, 92, 146);"/><path d="M 13987.891 1317.849 C 13965.082 1311.963 13904.749 1263.403 13832.644 1192.769 C 13750.974 1112.571 13710.507 1047.087 13733.316 1033.108 C 13742.145 1027.222 13813.514 1067.689 13906.956 1130.229 C 13970.232 1172.903 13984.212 1179.525 14013.642 1179.525 C 14048.224 1179.525 14120.329 1148.623 14208.621 1095.648 C 14232.901 1080.933 14265.275 1062.539 14280.726 1054.445 C 14295.441 1046.352 14307.949 1037.522 14307.949 1034.579 C 14307.949 1026.486 14221.129 1027.222 14157.117 1036.051 C 14096.048 1043.409 14030.565 1032.372 13965.082 1002.206 C 13887.091 966.153 13811.307 935.251 13790.705 930.101 C 13749.502 919.8 13767.161 897.727 13870.168 827.829 C 13923.143 792.512 13982.74 754.988 14002.606 743.952 C 14085.748 699.806 14274.104 683.619 14378.582 711.578 C 14439.651 727.765 14503.663 756.46 14527.207 778.533 C 14545.601 796.191 14549.28 796.191 14659.645 777.797 C 14701.584 771.175 14715.563 771.175 14722.185 777.797 C 14728.071 783.683 14730.279 810.171 14728.807 857.996 C 14726.6 936.722 14725.128 933.779 14786.197 1010.299 C 14817.835 1049.295 14833.286 1091.969 14845.058 1168.489 C 14854.623 1228.822 14854.623 1227.35 14841.379 1227.35 C 14835.493 1227.35 14828.871 1217.049 14825.928 1200.127 C 14814.156 1135.379 14769.274 1105.213 14704.527 1116.985 C 14683.925 1121.4 14651.552 1124.343 14632.422 1124.343 C 14601.52 1124.343 14553.695 1136.851 14517.642 1153.774 C 14509.549 1157.452 14458.045 1175.846 14403.599 1193.505 C 14349.152 1211.899 14254.974 1246.48 14194.641 1271.496 C 14087.955 1314.906 14026.886 1328.886 13987.891 1317.849 Z M 14164.475 830.036 C 14221.129 810.906 14288.083 810.906 14341.058 830.772 C 14389.619 848.431 14414.635 846.959 14414.635 826.358 C 14414.635 794.72 14294.705 737.33 14198.32 724.086 C 14152.702 717.464 14102.67 736.594 14064.41 775.59 C 14029.829 810.906 14029.829 825.622 14066.618 836.658 C 14103.406 846.959 14118.121 846.223 14164.475 830.036 Z" style="fill: rgb(0, 92, 146);"/><path d="M 10714.467 -3695.661 C 10685.772 -3711.112 10577.615 -3782.481 10570.257 -3790.575 C 10568.05 -3792.782 10557.749 -3801.611 10546.713 -3809.705 C 10410.596 -3914.183 10309.06 -4393.903 10360.564 -4354.172 C 10422.368 -4306.347 10451.063 -4266.615 10590.123 -4033.378 C 10681.358 -3881.074 10754.199 -3737.6 10756.406 -3705.226 C 10758.613 -3679.474 10749.048 -3677.267 10714.467 -3695.661 Z" style="fill: rgb(0, 92, 146);"/><path d="M 13487.57 -4663.929 C 13427.973 -4672.758 13340.417 -4715.433 13265.368 -4770.615 C 13193.999 -4822.855 13188.849 -4851.55 13238.145 -4931.012 C 13309.514 -5046.528 13714.186 -5085.523 13777.462 -5038.434 C 13809.835 -5014.154 13859.132 -4948.671 13859.132 -4929.541 C 13859.132 -4894.96 13782.612 -4814.761 13723.015 -4786.802 C 13688.434 -4770.615 13683.284 -4770.615 13649.438 -4779.444 C 13596.463 -4793.424 13546.431 -4816.969 13505.964 -4846.399 L 13470.647 -4872.151 L 13436.802 -4852.285 C 13400.014 -4830.212 13397.07 -4820.647 13427.237 -4812.554 C 13437.538 -4809.611 13483.155 -4785.331 13527.301 -4757.371 C 13608.971 -4708.075 13621.479 -4693.36 13598.67 -4674.23 C 13586.898 -4663.929 13522.151 -4658.043 13487.57 -4663.929 Z" style="fill: rgb(0, 92, 146);"/></g><rect x="45.914" y="123.447" width="85.035" height="37.319" style="fill: rgb(216, 216, 216); transform-box: fill-box; transform-origin: 50% 50%;" transform="matrix(0.998779, 0.0494, -0.0494, 0.998779, -4.999996, 1.999923)"/><path style="fill-rule: nonzero; paint-order: fill; stroke: rgb(173, 171, 171); stroke-width: 9px; stroke-linecap: round; stroke-linejoin: round; fill: none;" d="M 45.008 44.39 C 40.647 76.235 41.962 160.728 42.202 160.055 C 42.202 162.051 124.125 163.977 124.125 161.68 C 123.098 162.727 137.775 41.661 126.143 43.067 C 121.861 39.492 42.997 42.711 45.008 44.39 Z"/><g transform="matrix(1, 0, 0, 1, -5, 2)"><path style="fill: none; stroke: rgb(98, 83, 68); stroke-linecap: round; stroke-linejoin: round; stroke-width: 5px;" d="M 58.465 128.301 L 72.821 132.002 L 57.269 148.853 L 71.743 148.87"/><path style="fill: none; stroke: rgb(98, 83, 68); stroke-width: 5px; stroke-linecap: round; stroke-linejoin: round;" d="M 90.069 132.623 L 79.949 132.059 L 78.139 149.933 L 88.759 151.024"/><path style="fill: none; stroke: rgb(98, 83, 68); stroke-linecap: round; stroke-linejoin: round; stroke-width: 5px;" d="M 89.424 142.062 L 79.371 140.775"/><path style="fill: none; stroke: rgb(98, 83, 68); stroke-linecap: round; stroke-linejoin: round; stroke-width: 5px;" d="M 95.214 130.072 L 97.036 150.67 L 102.117 148.05 L 106.71 130.245"/><path style="fill: none; stroke: rgb(98, 83, 68); stroke-linecap: round; stroke-linejoin: round; stroke-width: 5px;" d="M 123.518 132.561 L 111.18 140.943 L 118.617 146.646 L 109.122 151.462"/></g></svg>